<svg xmlns="http://www.w3.org/2000/svg" data-name="Layer 1" viewBox="0 0 32 32" id="mic"><path fill="#c8c5cc" d="M15 22.5h2v7h-2z"></path><path fill="#aeadb3" d="M16 22.5h1v7h-1z"></path><path fill="#dadadc" d="M22.5 4.5v12a4.07 4.07 0 0 1 0 .5 4 4 0 0 1-2 3h-.07a3.93 3.93 0 0 1-1.93.5h-5a3.93 3.93 0 0 1-1.93-.5h-.07a4 4 0 0 1-2-3 4.07 4.07 0 0 1 0-.5v-12a4.07 4.07 0 0 1 0-.5 4 4 0 0 1 2-3h.07a3.76 3.76 0 0 1 .93-.37 3.66 3.66 0 0 1 1-.13h5a3.66 3.66 0 0 1 1 .13 3.76 3.76 0 0 1 .93.37h.07a4 4 0 0 1 2 3 4.07 4.07 0 0 1 0 .5Z"></path><path fill="#8b8893" d="M18.5 23h-5A6.51 6.51 0 0 1 7 16.5v-3h1v3a5.51 5.51 0 0 0 5.5 5.5h5a5.51 5.51 0 0 0 5.5-5.5v-3h1v3a6.51 6.51 0 0 1-6.5 6.5Z"></path><path fill="#c8c5cc" d="M15 4v1H9.5v-.5a4.07 4.07 0 0 1 0-.5ZM9.5 6H15v1H9.5zM9.5 8H16v1H9.5zM9.5 10H15v1H9.5zM9.5 12H16v1H9.5zM9.5 14H15v1H9.5zM15 16v1H9.53a4.07 4.07 0 0 1 0-.5V16zm7.5-11.5V5H17V4h5.47a4.07 4.07 0 0 1 .03.5zM17 6h5.5v1H17zM16 8h6.5v1H16zM17 10h5.5v1H17zM16 12h6.5v1H16zM17 14h5.5v1H17zM22.5 16v.5a4.07 4.07 0 0 1 0 .5H17v-1ZM13.5.5h1V3h-1zM15.5.5h1V3h-1zM17.5.5h1V3h-1zM20.5 1v2h-1V.63a3.76 3.76 0 0 1 .93.37zm-8-.37V3h-1V1h.07a3.76 3.76 0 0 1 .93-.37zM13.5 18h1v2h-1zM15.5 18h1v2h-1zM17.5 18h1v2h-1zM19.5 18h1v2h-1zM11.5 18h1v2h-1z"></path><path fill="#8b8893" d="M10.5 29.5h11v2h-11z"></path><path fill="#787681" d="M20.5 29.5h1v2h-1z"></path><circle cx="16" cy="10.5" r="2.5" fill="#8b8893"></circle><path fill="#787681" d="M16 8a2.73 2.73 0 0 0-.5.05 2.5 2.5 0 0 1 0 4.9 2.73 2.73 0 0 0 .5.05 2.5 2.5 0 0 0 0-5Z"></path><path fill="#8b8893" d="M23 13h2v1h-2zM7 13h2v1H7z"></path><path d="M23 13V4a4.49 4.49 0 0 0-4.5-4h-5a4.49 4.49 0 0 0-4.45 4H9v9H7v3.5a6.51 6.51 0 0 0 6.5 6.5h1v6H10v3h12v-3h-4.5v-6h1a6.51 6.51 0 0 0 6.5-6.5V13ZM10 7h5V6h-5V5h5V4h-4.95a3.48 3.48 0 0 1 1.45-2.36V3h1V1.16a3.67 3.67 0 0 1 1-.16v2h1V1h1v2h1V1h1v2h1V1a3.67 3.67 0 0 1 1 .16V3h1V1.64A3.48 3.48 0 0 1 22 4h-5v1h5v1h-5v1h5v1H10Zm8.45 3A2.54 2.54 0 0 0 18 9h4v1ZM22 11v1h-4a2.54 2.54 0 0 0 .46-1Zm-4.5-.5A1.5 1.5 0 1 1 16 9a1.5 1.5 0 0 1 1.5 1.5ZM10 9h4a2.54 2.54 0 0 0-.46 1H10Zm0 2h3.55a2.54 2.54 0 0 0 .45 1h-4Zm0 4h5v-1h-5v-1h12v1h-5v1h5v1h-5v1h5a3.48 3.48 0 0 1-1.45 2.36V18h-1v1.84a3.67 3.67 0 0 1-1 .16v-2h-1v2h-1v-2h-1v2h-1v-2h-1v2a3.67 3.67 0 0 1-1-.16V18h-1v1.36a3.48 3.48 0 0 1-1.5-2.36H15v-1h-5Zm11 15v1H11v-1Zm-5.5-1v-6h1v6ZM24 16.5a5.51 5.51 0 0 1-5.5 5.5h-5A5.51 5.51 0 0 1 8 16.5V14h1v3h.05a4.49 4.49 0 0 0 4.45 4h5a4.49 4.49 0 0 0 4.5-4v-3h1Z"></path></svg>