<svg id="Layer_1" data-name="Layer 1" xmlns="http://www.w3.org/2000/svg" viewBox="0 0 1000 1000"><defs><style>.cls-1{fill:#e9cc79;}.cls-2{fill:#353519;}.cls-3{fill:#bab653;}.cls-4{fill:#666538;}.cls-5{fill:#2b3d0a;}.cls-6{fill:#f4ece5;}.cls-7{fill:#f98638;}.cls-8{fill:#ad4d4d;}.cls-9{fill:#deb8fc;}.cls-10{fill:#ffaa9f;}.cls-11{fill:none;}</style></defs><path class="cls-1" d="M160.86,635.24H851.4c-2.4-91.31-41.63-173.83-103.13-233.87s-145.28-97.6-236.78-99C418,301,331.59,337.53,267.92,397.77S163.33,541.93,160.86,635.24Z"/><path class="cls-2" d="M160.86,634.28H851.4c-2.4,91.31-41.63,173.83-103.13,233.87s-145.28,97.6-236.78,99C418,968.56,331.59,932,267.92,871.75S163.33,727.59,160.86,634.28Z"/><path class="cls-2" d="M161.78,634.29a43.36,43.36,0,0,1-21.28-22.4,39.07,39.07,0,0,1-.66-29.12,38.62,38.62,0,0,1,15.78-18.67,43.22,43.22,0,0,1,24.85-6.35,82.57,82.57,0,0,1-6.72-36.48c.57-12.6,4.19-24.7,11.54-33.52a59.07,59.07,0,0,1,32.76-19.63,66.44,66.44,0,0,1,19.88-1.6,83.11,83.11,0,0,1,38.29,12.72c10.82,7,19.26,16.65,24,28.14a103.54,103.54,0,0,1,6.08,22.22c1.18,7.33,1.5,13.91.86,17.73a62.07,62.07,0,0,1,43.64-6.51,57,57,0,0,1,35,23.21,56.35,56.35,0,0,1,9.43,35,61.89,61.89,0,0,1-13.64,35.24H161.78Z"/><path class="cls-3" d="M371.61,302.22l35.56-.31,35.55-.31a45.12,45.12,0,0,0,27.59-16.23,44.54,44.54,0,0,0,9.9-30.16c-.58-11.5-5.57-19.8-13.33-25.32s-18.31-8.27-30-8.65A36.4,36.4,0,0,0,457.52,220a31.06,31.06,0,0,0,15.31-12,30.62,30.62,0,0,0,4.55-20.68,34.3,34.3,0,0,0-6.82-17c-6.08-7.56-14.86-11.87-24.38-14.17s-19.76-2.59-28.74-2.11c-.19,0-1.58.06-2.92.14a7.51,7.51,0,0,0-2.67.4l-.28,0c-.14,0-.28,0-.29,0s5.33-1.46,12.24-4.35,15.37-7.37,21.52-14A42,42,0,0,0,454,121.09c1.91-5.9,2.33-12.32,0-18.28A25,25,0,0,0,446.81,93a33.59,33.59,0,0,0-6.3-4.21c-12.29-6.54-26.86-5.35-38.58-2.36s-20.61,7.81-21.52,8.49c2.6-18.54,1-35.1-3.61-47.85s-12.22-21.69-21.64-25a27.32,27.32,0,0,0-13-1.13,27.91,27.91,0,0,0-6.59,1.77c-9.2,3.85-16.29,13.11-20.19,25.9s-4.59,29.11-1,47.09a122.17,122.17,0,0,0-26.54-4c-12.93-.37-27.29,1.91-35.06,12a23.32,23.32,0,0,0-1.91,2.86,26.48,26.48,0,0,0-1.62,3.38,34.22,34.22,0,0,0-1.75,9.59,27.53,27.53,0,0,0,.64,6.88c1.58,7,6,13.44,12.57,18.7S276,154.48,286.19,157h0c-9-.8-20.57-.93-31.09,1.69s-20,8-24.93,18.15A31.12,31.12,0,0,0,227.46,195a33,33,0,0,0,7.76,16.79,46.46,46.46,0,0,0,15.59,11.53c7,3.28,16,5.67,27.52,6.22l8.68-.23,8.67-.23q-4.76.45-9.09.55t-8.26-.09l-12.4.33-12.4.33a39.17,39.17,0,0,0-25.93,10.76A37.22,37.22,0,0,0,216,266.24a37.89,37.89,0,0,0,38.85,39.69l28.5-1,28.51-1L312.18,469l.37,165.17h59.3c0-21.27-.08-93.63-.12-166S371.65,323.49,371.61,302.22Z"/><polygon class="cls-2" points="371.37 301.99 354.65 301.99 337.93 301.99 354.65 327.82 371.37 353.65 371.37 327.82 371.37 301.99"/><path class="cls-4" d="M411.85,156.09H396.32a1.5,1.5,0,0,1-1.5-1.5,1.51,1.51,0,0,1,.44-1.06,1.49,1.49,0,0,1,1.06-.44h15.53a1.53,1.53,0,0,1,1.07.44,1.5,1.5,0,0,1,.43,1.06,1.48,1.48,0,0,1-.43,1.06A1.53,1.53,0,0,1,411.85,156.09Z"/><path class="cls-4" d="M319.67,102.31a1.52,1.52,0,0,1-.55-.1,1.65,1.65,0,0,1-.49-.32L316,99.35l-2.63-2.54a1.51,1.51,0,0,1-.46-1,1.47,1.47,0,0,1,.42-1.07,1.5,1.5,0,0,1,2.12,0l2.63,2.54,2.64,2.54a1.5,1.5,0,0,1,.45,1,1.45,1.45,0,0,1-.42,1.07,1.34,1.34,0,0,1-.5.35A1.62,1.62,0,0,1,319.67,102.31Z"/><path class="cls-3" d="M293.2,229.05l-8.68.23-8.68.23q3.93.19,8.27.09T293.2,229.05Z"/><path class="cls-4" d="M290,230.78H263.91a1.5,1.5,0,0,1-1.5-1.5,1.49,1.49,0,0,1,.44-1.06,1.46,1.46,0,0,1,1.06-.44H290a1.46,1.46,0,0,1,1.06.44,1.49,1.49,0,0,1,.44,1.06,1.5,1.5,0,0,1-1.5,1.5Z"/><path class="cls-4" d="M695.57,331.14l-6.39.17-6.4.17a.14.14,0,0,1-.15-.12.15.15,0,0,1,.11-.16,35.22,35.22,0,0,0,12.7-7.58,22.76,22.76,0,0,0,6.61-10.92,22.25,22.25,0,0,0-.65-12.16,26.47,26.47,0,0,0-17.89-17.42,38.41,38.41,0,0,0-21.11-.59A30.19,30.19,0,0,0,679.2,272a26.95,26.95,0,0,0,.9-33.07,25.86,25.86,0,0,0-29.76-9.56A30.11,30.11,0,0,0,636,239.7a32.67,32.67,0,0,0,3.21-19.34,29.58,29.58,0,0,0-8.45-17,30.55,30.55,0,0,0-17.36-8.3,27.23,27.23,0,0,0-18.17,3.75c-6.47,4.15-10.78,11.41-12.09,19.67a35.85,35.85,0,0,0,6,25.7.3.3,0,0,1,0,.39.31.31,0,0,1-.4,0,25.36,25.36,0,0,0-19-4.58,22.32,22.32,0,0,0-15.26,9.34c-3.51,5.32-4.22,12.26-2.3,18.71a25.35,25.35,0,0,0,13.47,15.73s0,0,0,0,0,0,0,0a31.68,31.68,0,0,0-23.81,4.52c-6.42,4.24-10.83,10.62-11.75,17.37-.8,5.88,1,12.14,4.81,17.46A31.25,31.25,0,0,0,551.36,335l-6.57.17-6.57.18A32.81,32.81,0,0,0,506.31,369h0A32.79,32.79,0,0,0,540,400.88l27-.72,27-.71c.68,34.12,1.36,76,2,118s1.36,83.85,2,118l24.95.4,24.94.41c-.79-34.48-1.59-76.75-2.38-119s-1.59-84.55-2.39-119l27-.72,27-.72a32.79,32.79,0,0,0-1.74-65.56Z"/><path class="cls-5" d="M576.92,285.1H565.58a1.25,1.25,0,0,1-1.25-1.25,1.22,1.22,0,0,1,.37-.88,1.21,1.21,0,0,1,.88-.37h11.34a1.24,1.24,0,0,1,.88.37,1.22,1.22,0,0,1,.37.88,1.25,1.25,0,0,1-.37.89A1.27,1.27,0,0,1,576.92,285.1Z"/><path class="cls-5" d="M684,333.1H648.62a1.25,1.25,0,0,1-1.25-1.25,1.23,1.23,0,0,1,1.25-1.25H684a1.27,1.27,0,0,1,.88.36,1.25,1.25,0,0,1,.37.89,1.22,1.22,0,0,1-.37.88A1.24,1.24,0,0,1,684,333.1Z"/><path class="cls-6" d="M806.81,337.76c-.26,3.61-.94,13.53-.88,26s.86,27.52,3.54,41.37c.67,3.45,1.4,7.22,2.46,11.43a120.17,120.17,0,0,0,4.45,14c1.47,3.83,2.52,6.09,3.74,8.66s2.61,5.48,4.76,10.6,3.82,9.68,5.17,13.73,2.36,7.51,3.09,10.19A102.46,102.46,0,0,1,835.93,488c.62,4.85,1,9.92,1.18,15.51A258,258,0,0,1,836,537.88c-1.1,11.57-2.82,23.55-4.87,36.91-1.22,8-2.64,16.87-4.26,26.65s-3.45,20.42-5.5,31.81l-7.09.09-7.08.09c2.5-11.2,5.44-25.15,8.32-40.89s5.7-33.26,8-51.63a235.19,235.19,0,0,0,2-23.59,145.78,145.78,0,0,0-1.95-28.09c-1.05-6.16-2.44-11.92-3.71-16.56s-2.42-8.13-3-9.78a181.84,181.84,0,0,0-7-17.68c-2.06-4.53-3.68-7.58-4.29-8.79-3.15-6.17-6.29-15.72-8.52-31.17s-3.55-36.83-3-66.66l6.42-.42Z"/><path class="cls-7" d="M849.52,338.07,802,339.93l-47.53,1.87a1.92,1.92,0,0,1-1.78-1.09,2.38,2.38,0,0,1,0-2.26l10.6-19.32,10.59-19.31a31,31,0,0,1,10.21-11.16,27.15,27.15,0,0,1,13.74-4.43h0a27.15,27.15,0,0,1,13,2.82,30.53,30.53,0,0,1,10.69,8.9l14.68,19.26,14.68,19.25a2.35,2.35,0,0,1,.31,2.3A1.93,1.93,0,0,1,849.52,338.07Z"/><path class="cls-8" d="M820.92,317.92a4.8,4.8,0,0,1-2.86,3.18,8,8,0,0,1-5.11.37,8.07,8.07,0,0,1-4.38-2.67,4.52,4.52,0,0,1,1.78-7.32,8.45,8.45,0,0,1,9.49,2.3A4.82,4.82,0,0,1,820.92,317.92Z"/><path class="cls-8" d="M829.16,327.52a3,3,0,0,1-1.75,2,5.16,5.16,0,0,1-5.8-1.41,3,3,0,0,1-.66-2.53,3,3,0,0,1,1.75-1.95,5.16,5.16,0,0,1,5.8,1.41A3,3,0,0,1,829.16,327.52Z"/><path class="cls-6" d="M530.38,213c-.4,5.39-1.4,20.17-1.31,38.77s1.28,41,5.27,61.68c1,5.13,2.08,10.76,3.67,17a180.47,180.47,0,0,0,6.63,20.92c2.19,5.72,3.76,9.08,5.57,12.92s3.89,8.17,7.1,15.8S563,394.5,565,400.53s3.51,11.19,4.61,15.2c0,0,1.23,4.78,2.58,12.7A246.94,246.94,0,0,1,575.55,460c.58,14.91-.63,38.17-4,67.86s-8.92,65.82-17,106.47H535.11c1-5,2.3-11,3.69-18s2.91-14.89,4.5-23.54c3-16.55,5.24-29.57,7.07-41.57s3.27-23,4.81-35.4a351.82,351.82,0,0,0,2.94-35.16,215.46,215.46,0,0,0-2.92-41.87c-1.55-9.2-3.63-17.78-5.52-24.69s-3.61-12.13-4.43-14.59a276.23,276.23,0,0,0-10.38-26.35c-3.08-6.75-5.49-11.3-6.41-13.1-4.69-9.2-9.37-23.43-12.69-46.47s-5.29-54.89-4.56-99.37l9.59-.61Z"/><path class="cls-7" d="M594,213.41l-70.86,2.78L452.32,219a2.88,2.88,0,0,1-2.65-1.64,3.56,3.56,0,0,1,0-3.37l15.79-28.79,15.79-28.79a46.35,46.35,0,0,1,15.22-16.63,40.44,40.44,0,0,1,20.49-6.6h0a40.41,40.41,0,0,1,19.45,4.2,45.29,45.29,0,0,1,15.93,13.28l21.89,28.69L596.13,208a3.56,3.56,0,0,1,.47,3.44A2.9,2.9,0,0,1,594,213.41Z"/><path class="cls-8" d="M551.4,183.38a7.12,7.12,0,0,1-4.25,4.74A12.54,12.54,0,0,1,533,184.69a6.74,6.74,0,0,1,2.65-10.91,11.87,11.87,0,0,1,7.62-.54,12,12,0,0,1,6.53,4A7.15,7.15,0,0,1,551.4,183.38Z"/><path class="cls-8" d="M563.68,197.69a4.35,4.35,0,0,1-2.6,2.9,7.67,7.67,0,0,1-8.64-2.1,4.12,4.12,0,0,1,1.62-6.67,7.66,7.66,0,0,1,8.64,2.1A4.35,4.35,0,0,1,563.68,197.69Z"/><path class="cls-2" d="M506.16,634.29a40.1,40.1,0,0,1-19.68-20.72,36.11,36.11,0,0,1-.61-26.93,35.61,35.61,0,0,1,14.59-17.27,40,40,0,0,1,23-5.88,76.22,76.22,0,0,1-6.21-33.73c.53-11.65,3.87-22.84,10.66-31a54.64,54.64,0,0,1,30.3-18.16,62.31,62.31,0,0,1,18.39-1.48A76.92,76.92,0,0,1,612,490.89a57.69,57.69,0,0,1,22.23,26,95.29,95.29,0,0,1,5.62,20.55c1.1,6.77,1.39,12.86.79,16.39a57.48,57.48,0,0,1,40.36-6,51.23,51.23,0,0,1,41.12,53.85,57.27,57.27,0,0,1-12.62,32.6H506.16Z"/><path class="cls-3" d="M475.79,475.58a107.19,107.19,0,0,0-2.94,29.51A86.88,86.88,0,0,0,479,534.14a75.46,75.46,0,0,0,9.83,17.21,68.58,68.58,0,0,0,14.12,13.89,43.37,43.37,0,0,0,19.23,8c6.6,1,13.49.7,21-.19a43.89,43.89,0,0,1,14.89.4A22.5,22.5,0,0,1,570.61,581a32.79,32.79,0,0,1,6.5,13.32,65,65,0,0,1,1.76,14.85l.27,12.58.27,12.58h24.08s.21-4,.25-9.63a174.11,174.11,0,0,0-.81-19.3,99.58,99.58,0,0,0-3-16,73.75,73.75,0,0,0-8.53-19.36,50.71,50.71,0,0,0-8.74-10.57,39.16,39.16,0,0,0-11.49-7.41A40.42,40.42,0,0,0,556,549.45c-5.19,0-10.44.47-15.55.67A47.34,47.34,0,0,1,525,548.23a36.48,36.48,0,0,1-13.64-7.43C499,530,496,514.61,497,498.64s6.19-32.55,10.06-45.83c1.9-6.52,4-13.65,6.41-21.31s5-15.86,7.9-24.54l-11.36-4.1-11.37-4.1q-4.41,12.32-8.59,25.45t-8,27.07q-1.71,6.18-3.28,12.26T475.79,475.58Z"/><path class="cls-2" d="M499.48,481.55l1.51-6.2,1.52-6.21c.09-.38.17-.68.24-.94s.13-.5.18-.72c.14-.54.32-1.26.6-2.29s.65-2.35,1.16-4.1c2-7,3.4-11.19,4.54-14.73s2-6.43,3.09-10.85c.65-2.75.86-4,1.11-5.51s.55-3.33,1.39-7.26c.92-4.33,1.86-8.25,2.73-11.65s1.7-6.3,2.37-8.6l-13.78-2.26L492.36,398c-.94,4-2.16,9.15-3.45,14.63s-2.64,11.24-3.84,16.36c-2.85,12.13-5,21.31-6.7,29.49s-3,15.37-4.05,23.51c-.28,2.14-.52,4.09-.72,5.79s-.36,3.17-.48,4.33l19.63-7.84,6.73-2.69Z"/><path class="cls-3" d="M498.89,534.36a32.39,32.39,0,0,0-15.65-15,33.5,33.5,0,0,0-15.61-3.21c0-.79.07-1.57.05-2.35a26.33,26.33,0,0,0-28.51-26,28.12,28.12,0,0,0-5.65,1,24.52,24.52,0,0,0-21.38-22.6,19.5,19.5,0,0,0-22,19.5,24.49,24.49,0,0,0,21.44,24.2c.39,0,.79.05,1.19.07a28.6,28.6,0,0,0-.94,7.83,26.33,26.33,0,0,0,28.51,26,28.35,28.35,0,0,0,5.52-1,25.69,25.69,0,0,0,1.7,4.59,33.68,33.68,0,0,0,37.17,17.32c6.58-1.68,12-5.68,14.79-11.63S501.84,540.47,498.89,534.36Z"/><path class="cls-4" d="M485,546a1.35,1.35,0,0,1-.29,0,1,1,0,0,1-.29-.11c-5-2.65-9.9-5.45-14.75-8.37s-9.61-6-14.27-9.1a327,327,0,0,1-32.06-24.7,332.87,332.87,0,0,1-29-28.62,1.23,1.23,0,0,1,.1-1.76,1.22,1.22,0,0,1,.9-.32,1.27,1.27,0,0,1,.86.41A330.71,330.71,0,0,0,425,501.83a323.17,323.17,0,0,0,31.82,24.5q6.93,4.68,14.16,9c4.81,2.9,9.7,5.67,14.63,8.3a1.25,1.25,0,0,1,.52,1.69,1.3,1.3,0,0,1-.47.49A1.19,1.19,0,0,1,485,546Z"/><path class="cls-6" d="M558,325.32c25.21-25.67,30.61-45.18,24.15-51.48s-24.78.61-47,27.75c9.58-35,3.91-54.08-5.54-54.5s-22.7,17.77-28.26,57.27c-9.81-39.15-25.13-55.79-34.46-53.92s-12.66,22.25,1.52,57.15c-25.68-25.21-45.18-30.61-51.48-24.15s.6,24.78,27.75,47c-35-9.58-54.08-3.91-54.51,5.55s17.78,22.69,57.28,28.26c-39.16,9.8-55.8,25.13-53.93,34.45s22.25,12.66,57.16-1.51c-25.22,25.67-30.62,45.17-24.16,51.47s24.79-.6,47-27.74c-9.57,35-3.91,54.08,5.55,54.5s22.69-17.78,28.26-57.28c9.8,39.16,25.13,55.8,34.46,53.93s12.66-22.25-1.52-57.16c25.67,25.22,45.18,30.62,51.48,24.16s-.6-24.79-27.75-47c35,9.58,54.08,3.91,54.51-5.55s-17.78-22.69-57.28-28.26c39.15-9.8,55.8-25.13,53.93-34.45S592.88,311.14,558,325.32Z"/><path class="cls-9" d="M525.6,361.75A23.91,23.91,0,1,1,518.15,345,23.82,23.82,0,0,1,525.6,361.75Z"/><path class="cls-3" d="M743.46,282.24c.14,7.94-.16,15.09-.64,21.32s-1.16,11.53-1.78,15.79A368.18,368.18,0,0,1,731,365.7c-4.24,15.39-9.23,31.51-14.61,50.79-4.76,17.07-8.56,30.71-11.73,43.76s-5.69,25.54-7.9,40.31c-1.05,7-2.31,16.19-3.43,27.17s-2.08,23.76-2.54,37.91c-.42,12.86-.37,25.05,0,36.49s1.1,22.12,2,32c-3.78-.09-7.64-.13-11.6-.11s-8,.08-12.16.22q-5.47.18-10.73.48t-10.28.73c-2,.16-1.92-16.17-1.23-33.15s1.94-34.6,2.12-37c1.29-17.36,3-34.25,5.38-51s5.42-33.52,9.36-50.54q3.57-15.39,7.47-30.74t8.38-30.5c8.3-28.14,14.45-45.19,18.74-59.53a166.6,166.6,0,0,0,7.6-43.24c.53-10.45.41-21.38.07-31.1s-.92-18.23-1.3-23.87c-1-14.12-2.28-27.05-3.75-38.55s-3.08-21.58-4.57-30l17.13-2.85,17.13-2.84q2.87,25.67,5.41,45.36c1.67,13.11,3.19,24.2,4.46,33.22.46,3.26,1.16,7.72,1.78,13.28S743.32,274.54,743.46,282.24Z"/><path class="cls-4" d="M704.13,317.23c.23-2.15.42-4.11.59-5.83s.32-3.21.43-4.42c0,0,.61-6.52,1.13-14.53s.94-17.52.55-23.49c0-.57-.08-1.19-.11-1.66s-.06-.8-.06-.8c0-.79-.13-1.86-.25-3.38s-.31-3.5-.57-6.1c-1.08-10.94-2.12-20.48-2.88-27.28s-1.26-10.88-1.26-10.88c-.71-5.8-1.51-12.31-2.41-19.45s-1.92-14.93-3-23.28l17.13-2.85,17.13-2.84c1.6,9.07,3,17.47,4.15,25.08s2.15,14.41,3,20.3c3.43,25,5,42.53,5.59,54.88a220.86,220.86,0,0,1,.14,23.7c-.32,6.22-.8,11.82-1.28,16.38s-1,8.11-1.27,10.22c-1.12,7.91-2.49,15.18-3.94,21.74s-3,12.4-4.41,17.44q-7.08-10.74-14.17-21.48Z"/><path class="cls-3" d="M885,386.29a30.29,30.29,0,0,0-17.28-17.59,37.45,37.45,0,0,0-45.12,14.75,43.47,43.47,0,0,0-6.85-5.43,40.18,40.18,0,0,0-57.14,14.15c-.59,1-1.13,2.1-1.63,3.19a51.24,51.24,0,0,0-23.29-7.05c-12.19-.75-23.48,2.63-31.87,8.68s-13.88,14.8-14.49,24.78,3.79,19.33,11.38,26.36,18.39,11.74,30.59,12.48,23.48-2.63,31.87-8.69a39,39,0,0,0,5.61-4.91,44,44,0,0,0,6.71,5.28,40.18,40.18,0,0,0,57.14-14.14A43.59,43.59,0,0,0,835,427c.55.26,1.1.5,1.66.73A37.35,37.35,0,0,0,883,410.86,30.27,30.27,0,0,0,885,386.29Z"/><path class="cls-4" d="M716.1,422.33h-3.25A1.24,1.24,0,0,1,712,422a1.28,1.28,0,0,1-.36-.89,1.2,1.2,0,0,1,.37-.87,1.24,1.24,0,0,1,.88-.37h0c8.54.06,17.12-.11,25.69-.5s17.12-1,25.6-1.82a495.39,495.39,0,0,0,60.58-9.74A505.77,505.77,0,0,0,884,390.54a1.23,1.23,0,0,1,1,0,1.19,1.19,0,0,1,.64.71,1.23,1.23,0,0,1-.75,1.59,505.64,505.64,0,0,1-59.59,17.3,497.09,497.09,0,0,1-60.88,9.8q-12,1.17-24.11,1.75T716.1,422.33Z"/><path class="cls-9" d="M629.93,225.37h0l0,0,0,0a39.17,39.17,0,0,0,41.53,60.23h.05l0,0h0a39.16,39.16,0,0,0,72,13.22h0l0,0,0,0a39.16,39.16,0,0,0,60.23-41.52v-.05l0-.05h0a39.16,39.16,0,0,0,13.22-72h0l0,0,0-.05A39.16,39.16,0,0,0,775.5,125h-.1a39.17,39.17,0,0,0-72-13.22h0l0,0,0,0a39.16,39.16,0,0,0-60.22,41.53v.1h0a39.17,39.17,0,0,0-13.22,72Z"/><path class="cls-6" d="M680.27,206.32a42.83,42.83,0,1,0,13.26-30A42.71,42.71,0,0,0,680.27,206.32Z"/><path class="cls-4" d="M870.37,563.71a33.49,33.49,0,0,0,23-12.68,30.29,30.29,0,0,0-5.05-43.38,33.64,33.64,0,0,0-22.43-7.17A37.61,37.61,0,0,0,888.18,480a33.81,33.81,0,0,0-19.32-46.46,37.75,37.75,0,0,0-27.81.46,41.67,41.67,0,0,0,5.46-9.46,38.88,38.88,0,0,0-6.7-41.12,44.29,44.29,0,0,0-9.75-8.54,39.79,39.79,0,0,0-23.68-3,35.43,35.43,0,0,0-29.47,36A39.86,39.86,0,0,0,787.08,434a37.42,37.42,0,0,0-29.73,2.21c-8.58,4.49-15.08,12.14-17.27,21.13-2.06,8.5-.14,17.67,4.75,25.32a37.44,37.44,0,0,0,22.55,16.2,41,41,0,0,0-24.23,4.9,32.41,32.41,0,0,0-14.76,16.82,32.81,32.81,0,0,0-1.71,15.14,29.76,29.76,0,0,0,6.7,15.65,30.24,30.24,0,0,0,14.71,9.51,33.62,33.62,0,0,0,9.43,1.45,36.42,36.42,0,0,0-28.16,35.47h0a36.43,36.43,0,0,0,36.42,36.43h91.8A36.43,36.43,0,0,0,894,597.82h0a36.27,36.27,0,0,0-6.64-21A36.66,36.66,0,0,0,870.37,563.71Z"/><path class="cls-5" d="M775.58,563.6H757.52a1.25,1.25,0,0,1-1.25-1.25,1.22,1.22,0,0,1,.37-.88,1.21,1.21,0,0,1,.88-.37h18.06a1.26,1.26,0,0,1,1.25,1.25,1.25,1.25,0,0,1-1.25,1.25Z"/><path class="cls-5" d="M826.44,443.26a1.27,1.27,0,0,1-.63-.17,1.18,1.18,0,0,1-.46-.48,1.22,1.22,0,0,1-.11-.95,1.27,1.27,0,0,1,.6-.75l7.31-4,7.3-4a1.23,1.23,0,0,1,.95-.11,1.27,1.27,0,0,1,.75.6,1.26,1.26,0,0,1-.5,1.7l-7.3,4-7.31,4a1,1,0,0,1-.29.11A1.1,1.1,0,0,1,826.44,443.26Z"/><path class="cls-5" d="M779.48,500.13H765.66a1.25,1.25,0,1,1,0-2.5h13.82a1.25,1.25,0,0,1,0,2.5Z"/><path class="cls-2" d="M280.34,246.78a29.75,29.75,0,1,1-8.71-21A29.66,29.66,0,0,1,280.34,246.78Z"/><path class="cls-2" d="M254.76,273.54a29.74,29.74,0,1,1-8.71-21A29.66,29.66,0,0,1,254.76,273.54Z"/><path class="cls-4" d="M232.1,259.72a9.38,9.38,0,0,1-4.75-1.44,13.77,13.77,0,0,1-3.78-3.36,17.3,17.3,0,0,1-2.45-4.44,18.39,18.39,0,0,1-1.08-5l-.14,0-.15,0a1.21,1.21,0,0,1-.93-.21,1.24,1.24,0,0,1,.49-2.25l.38-.07.39-.06c0-.25,0-.49.08-.74s.08-.48.13-.72a1.29,1.29,0,0,1,.53-.8,1.23,1.23,0,0,1,.94-.18,1.21,1.21,0,0,1,.8.53,1.26,1.26,0,0,1,.18.94l-.06.32c0,.11,0,.22-.05.33a23.34,23.34,0,0,1,7.62.49,12.77,12.77,0,0,1,6.61,3.9,9.18,9.18,0,0,1,1.94,3.6,7.47,7.47,0,0,1,.07,3.84,7.17,7.17,0,0,1-4.09,4.74,6.77,6.77,0,0,1-1.33.41A7.71,7.71,0,0,1,232.1,259.72Zm-9.57-14.59a15.25,15.25,0,0,0,.9,4.38,14.61,14.61,0,0,0,2.12,3.88,11.08,11.08,0,0,0,3.78,3.15,5.4,5.4,0,0,0,4.48.34,4.66,4.66,0,0,0,2.64-3.06,5.05,5.05,0,0,0-.08-2.64,6.46,6.46,0,0,0-1.39-2.53,10.53,10.53,0,0,0-5.7-3.22A21.56,21.56,0,0,0,222.53,245.13Z"/><path class="cls-10" d="M333,439.8l.23,16.76.22,16.77a90.45,90.45,0,0,1-.37,9.46,81.79,81.79,0,0,1-1.43,9.35,41.77,41.77,0,0,1-2.64,8.6c-1.1,2.33-2.43,3.87-4,3.84a11.53,11.53,0,0,1-2.9,4.63,7,7,0,0,1-4.21,2,5.64,5.64,0,0,1-1.27,0,7,7,0,0,1-1.7-.48,11.08,11.08,0,0,1-1.55,1.9,8.64,8.64,0,0,1-2.59,1.77,5.41,5.41,0,0,1-1.5.46,3.1,3.1,0,0,1-.82,0,3.67,3.67,0,0,1-1.63-.67,4.63,4.63,0,0,1-.85-.77c-.84-.91-1.17-2.22-1.09-4.64s.55-6,1.33-11.36c.07-.45.18-1.23.34-2.26s.37-2.32.62-3.8c.08-.48.14-.82.19-1.08s.08-.43.1-.6a40.08,40.08,0,0,0,.44-5.16,41,41,0,0,0-.1-4.14c-.11-1.53-.24-3.06-.45-4.58a31,31,0,0,0-.94-4.5,12.15,12.15,0,0,0-1-2.54,3.59,3.59,0,0,0-2-1.77,3.21,3.21,0,0,0-2.6.37,4.7,4.7,0,0,0-1.83,1.95,9.12,9.12,0,0,0-.8,2.8c-.14,1-.2,2-.29,2.92-.14,1.4-.3,2.8-.54,4.18a34,34,0,0,1-1,4.11,14.26,14.26,0,0,1-2.76,5.52,3.2,3.2,0,0,1-1.81,1.13,3.77,3.77,0,0,1-.64,0,2.92,2.92,0,0,1-1-.2A4.34,4.34,0,0,1,287.9,487a15.08,15.08,0,0,1-.75-5.22c0-.84,0-1.68,0-2.51s0-1.68,0-2.52l-.3-18.53-.29-18.54,23.2.05Z"/><path class="cls-8" d="M314.93,511.92a1.07,1.07,0,0,1-.25,0,.87.87,0,0,1-.26-.08,1.24,1.24,0,0,1-.65-.7,1.21,1.21,0,0,1,0-.95c1.74-3.87,3.14-10.43,4.12-16.05s1.53-10.31,1.54-10.4a1.24,1.24,0,0,1,.46-.83,1.31,1.31,0,0,1,.92-.27,1.25,1.25,0,0,1,.84.47,1.23,1.23,0,0,1,.26.92c0,.39-.6,5.16-1.6,10.85s-2.44,12.29-4.26,16.33a1.18,1.18,0,0,1-.47.54A1.22,1.22,0,0,1,314.93,511.92Z"/><path class="cls-8" d="M325,505.83h-.16l-.16,0a1.25,1.25,0,0,1-.76-.58,1.29,1.29,0,0,1-.14-.95c.4-1.53.77-3.08,1.11-4.64s.66-3.11.94-4.66q.54-2.9.94-5.84c.27-2,.49-3.92.68-5.88a1.2,1.2,0,0,1,.44-.84,1.29,1.29,0,0,1,.92-.29,1.27,1.27,0,0,1,1.13,1.36q-.29,3-.69,6c-.28,2-.6,4-1,6-.29,1.58-.61,3.17-1,4.75s-.72,3.16-1.13,4.73a1.23,1.23,0,0,1-.45.68A1.26,1.26,0,0,1,325,505.83Z"/><path class="cls-4" d="M220.85,376.08l-25.72,96.37-25.72,96.37H281.87q7.56-48.18,15.13-96.37t15.14-96.37H220.85Z"/><path class="cls-6" d="M276.77,257.58a57.26,57.26,0,0,0-9.89-1.06,53.34,53.34,0,0,0-12.64,1.27,55.69,55.69,0,0,0-26.36,14.49,66.55,66.55,0,0,0-11.06,13.89L205.2,305.56,193.57,325a82,82,0,0,0-6.92,14.61,75.91,75.91,0,0,0-3.78,15.69c-.85,6.57-.9,13.76.94,20.37a28.24,28.24,0,0,0,12.27,16.89,29.89,29.89,0,0,0,8.71,3.71,33,33,0,0,0,9.46.91l42.11-2.08L298.47,393l-1-28.46-1-28.47,19.46-1.4,6.66-.48s-1.34,6.24-3.27,15.47-4.44,21.46-6.79,33.45c-2.82,14.37-5.45,28.57-7.36,39.18s-3.13,17.62-3.13,17.63l15.45.29,15.46.3c5.24-38.46,8.93-71.79,11.19-96.21s3.1-39.93,2.62-42.77a90.89,90.89,0,0,0-2.43-10.38c-.8-2.73-1.43-4.48-1.43-4.48h0a57.43,57.43,0,0,0-4.88-8.21,38.67,38.67,0,0,0-9.29-9.07,39.16,39.16,0,0,0-9.45-4.76,42.42,42.42,0,0,0-8.07-1.9L294,260.15Z"/><path class="cls-2" d="M471,121.24A108.64,108.64,0,0,0,370.12,305.46l-78.26,111.8-78.27,111.8,8,5.62,8,5.63L307.6,429l77.93-111.32A108.65,108.65,0,1,0,471,121.24ZM423.25,314.6a90.55,90.55,0,1,1,68.52-10.39A90.3,90.3,0,0,1,423.25,314.6Z"/><path class="cls-5" d="M323.06,335.39h-.19a1.24,1.24,0,0,1-.82-.5,1.21,1.21,0,0,1-.22-.93l1.22-7.83,1.22-7.84a1.24,1.24,0,0,1,.5-.81,1.26,1.26,0,0,1,.93-.23,1.24,1.24,0,0,1,.82.5,1.29,1.29,0,0,1,.22.93l-1.22,7.83-1.22,7.84a1.3,1.3,0,0,1-.43.76A1.27,1.27,0,0,1,323.06,335.39Z"/><path class="cls-10" d="M298.47,393c13.48-1.51,25.12-3.05,33.93-4.34s14.79-2.32,17-2.83c.61-.14,1.37-.35,2.49-.64s2.6-.66,4.67-1.15c1.39-.33,2.28-.52,3-.7a12.16,12.16,0,0,0,1.87-.65A17.38,17.38,0,0,0,364.5,381a5.62,5.62,0,0,0,2.24-2.94,5.45,5.45,0,0,0,0-2.83,8.17,8.17,0,0,0-.78-2l2.42-1.25c.88-.45,1.83-1,2.84-1.5a48.57,48.57,0,0,0,6.17-3.71,4.53,4.53,0,0,0,1.88-2.48,5.46,5.46,0,0,0,.1-2.45,5.39,5.39,0,0,0-.31-1.15A5.34,5.34,0,0,0,378,359a5.44,5.44,0,0,0-1-.82,8.48,8.48,0,0,0,4.28-4.59,6.24,6.24,0,0,0-.2-5.23,5.72,5.72,0,0,0-2.66-2.35,8.15,8.15,0,0,0-3.88-.69,6.47,6.47,0,0,0-.32-1.75,6,6,0,0,0-1.75-2.69,5.79,5.79,0,0,0-1.79-1.07,6.07,6.07,0,0,0-1.76-.36,6.41,6.41,0,0,0-1.8.12,6.82,6.82,0,0,0-1.24.36l-.23.09-.12.05c-1,.45-8.58,3.11-16,5.49s-14.66,4.46-14.92,3.74c-.07-.18.28-.53,1.46-1.22s3.21-1.71,6.5-3.22l4.47-6.39,4.47-6.38-27.46,2-27.46,2,1,28.47Z"/><path class="cls-8" d="M341.82,360.75a1.25,1.25,0,0,1-.73-.24,1.21,1.21,0,0,1-.46-.64,1.2,1.2,0,0,1,.08-.95,1.27,1.27,0,0,1,.74-.62c3.39-1.06,6.77-2.24,10.1-3.52s6.63-2.67,9.85-4.15c2.12-1,4.23-2,6.31-3.06s4.15-2.18,6.18-3.33a1.2,1.2,0,0,1,.94-.11,1.24,1.24,0,0,1,.76.59,1.26,1.26,0,0,1-.47,1.7c-2.06,1.16-4.15,2.29-6.27,3.37s-4.26,2.12-6.4,3.11q-4.92,2.27-10,4.21c-3.38,1.31-6.81,2.5-10.26,3.58l-.18,0Z"/><path class="cls-8" d="M345,371.54a1.26,1.26,0,0,1-.73-.23,1.28,1.28,0,0,1-.46-.63,1.27,1.27,0,0,1,.8-1.58c2.38-.77,4.76-1.58,7.12-2.44s4.72-1.74,7.05-2.66c3-1.17,5.94-2.41,8.88-3.71s5.85-2.64,8.72-4a1.21,1.21,0,0,1,.95-.06,1.24,1.24,0,0,1,.72.63,1.28,1.28,0,0,1,.06,1,1.27,1.27,0,0,1-.64.71q-4.33,2.13-8.8,4.09c-3,1.31-6,2.56-9,3.75-2.35.93-4.73,1.83-7.12,2.69s-4.79,1.68-7.19,2.46l-.19,0Z"/><path class="cls-8" d="M348.06,381a1.26,1.26,0,0,1-1.19-.87,1.2,1.2,0,0,1,.08-.95,1.22,1.22,0,0,1,.73-.62l3.08-1c1-.34,2.05-.69,3.06-1,1.95-.69,3.92-1.4,5.87-2.15s3.9-1.51,5.83-2.31a1.25,1.25,0,0,1,1.63,1.64,1.24,1.24,0,0,1-.68.67c-1.94.81-3.91,1.59-5.89,2.34s-4,1.48-5.94,2.17c-1,.35-2.05.71-3.09,1.05s-2.08.68-3.11,1l-.19.05Z"/><path class="cls-5" d="M238.49,569.45h-.12l-.11,0a1.29,1.29,0,0,1-.81-.52,1.23,1.23,0,0,1-.19-.94L251,495.31l13.69-72.67a1.26,1.26,0,0,1,.52-.8,1.26,1.26,0,0,1,1.74.33,1.28,1.28,0,0,1,.2.94l-13.69,72.66-13.69,72.66a1.28,1.28,0,0,1-.44.74A1.25,1.25,0,0,1,238.49,569.45Z"/><path class="cls-5" d="M248.49,340.18l6.7-13.07,6.7-13.06a1.27,1.27,0,0,1,.73-.62,1.26,1.26,0,0,1,1.58.81,1.27,1.27,0,0,1-.08.95l-5.7,11.12-5.7,11.11,21.87-1.31,21.88-1.31a1.32,1.32,0,0,1,.91.32,1.25,1.25,0,0,1-.76,2.18l-24.06,1.44Z"/><path class="cls-10" d="M325,242.36a26.49,26.49,0,1,1-7.76-18.76A26.47,26.47,0,0,1,325,242.36Z"/><path class="cls-5" d="M295.16,241.68a1.94,1.94,0,0,1-.57,1.37,2,2,0,0,1-2.76,0,1.94,1.94,0,0,1,0-2.75,2,2,0,0,1,3.33,1.38Z"/><path class="cls-5" d="M312.53,239.34a1.94,1.94,0,0,1-3.32,1.38,2,2,0,0,1,0-2.76,1.94,1.94,0,0,1,2.75,0A2,2,0,0,1,312.53,239.34Z"/><path class="cls-8" d="M302.67,255a10.28,10.28,0,0,1-4.95-1.35,10.55,10.55,0,0,1-2-1.45,1.22,1.22,0,0,1-.38-.88,1.26,1.26,0,0,1,.34-.89,1.22,1.22,0,0,1,.88-.38,1.26,1.26,0,0,1,.89.34,8.1,8.1,0,0,0,2.07,1.37,6.93,6.93,0,0,0,8.14-1.41,8,8,0,0,0,1.36-1.88,1.24,1.24,0,0,1,2.3.17,1.22,1.22,0,0,1-.07.95,10.44,10.44,0,0,1-1.83,2.53,9.48,9.48,0,0,1-4.41,2.58,8.62,8.62,0,0,1-1.17.23A8.79,8.79,0,0,1,302.67,255Z"/><path class="cls-2" d="M308.05,217.63a26,26,0,0,0-4.64-1.33,26.78,26.78,0,0,0-4.94-.46,26.33,26.33,0,0,0-14.34,4.21A26.64,26.64,0,0,0,274.51,231c3.31,1.48,9.39,3.57,15.8,2.58S303.45,228.48,308.05,217.63Z"/><path class="cls-4" d="M351.3,634.28c-8.15-13.11-10.67-27-8.56-39.38a44.08,44.08,0,0,1,19.18-29.85,59.36,59.36,0,0,1,26.16-8.83c10-1,20.66.63,29.82,6.34a38.25,38.25,0,0,1,15.84,19.61,41.89,41.89,0,0,1,2.62,13.2,34.26,34.26,0,0,1,22.3,1.38c6.42,2.73,11.32,7.41,13.21,13a18.22,18.22,0,0,1-.76,13.12,26.53,26.53,0,0,1-9.87,11.41H351.3Z"/><path class="cls-4" d="M162.13,634.46a1.29,1.29,0,0,1-.87-.35,1.27,1.27,0,0,1-.38-.86l-7-180.34-7-180.34a1.25,1.25,0,0,1,1.2-1.3,1.18,1.18,0,0,1,.9.32,1.29,1.29,0,0,1,.4.88l7,180.34,7,180.35a1.27,1.27,0,0,1-.33.89,1.23,1.23,0,0,1-.87.4h-.05Z"/><path class="cls-9" d="M221.7,188.79A74.34,74.34,0,0,0,96.81,144.14a82.26,82.26,0,0,0-12.37,16.73,74.4,74.4,0,0,0-9.59,33.28c-.88,21.27,7.84,38.17,17.06,49.94a93.7,93.7,0,0,0,20,19.13,75.23,75.23,0,0,0,10,4.62,73.94,73.94,0,0,0,24.7,4.68,76.5,76.5,0,0,0,10.64-.59,74.37,74.37,0,0,0,64.41-83.14Z"/><path class="cls-4" d="M198.83,199a22.94,22.94,0,0,1-12.49-3.85,24.54,24.54,0,0,1-8.92-10.43l0-.05,0,0A29,29,0,0,1,162.08,190a23.44,23.44,0,0,1-14.49-4,23,23,0,0,1-7.94-9.81,28.48,28.48,0,0,1-2.15-7.69,1.28,1.28,0,0,1,.25-.92,1.25,1.25,0,0,1,.84-.47,1.19,1.19,0,0,1,.92.25,1.25,1.25,0,0,1,.47.84,25.73,25.73,0,0,0,1.93,6.94A20.46,20.46,0,0,0,149,184a21.07,21.07,0,0,0,13.05,3.53,26.24,26.24,0,0,0,13.74-4.87,2.57,2.57,0,0,1,2.2-.38,2.57,2.57,0,0,1,1,.54,2.62,2.62,0,0,1,.69.92,22.12,22.12,0,0,0,10.65,10.86,18.7,18.7,0,0,0,14.31.94,18.37,18.37,0,0,0,9.23-7.63,22,22,0,0,0,3.32-12.28,1.25,1.25,0,0,1,.34-.9,1.26,1.26,0,0,1,.87-.39,1.34,1.34,0,0,1,.9.35,1.24,1.24,0,0,1,.39.86A24.43,24.43,0,0,1,216,189.27a20.93,20.93,0,0,1-10.45,8.57,19.11,19.11,0,0,1-3.3.87A20.08,20.08,0,0,1,198.83,199Z"/><path class="cls-4" d="M162.13,634.46h-.2a1.22,1.22,0,0,1-.81-.5,1.26,1.26,0,0,1-.23-.93l20.33-130,20.33-130a1.24,1.24,0,0,1,.5-.82A1.36,1.36,0,0,1,203,372a1.28,1.28,0,0,1,.82.5,1.3,1.3,0,0,1,.22.93l-20.33,130-20.33,130a1.25,1.25,0,0,1-.42.76A1.3,1.3,0,0,1,162.13,634.46Z"/><path class="cls-9" d="M242.16,351.91a36,36,0,1,1-14.54-23.46A35.94,35.94,0,0,1,242.16,351.91Z"/><path class="cls-4" d="M195.52,356.27c-.29,0-.59,0-.89,0a8.68,8.68,0,0,1-.89-.14,9.49,9.49,0,0,1-5.11-2.84,9.85,9.85,0,0,1-2.55-5.32,1.31,1.31,0,0,1,.24-.93,1.27,1.27,0,0,1,.82-.49,1.26,1.26,0,0,1,1.42,1.06,7.25,7.25,0,0,0,1.89,4,6.94,6.94,0,0,0,3.77,2.11,7,7,0,0,0,4.15-.46,7.44,7.44,0,0,0,3.23-2.74,1.93,1.93,0,0,1,1.57-.91,1.79,1.79,0,0,1,.91.17,2,2,0,0,1,.75.58,7.66,7.66,0,0,0,4.32,2.71,6.41,6.41,0,0,0,4.74-.7,6.28,6.28,0,0,0,2.59-3.22,7.71,7.71,0,0,0,.27-4.43,1.23,1.23,0,0,1,.16-.94,1.26,1.26,0,0,1,.78-.56,1.27,1.27,0,0,1,.94.16,1.26,1.26,0,0,1,.56.78,10.25,10.25,0,0,1-.41,5.95A8.55,8.55,0,0,1,209,355.5a10.23,10.23,0,0,1-5.71-3.15,9.79,9.79,0,0,1-3.46,2.88A9.56,9.56,0,0,1,195.52,356.27Z"/><path class="cls-6" d="M430.33,634.17a38.05,38.05,0,0,1,.93-9.37A34.21,34.21,0,0,1,437.8,611a33.16,33.16,0,0,1,13.77-10.15,50.78,50.78,0,0,1,11.35-3,45.93,45.93,0,0,1,18.44.71,41.89,41.89,0,0,1,16.43,8.19,39.48,39.48,0,0,1,7.09,7.59,34.26,34.26,0,0,1,2.79,4.6,36.8,36.8,0,0,1,3.85,15.23H470.93Z"/><path class="cls-7" d="M486.7,609.33a4.83,4.83,0,0,1-1.95,3.77,7.94,7.94,0,0,1-9.45,0,4.6,4.6,0,0,1,0-7.53,7.94,7.94,0,0,1,9.45,0A4.81,4.81,0,0,1,486.7,609.33Z"/><path class="cls-9" d="M282.36,568.82q-1.11,9.87-2.23,19.73t-2.24,19.72a9.08,9.08,0,0,0-.09,1.73,7,7,0,0,0,.29,1.7,7.43,7.43,0,0,0,1,2.08,7,7,0,0,0,1.58,1.63l11,8,11,8a1.53,1.53,0,0,1,.55,1.66A1.35,1.35,0,0,1,302,634.2H212.42a4.83,4.83,0,0,1-3.62-1.66,6,6,0,0,1-1.5-4l6-30.16,6-30.16c11.23,0,21.39.16,31.55.31S271.14,568.82,282.36,568.82Z"/><path class="cls-9" d="M237.75,568.82l-3,19.73-2.95,19.72a8.33,8.33,0,0,0-.09,1.73,6.18,6.18,0,0,0,.29,1.7,7.43,7.43,0,0,0,1,2.08,6.61,6.61,0,0,0,1.58,1.63l11,8,11,8a1.53,1.53,0,0,1,.54,1.66,1.33,1.33,0,0,1-1.28,1.06H161a4.83,4.83,0,0,1-3.62-1.66,6,6,0,0,1-1.5-4l6.52-29.85L169,568.82h68.79Z"/><path class="cls-5" d="M257.25,635.45a1.24,1.24,0,0,1-.5-.1,1.21,1.21,0,0,1-.43-.32,1.28,1.28,0,0,1-.32-.9,1.24,1.24,0,0,1,.42-.86.93.93,0,0,0,.3-.43,1,1,0,0,0-.12-.75,1.82,1.82,0,0,0-.44-.5c-.19-.16-.42-.32-.65-.48l-.18-.13-.19-.13-1.31-1-1.32-.95-1.86-1.33-1.85-1.33-.79-.56-.79-.56c-1.69-1.21-3.43-2.46-5.19-3.75s-3.55-2.61-5.32-4a16,16,0,0,1-4.07-4.06,9.57,9.57,0,0,1-1.25-6.16c.07-.79.17-1.58.29-2.37s.26-1.55.39-2.31l.24-1.37c.07-.46.15-.91.21-1.37.5-3.47,1-7,1.55-10.46s1.06-7,1.59-10.35c.27-1.73.53-3.46.8-5.18s.53-3.46.79-5.18a1.24,1.24,0,0,1,.5-.82,1.22,1.22,0,0,1,.92-.23,1.25,1.25,0,0,1,.82.49,1.26,1.26,0,0,1,.23.93c-.26,1.73-.52,3.46-.79,5.19s-.53,3.45-.8,5.18c-.53,3.4-1.06,6.87-1.59,10.35s-1,7-1.54,10.44c-.07.46-.15.93-.22,1.4s-.16.94-.25,1.41c-.12.73-.26,1.48-.37,2.23s-.21,1.5-.28,2.24a7.14,7.14,0,0,0,.8,4.46,13.31,13.31,0,0,0,3.55,3.55c1.76,1.35,3.53,2.67,5.28,3.95s3.49,2.52,5.17,3.72l.78.57.79.56,1.86,1.33,1.86,1.33,1.32,1,1.32,1,.16.11.17.12a9,9,0,0,1,1,.77,3.9,3.9,0,0,1,.87,1.11,3.52,3.52,0,0,1,.39,2.25,3.37,3.37,0,0,1-1.12,1.95,1.33,1.33,0,0,1-.39.24A1.31,1.31,0,0,1,257.25,635.45Z"/><path class="cls-7" d="M238.94,725.21c-.42,1.2-2.14,1.82-4.59,1.86a30.85,30.85,0,0,1-17-5.9c-1.9-1.54-2.87-3.09-2.46-4.3s2.14-1.82,4.59-1.85a30.73,30.73,0,0,1,17,5.89C238.39,722.45,239.36,724,238.94,725.21Z"/><path class="cls-7" d="M369.51,661.43c.7,1.07.15,2.81-1.31,4.78a30.81,30.81,0,0,1-15,9.95c-2.39.58-4.21.4-4.91-.66s-.15-2.81,1.31-4.77a27.3,27.3,0,0,1,6.77-6.1,27.61,27.61,0,0,1,8.25-3.85C367,660.2,368.81,660.37,369.51,661.43Z"/><path class="cls-7" d="M378.21,732c1.19.46,1.75,2.2,1.69,4.65a30.64,30.64,0,0,1-6.49,16.81c-1.61,1.85-3.19,2.77-4.38,2.31s-1.75-2.2-1.69-4.65a30.64,30.64,0,0,1,6.49-16.81C375.44,732.47,377,731.55,378.21,732Z"/><path class="cls-7" d="M687.61,751c.7,1.06.15,2.81-1.31,4.78a27.87,27.87,0,0,1-6.77,6.1,27.46,27.46,0,0,1-8.26,3.84c-2.38.58-4.2.41-4.91-.65s-.15-2.81,1.32-4.78a30.76,30.76,0,0,1,15-9.94C685.08,749.77,686.91,749.94,687.61,751Z"/><path class="cls-7" d="M429.64,736.59c-1.2.42-2.76-.55-4.3-2.45a30.6,30.6,0,0,1-5.92-17c0-2.45.64-4.17,1.85-4.59s2.75.55,4.3,2.45a30.87,30.87,0,0,1,5.92,17C431.46,734.45,430.84,736.18,429.64,736.59Z"/><path class="cls-7" d="M824.15,655.57c.7,1.06.15,2.81-1.31,4.78a27.87,27.87,0,0,1-6.77,6.1,27.54,27.54,0,0,1-8.26,3.85c-2.38.57-4.2.4-4.91-.66s-.14-2.81,1.32-4.77a27.42,27.42,0,0,1,6.76-6.1,27.76,27.76,0,0,1,8.26-3.85C821.62,654.34,823.45,654.51,824.15,655.57Z"/><path class="cls-7" d="M258.87,786.68c-1,.81-2.77.44-4.88-.81A30.74,30.74,0,0,1,242.53,772c-.83-2.31-.84-4.15.14-5s2.77-.44,4.88.8A30.83,30.83,0,0,1,259,781.73C259.84,784,259.85,785.87,258.87,786.68Z"/><path class="cls-7" d="M560.94,745.67c1.19.46,1.75,2.21,1.69,4.66a30.64,30.64,0,0,1-6.49,16.81c-1.61,1.85-3.19,2.76-4.38,2.3s-1.75-2.2-1.69-4.65A30.64,30.64,0,0,1,556.56,748C558.17,746.13,559.75,745.22,560.94,745.67Z"/><path class="cls-7" d="M527.54,813.65c-1,.81-2.78.44-4.89-.81a30.74,30.74,0,0,1-11.46-13.9c-.82-2.31-.84-4.15.14-5s2.78-.44,4.89.8a30.83,30.83,0,0,1,11.46,13.91C528.5,811,528.52,812.84,527.54,813.65Z"/><path class="cls-7" d="M646.45,727.5c-.9.9-2.72.71-4.94-.33a30.87,30.87,0,0,1-12.74-12.74c-1-2.22-1.23-4-.33-4.94s2.72-.71,4.94.33a30.87,30.87,0,0,1,12.74,12.74C647.16,724.78,647.35,726.6,646.45,727.5Z"/><path class="cls-11" d="M356.9,791.64a122.27,122.27,0,0,0-14.65,3.64,126.11,126.11,0,0,0-15,5.82c4.27,14.36,11.42,32.6,22.79,47.25s27,25.71,48.14,25.72c1.5,0,3-.06,4.57-.17s3.13-.29,4.74-.52a56.1,56.1,0,0,0,28.23-12c7.95-6.5,14.49-15.55,19.74-27.3l-.08-.1-.09-.11c-13.07-16.72-28.57-28.93-45.35-36.13A91.46,91.46,0,0,0,356.9,791.64Z"/><path class="cls-11" d="M596.93,766.67c-1.65-2.24-3.34-4.53-5-6.8s-3.39-4.55-5.07-6.77c-1.21-1.6-2.47-3.34-3.78-5.16s-2.65-3.75-4-5.72c-9.92-14.13-19.79-27.31-29.93-35.62s-20.59-11.76-31.64-6.39c-11.65,5.65-18.77,18.08-23.5,33s-7.06,32.22-9.14,47.66c-.63,4.69-1.24,9.24-1.9,13.56s-1.36,8.41-2.16,12.15q-1.46,6.74-3.2,12.92t-3.8,11.81c14.13,16.92,28.35,29.78,43.42,39.07A126.36,126.36,0,0,0,565.64,888a137.21,137.21,0,0,0,120.84-42.25,123.17,123.17,0,0,1-19.91-8.28,107.66,107.66,0,0,1-17.36-11.36A205.13,205.13,0,0,1,621.13,798C612.59,787.89,604.7,777.19,596.93,766.67Z"/><path class="cls-6" d="M739.85,633l-10.09,0-10.09,0c0,.05,0,.1.05.15s0,.1,0,.15H739.9l0-.11S739.86,633,739.85,633Z"/><path class="cls-1" d="M714.6,835.63c1.1-1.7,2.17-3.41,3.21-5.15s2-3.51,3-5.3A206.24,206.24,0,0,0,740.52,773a331.66,331.66,0,0,0,7.12-84.64,313.73,313.73,0,0,0-7.74-55.14H719.76a267.06,267.06,0,0,1,9.36,42A257,257,0,0,1,730.91,729a251.77,251.77,0,0,1-5.37,38.14,194.82,194.82,0,0,1-18.77,50.41c-1.4,2.57-2.88,5.08-4.42,7.54s-3.18,4.87-4.86,7.21a111.61,111.61,0,0,1-20.69-7.57,92.73,92.73,0,0,1-17.56-11.09A190.67,190.67,0,0,1,633,787.23c-8.11-9.67-15.69-20-23.15-30.06-1.67-2.26-3.37-4.57-5.08-6.87s-3.43-4.6-5.15-6.86c-1.12-1.49-2.32-3.14-3.57-4.89s-2.55-3.61-3.9-5.52c-4.34-6.18-9.21-13.12-14.6-19.84a127.55,127.55,0,0,0-17.73-18.56q-12.4-10.27-24.79-12.49a39.27,39.27,0,0,0-24.52,3.67c-15.51,7.52-24.73,22.08-30.64,39.08s-8.54,36.47-10.88,53.82c-.61,4.52-1.2,8.92-1.82,13s-1.29,8-2,11.43c-.51,2.37-1,4.67-1.61,6.92s-1.16,4.42-1.77,6.54a141.13,141.13,0,0,0-20.61-19A122.85,122.85,0,0,0,418,783.88a108.72,108.72,0,0,0-31.49-9,106.5,106.5,0,0,0-32.51,1,140.41,140.41,0,0,0-30.84,9.4c-.06-.26-.11-.52-.17-.78l-.15-.74c-1.73-8.53-3.07-15.91-4.11-24.24s-1.8-17.64-2.36-30l-.09-2c0-.69-.06-1.37-.08-2.05a147.92,147.92,0,0,0,44.61-8.12,135.47,135.47,0,0,0,22.87-10.25,138.19,138.19,0,0,0,26.73-19.84,166.52,166.52,0,0,0,14.92-16.29A162.24,162.24,0,0,0,448,634.18h-7.82l-7.82,0a142.93,142.93,0,0,1-49.64,54.77,128.86,128.86,0,0,1-66.82,20.76c-.15-15.54.38-29.77,1.26-42.43s2.09-23.76,3.31-33h-8l-8,0c-1.79,13.91-3,27.11-3.69,39.58s-1,24.2-.86,35.17c-1.08-.13-2.16-.26-3.24-.42s-2.16-.32-3.24-.5c-31.31-5.39-54.09-22.43-69.38-38.85A148.69,148.69,0,0,1,199.57,634l-7.92.08-7.91.08a149.5,149.5,0,0,0,13.59,26.19,145.9,145.9,0,0,0,28.53,32.25,149.85,149.85,0,0,0,23,16.15,127.75,127.75,0,0,0,42.15,15c.55.1,1.68.28,3.27.49s3.65.44,6.08.65c.54,12.92,1.55,24.59,2.78,34.94s2.67,19.4,4.09,27.08c.17.93.36,1.9.55,2.88s.41,2,.63,3c-1.47.88-2.9,1.78-4.31,2.7s-2.78,1.87-4.12,2.84a98.21,98.21,0,0,0-22.14,21.85,80.58,80.58,0,0,0-14.72,35.46,83.44,83.44,0,0,0-.92,9.38c2.74,2.72,5.53,5.38,8.36,8s5.7,5.19,8.61,7.72a76,76,0,0,1-.94-15.28,64.69,64.69,0,0,1,14.65-38.63,86.34,86.34,0,0,1,19.73-17.68,163.81,163.81,0,0,0,9.51,24.23,141,141,0,0,0,15.69,25.1c8.16,10.37,17.42,18.24,27.56,23.52a70.36,70.36,0,0,0,32.87,8c1.89,0,3.79-.07,5.71-.21s3.86-.35,5.81-.63a72.23,72.23,0,0,0,33.09-13.09q14.2-10.39,23.82-28.62c14.57,16.4,29.62,29.1,45.58,38.39a142.11,142.11,0,0,0,51,17.91A153.25,153.25,0,0,0,704,850.1q8,1.49,16.64,2.25t17.82.76q5.88,0,12-.31t12.49-.93q4-4.38,7.79-8.88t7.49-9.15A272.78,272.78,0,0,1,744.47,837,187.62,187.62,0,0,1,714.6,835.63ZM407.45,873.38c-1.61.23-3.19.41-4.74.52s-3.07.17-4.57.17C377,874.06,361.37,863,350,848.35s-18.52-32.89-22.79-47.25a126.11,126.11,0,0,1,15-5.82,122.27,122.27,0,0,1,14.65-3.64,91.46,91.46,0,0,1,53,6.08c16.78,7.2,32.28,19.41,45.35,36.13l.09.11.08.1c-5.25,11.75-11.79,20.8-19.74,27.3A56.1,56.1,0,0,1,407.45,873.38Zm240,1.63a136.28,136.28,0,0,1-81.78,13,126.36,126.36,0,0,1-48.47-17.64c-15.07-9.29-29.29-22.15-43.42-39.07q2-5.62,3.8-11.81t3.2-12.92c.8-3.74,1.5-7.83,2.16-12.15s1.27-8.87,1.9-13.56c2.08-15.44,4.42-32.78,9.14-47.66s11.85-27.32,23.5-33c11-5.37,21.49-1.93,31.64,6.39s20,21.49,29.93,35.62c1.38,2,2.73,3.89,4,5.72s2.57,3.56,3.78,5.16c1.68,2.22,3.38,4.49,5.07,6.77s3.38,4.56,5,6.8c7.77,10.52,15.66,21.22,24.2,31.37a205.13,205.13,0,0,0,28.08,28.06,107.66,107.66,0,0,0,17.36,11.36,123.17,123.17,0,0,0,19.91,8.28A137.57,137.57,0,0,1,647.42,875Z"/><path class="cls-3" d="M476.35,671.28l-10.28-6.54-10.27-6.53a.81.81,0,0,0-1.2,1l14.59,37.35,14.59,37.36a6.24,6.24,0,0,0,8.18,3.51l25.76-10.5,25.75-10.51-13.32-31.35q-6.64-15.67-13.31-31.36l-20.25,8.79Z"/><path class="cls-4" d="M699.37,614.87H606.24l-44.7,19.41-44.7,19.41q6.66,15.67,13.31,31.36l13.32,31.35,53-21.63,53-21.64,42.93,25.39,42.94,25.39,18.1-30.75,18.1-30.75L735.5,638.64Z"/><path class="cls-3" d="M834.83,680.83l-11,4.32-11,4.32-20.57-13.53-20.56-13.53-18.1,30.75-18.1,30.75,26.47,15.66,26.48,15.66a6.26,6.26,0,0,0,8.67-2.39q9.69-17.72,19.4-35.43L835.84,682a.81.81,0,0,0-.1-.93A.8.8,0,0,0,834.83,680.83Z"/><path class="cls-6" d="M633.53,504.91c-.77,0-1.72,0-2.82,0a33.5,33.5,0,0,0-3.67.37,32.86,32.86,0,0,0-9.8,3.18,59.67,59.67,0,0,0-9.21,6,134,134,0,0,0-14.48,13c-4.14,4.27-7.57,8.3-10.2,11.58l-18.9,23.45-18.9,23.45a33.51,33.51,0,0,0-4.39,7.09,30.17,30.17,0,0,0-2.38,8,25.94,25.94,0,0,0,0,8.25,21.45,21.45,0,0,0,3.51,8.64l.47.69c.16.23.31.46.46.7a47.71,47.71,0,0,0,12.21,13c6.52,4.47,15.13,6.88,24.79.65l8.86-6.39,8.86-6.38a14.31,14.31,0,0,0,2.72-2.95,7.23,7.23,0,0,0,1.09-6.91l-6.2-13.17L589.36,584H709.1c-1.25,6.26-2.35,11.83-3.32,16.64s-1.8,8.84-2.53,12a16,16,0,0,0-.46,3.07,9.27,9.27,0,0,0,3.91,8.09,19.34,19.34,0,0,0,3.41,2A173.72,173.72,0,0,0,730.55,634c5.82,1.92,10.9,3.27,15.92,4.84a23.58,23.58,0,0,0,2.74.7,19.91,19.91,0,0,0,9.44-.44,23.72,23.72,0,0,0,3-1.09c5.52-2.44,9.23-7,11.59-11a35.35,35.35,0,0,0,3.5-8,27.17,27.17,0,0,0,.78-4.06,36.26,36.26,0,0,0,.08-8.18,37.21,37.21,0,0,0-3.28-11.85,58.22,58.22,0,0,0-4.67-8.12c-7-10.53-12.43-18.15-16.17-23.14s-5.72-7.34-5.72-7.34q-5.65-6.66-11.61-13.57t-12.24-14a80.29,80.29,0,0,0-9.07-8.81,73.56,73.56,0,0,0-10.37-7.21,59.65,59.65,0,0,0-14-6,37.33,37.33,0,0,0-11.54-1.37c-1.35.07-3.12.11-4.89.12s-3.54,0-4.88,0l-17.78-.24Z"/><path class="cls-7" d="M601.45,543.81v75.44l24.85,8.63,24.84,8.63,26.24-8.91,26.23-8.9.26-38.36.27-38.36-26.81,7.64-26.8,7.63L626,550.53Z"/><path class="cls-10" d="M631.81,485.92a26.53,26.53,0,1,0,7.77-18.75A26.44,26.44,0,0,0,631.81,485.92Z"/><path class="cls-5" d="M653.44,484.56a1.84,1.84,0,0,0,.66,1.24,1.81,1.81,0,0,0,1.34.4,1.84,1.84,0,0,0,1.24-.66,1.81,1.81,0,0,0,.41-1.34,1.89,1.89,0,0,0-.67-1.24,1.82,1.82,0,0,0-2.58.26A1.76,1.76,0,0,0,653.44,484.56Z"/><path class="cls-5" d="M640.07,484a1.84,1.84,0,0,0,.66,1.24,1.79,1.79,0,0,0,1.35.4,1.82,1.82,0,0,0,1.64-2,1.84,1.84,0,0,0-.66-1.24,1.79,1.79,0,0,0-1.35-.4,1.84,1.84,0,0,0-1.64,2Z"/><path class="cls-8" d="M649.74,497.85h-.48l-.48,0a9.43,9.43,0,0,1-4.75-1.89,10.23,10.23,0,0,1-2.19-2.22,1.26,1.26,0,0,1,.29-1.74,1.25,1.25,0,0,1,1.75.29,7.92,7.92,0,0,0,1.63,1.66,6.93,6.93,0,0,0,8.26.16,8.14,8.14,0,0,0,1.83-1.66,1.25,1.25,0,0,1,.83-.48,1.27,1.27,0,0,1,.93.25,1.24,1.24,0,0,1,.47.83,1.19,1.19,0,0,1-.24.92,11,11,0,0,1-2.19,2A9.71,9.71,0,0,1,649.74,497.85Z"/><path class="cls-8" d="M658.33,459.4a26.39,26.39,0,0,0-7.64,1.12,26.79,26.79,0,0,0-6.77,3.14,17.44,17.44,0,0,0,1.46,2.29,15.58,15.58,0,0,0,2.1,2.24,16.8,16.8,0,0,0,9.11,3.94,22.29,22.29,0,0,0,10.69-1.44,20.44,20.44,0,0,0-.92,6.06,18.17,18.17,0,0,0,9.28,16.3,19.27,19.27,0,0,0,7.44,2.4,26.53,26.53,0,0,0-24.75-36.05Z"/><path class="cls-8" d="M650.53,637a1.23,1.23,0,0,1-1.25-1.25V558a1.23,1.23,0,0,1,1.25-1.25,1.25,1.25,0,0,1,1.25,1.25v77.82a1.25,1.25,0,0,1-1.25,1.25Z"/><path class="cls-10" d="M601.87,576.8V563a3.26,3.26,0,0,0-.72-1.92,3,3,0,0,0-3.87-.79,3.28,3.28,0,0,0-1.52,1.71L591.6,572.8l-4.17,10.83,0,0,0,.07s-.42,1-.87,2.6a30.63,30.63,0,0,0-1.15,5.84,32.56,32.56,0,0,0,1.5,11.11c1.47,4.62,4.2,9.27,9.08,11.25a15,15,0,0,0,6.81,1,16.43,16.43,0,0,0,3.48-.63,9,9,0,0,0,2.42-1.15c.81-.52,1.79-1.25,3.46-2.38.06,0,3.12-2.11,6.85-4.7s8.15-5.7,10.92-7.83a6.08,6.08,0,0,0,1-.88,4.47,4.47,0,0,0,.95-1.67,4.18,4.18,0,0,0,.17-1.42,3.85,3.85,0,0,0-.13-.84,4.29,4.29,0,0,0-.87-1.71,4.45,4.45,0,0,0-.84-.77c.31-.22,1.48-1,2.9-2.1a54,54,0,0,0,4.37-3.64,6.79,6.79,0,0,0,.93-1,4.38,4.38,0,0,0,.72-1.65,4.32,4.32,0,0,0,.09-.73,3.26,3.26,0,0,0-.16-1.14,3.6,3.6,0,0,0-1.35-1.78,5.23,5.23,0,0,0-1.15-.6,6.08,6.08,0,0,0,.94-1.48,4.88,4.88,0,0,0-1.08-5.7,5.8,5.8,0,0,0-1.2-.87,5.21,5.21,0,0,0-2.88-.52,6,6,0,0,0-2.85,1.08,6.61,6.61,0,0,0-2.07-2.41,6.9,6.9,0,0,0-1.42-.74,6.73,6.73,0,0,0-3.44-.3,8.22,8.22,0,0,0-2,.6l-9.31,4.16Z"/><path class="cls-8" d="M609.8,585.21a1.28,1.28,0,0,1-1.06-.58,1.3,1.3,0,0,1-.17-.94,1.24,1.24,0,0,1,.55-.78l9.8-6.31,9.81-6.31a1.21,1.21,0,0,1,.94-.17,1.19,1.19,0,0,1,.78.54,1.22,1.22,0,0,1,.17.94,1.21,1.21,0,0,1-.54.79l-9.8,6.31L610.47,585a1,1,0,0,1-.33.15A1.33,1.33,0,0,1,609.8,585.21Z"/><path class="cls-8" d="M615.27,593.12a1.24,1.24,0,0,1-.6-.15,1.14,1.14,0,0,1-.46-.44,1.23,1.23,0,0,1,.41-1.72l10.59-6.52,10.6-6.53a1.29,1.29,0,0,1,1-.15,1.27,1.27,0,0,1,.77.56,1.24,1.24,0,0,1,.15,1,1.2,1.2,0,0,1-.56.77l-10.6,6.52-10.6,6.53a1.73,1.73,0,0,1-.31.14A1.32,1.32,0,0,1,615.27,593.12Z"/><path class="cls-8" d="M619.15,600.05a1.3,1.3,0,0,1-.58-.14,1.23,1.23,0,0,1-.46-.42,1.24,1.24,0,0,1-.19-.93,1.27,1.27,0,0,1,.54-.8l5.48-3.64,5.49-3.65a1.25,1.25,0,0,1,1.73.35,1.25,1.25,0,0,1-.35,1.74l-5.48,3.64-5.49,3.64a1.17,1.17,0,0,1-.34.16A1,1,0,0,1,619.15,600.05Z"/><path class="cls-10" d="M703.75,576.8V563a3.32,3.32,0,0,1,.71-1.92,3,3,0,0,1,3.87-.79,3.24,3.24,0,0,1,1.52,1.71L714,572.8l4.16,10.83,0,0,0,.07s.41,1,.87,2.6a31.43,31.43,0,0,1,1.15,5.84,32.64,32.64,0,0,1-1.51,11.11c-1.47,4.62-4.19,9.27-9.07,11.25a15,15,0,0,1-6.81,1,16.6,16.6,0,0,1-3.49-.63,9.14,9.14,0,0,1-2.42-1.15c-.81-.52-1.79-1.25-3.46-2.38-.06,0-3.11-2.11-6.85-4.7s-8.15-5.7-10.91-7.83a5.3,5.3,0,0,1-1-.88,4.47,4.47,0,0,1-.95-1.67,4.18,4.18,0,0,1-.17-1.42,4,4,0,0,1,.12-.84,4.43,4.43,0,0,1,.88-1.71,4.49,4.49,0,0,1,.83-.77c-.31-.22-1.48-1-2.89-2.1a52.34,52.34,0,0,1-4.37-3.64,7.35,7.35,0,0,1-.94-1,4.38,4.38,0,0,1-.72-1.65,4.32,4.32,0,0,1-.09-.73,3.43,3.43,0,0,1,1.52-2.92,4.81,4.81,0,0,1,1.15-.6,6,6,0,0,1-.95-1.48,5,5,0,0,1-.32-3.34,4.87,4.87,0,0,1,1.4-2.36,5.8,5.8,0,0,1,1.2-.87,5.21,5.21,0,0,1,2.88-.52,5.92,5.92,0,0,1,2.85,1.08,7.23,7.23,0,0,1,.73-1.14,6.31,6.31,0,0,1,2.77-2,6.7,6.7,0,0,1,1.39-.34,7,7,0,0,1,2,0,8.14,8.14,0,0,1,2,.6l9.31,4.16Z"/><path class="cls-8" d="M695.82,585.21a1.41,1.41,0,0,1-.35-.05,1.21,1.21,0,0,1-.33-.15l-9.8-6.31-9.8-6.31a1.26,1.26,0,0,1-.55-.79,1.22,1.22,0,0,1,.17-.94,1.21,1.21,0,0,1,.79-.54,1.22,1.22,0,0,1,.94.17l9.8,6.31,9.81,6.31a1.25,1.25,0,0,1,.37,1.72,1.26,1.26,0,0,1-.46.43A1.23,1.23,0,0,1,695.82,585.21Z"/><path class="cls-8" d="M690.34,593.12a1.24,1.24,0,0,1-.33,0,1.83,1.83,0,0,1-.32-.14l-10.6-6.53-10.6-6.52a1.24,1.24,0,0,1-.56-.77,1.25,1.25,0,0,1,.93-1.51,1.25,1.25,0,0,1,.94.15l10.6,6.53,10.6,6.52a1.24,1.24,0,0,1,.56.77,1.29,1.29,0,0,1-.15.95,1.26,1.26,0,0,1-1.07.59Z"/><path class="cls-8" d="M686.47,600.05a1.12,1.12,0,0,1-.36,0,1.17,1.17,0,0,1-.34-.16l-5.48-3.64-5.49-3.64a1.21,1.21,0,0,1-.53-.8,1.23,1.23,0,0,1,.18-.94,1.25,1.25,0,0,1,.8-.53,1.24,1.24,0,0,1,.93.18l5.49,3.65,5.49,3.64a1.21,1.21,0,0,1,.53.8,1.19,1.19,0,0,1-.18.93,1.23,1.23,0,0,1-.46.42A1.3,1.3,0,0,1,686.47,600.05Z"/></svg>