<svg id="Layer_1" data-name="Layer 1" xmlns="http://www.w3.org/2000/svg" viewBox="0 0 1000 1000"><defs><style>.cls-1{fill:#353519;}.cls-2{fill:#f4ece5;}.cls-3{fill:#f98638;}.cls-4{fill:#ad4d4d;}.cls-5{fill:#666538;}.cls-6{fill:#bab653;}.cls-7{fill:#deb8fc;}.cls-8{fill:#2b3d0a;}.cls-9{fill:#e9cf81;}.cls-10{fill:#ffaa9f;}</style></defs><polygon class="cls-1" points="699.74 60.06 509.45 60.06 319.15 60.06 208.71 170.2 98.27 280.34 98.27 610.14 98.27 939.94 500 939.94 901.73 939.94 901.73 610.14 901.73 280.34 800.74 170.2 699.74 60.06"/><path class="cls-2" d="M416.11,509.33c-.53,5.25-1.93,19.66-2.35,37.84s.12,40.1,3.45,60.39c.83,5.05,1.74,10.57,3.11,16.74a178.34,178.34,0,0,0,5.9,20.63c2,5.64,3.43,9,5.1,12.77s3.57,8.08,6.49,15.63,5.16,14.25,7,20.2,3.12,11,4.08,15c0,0,1.08,4.75,2.19,12.54a238.27,238.27,0,0,1,2.37,30.83c.15,14.59-2.24,39.16-7.46,71.3S432.71,895,421.54,939.93H404.47c4.1-16.2,8.95-36.39,13.79-59.2s9.66-48.22,13.73-74.88c1.51-9.89,3.09-21.23,3.78-33.84a213.34,213.34,0,0,0-1.63-41.42c-1.27-9-3.06-17.47-4.72-24.27s-3.19-11.94-3.93-14.37a266.33,266.33,0,0,0-9.41-26c-2.82-6.68-5.05-11.19-5.9-13-4.32-9.12-8.5-23.15-11.12-45.75s-3.65-53.77-1.71-97.2l9.38-.33Z"/><path class="cls-2" d="M495.63,649.41l10.54-2,10.54-2c-2.73,4.25-5.84,9.36-9.06,15.28s-6.56,12.66-9.78,20.17c-2.32,5.43-5.23,12.31-8,20.47a165.81,165.81,0,0,0-6.85,28.18,151.26,151.26,0,0,0-1,36.56,261.61,261.61,0,0,0,4.8,29.62A197.2,197.2,0,0,0,497.08,830c3.42,9,6.74,17.59,9.64,32a209.86,209.86,0,0,1,4,33.39,214.65,214.65,0,0,1-.52,25.49l-10.05,1.89-10.06,1.88a191.44,191.44,0,0,0,1.86-27.26,181.2,181.2,0,0,0-3.65-35.64c-2.77-13.58-6-21.48-9.45-30a178.2,178.2,0,0,1-10.33-33.54,245.13,245.13,0,0,1-4.62-28.4,168.43,168.43,0,0,1,.72-38.61,176.86,176.86,0,0,1,6.12-27.85c2.35-7.75,4.75-13.83,6.35-17.86a210.35,210.35,0,0,1,9.41-20.36C489.64,659.09,492.78,653.85,495.63,649.41Z"/><path class="cls-3" d="M544.54,681.73l-43.13-18.46-43.13-18.46a1.89,1.89,0,0,1-1.11-1.74,2.41,2.41,0,0,1,1-2l17.71-12.95,17.72-13a30.76,30.76,0,0,1,13.87-5.75,26.53,26.53,0,0,1,14.14,1.83h0A26.33,26.33,0,0,1,532,619.28a30.1,30.1,0,0,1,5.7,12.56l4.82,23.61,4.82,23.61a2.42,2.42,0,0,1-.71,2.22A1.92,1.92,0,0,1,544.54,681.73Z"/><path class="cls-3" d="M478.28,511.53l-69.3.77-69.29.76a2.81,2.81,0,0,1-2.55-1.66,3.52,3.52,0,0,1,.11-3.3l16.23-27.69,16.22-27.69A45.17,45.17,0,0,1,385,436.9a39.54,39.54,0,0,1,20.2-5.89h0a39.47,39.47,0,0,1,18.89,4.64,44.42,44.42,0,0,1,15.19,13.41l20.59,28.63,20.59,28.64a3.48,3.48,0,0,1,.36,3.37A2.82,2.82,0,0,1,478.28,511.53Z"/><path class="cls-4" d="M444,485.22a7.85,7.85,0,0,1-3.82,5.87,13.77,13.77,0,0,1-15.93-1.34,7.4,7.4,0,0,1,1-12.29,13.81,13.81,0,0,1,15.93,1.34A7.86,7.86,0,0,1,444,485.22Z"/><path class="cls-4" d="M459.71,498.68a4.8,4.8,0,0,1-2.34,3.58,8.42,8.42,0,0,1-9.73-.81,4.53,4.53,0,0,1,.63-7.52,8.44,8.44,0,0,1,9.73.82A4.81,4.81,0,0,1,459.71,498.68Z"/><path class="cls-4" d="M523.34,624.08a5.08,5.08,0,0,1-3.06,3.36,8.95,8.95,0,0,1-10-2.52,4.79,4.79,0,0,1,1.94-7.75,8.92,8.92,0,0,1,10.05,2.52A5.12,5.12,0,0,1,523.34,624.08Z"/><path class="cls-4" d="M504.37,631.35a3.42,3.42,0,0,1-2.06,2.26,6,6,0,0,1-6.77-1.7,3.22,3.22,0,0,1,1.31-5.22,5.76,5.76,0,0,1,3.66-.24,5.82,5.82,0,0,1,3.11,1.93A3.43,3.43,0,0,1,504.37,631.35Z"/><path class="cls-5" d="M214.55,525.56,175,732.75,135.43,939.94H307.22L267.66,732.75,228.1,525.56a6.9,6.9,0,0,0-13.55,0Z"/><path class="cls-6" d="M237.77,445.41l-.14,0-.14,0c-3.46,13.64-8.21,26.89-13.05,40.12s-9.74,26.44-13.5,40-6.26,27.85-6.34,41.93,2.29,28,8.28,40.7a78.59,78.59,0,0,0,10.91,17,82.53,82.53,0,0,0,14.8,13.76c5,3.6,11.22,6.11,17.06,9.06s11.31,6.34,14.74,11.71c10.78,16.87,4.39,31.88-6.45,45.82s-26.16,26.81-33.23,39.39c-5.33,9.47-8.14,20.35-9.39,31.48a168.22,168.22,0,0,0,0,33.05A217.54,217.54,0,0,0,225.17,836c1.85,8.85,4.32,18.25,7.6,29.91,1.61,5.75,3.48,12.33,5.94,19.76s5.52,15.71,9.53,24.88c2.28,5.23,5.68,12.59,8.51,18.65s5.09,10.8,5.09,10.8H294.6c-24.71-31.72-36.45-59.54-41.7-81.67s-4-38.59-2.77-47.57c1.19-8.5,2.05-19.57,4.58-30.72s6.73-22.38,14.58-31.2c9.89-11.13,20.29-23.55,27.55-37.16s11.36-28.39,8.65-44.25a64,64,0,0,0-24.61-40.13c-5.28-3.93-11.18-7-16.9-10.37s-11.25-6.85-15.79-11.62a46.06,46.06,0,0,1-8.91-13.75,63.6,63.6,0,0,1-4.4-16A96.49,96.49,0,0,1,236,543.89,197.38,197.38,0,0,1,244.81,513c3.63-10,7.68-19.95,11.28-30a187.72,187.72,0,0,0,8.6-30.71l-13.46-3.45Z"/><path class="cls-6" d="M271.36,627.24s8.79-21.81,21.94-47.81,30.67-56.21,48.14-73a24.79,24.79,0,0,1,31.06-3.22c9,5.68,14.63,16.79,10.36,29.31A76.47,76.47,0,0,1,372.46,552,161.66,161.66,0,0,1,351,576l-32.39,33.52L286.23,643a37.62,37.62,0,0,0-3.45-4.81A69.8,69.8,0,0,0,271.36,627.24Z"/><path class="cls-5" d="M278.23,633.8a1.31,1.31,0,0,1-.38-.06,1.09,1.09,0,0,1-.35-.19,1.24,1.24,0,0,1-.5-.81,1.21,1.21,0,0,1,.23-.93l39.32-53.63,39.32-53.62a1.24,1.24,0,0,1,.81-.5,1.22,1.22,0,0,1,.93.23,1.24,1.24,0,0,1,.5.81,1.21,1.21,0,0,1-.23.93l-39.32,53.63-39.32,53.63a1.27,1.27,0,0,1-.45.38A1.32,1.32,0,0,1,278.23,633.8Z"/><path class="cls-1" d="M231.06,466.15l8.14,20,8.14,20s3.17-8.12,6.43-16.83,6.6-18,7-20.43l-6.21-11.44-6.21-11.44-8.62,10.05Z"/><path class="cls-7" d="M206.86,383.13A27.27,27.27,0,0,0,192,386.65a24.89,24.89,0,0,0-10.17,10.79,27,27,0,0,0-2.3,15.6,21.16,21.16,0,0,0,8,13.87,21.51,21.51,0,0,0,11.14,4.2A25.69,25.69,0,0,0,211,429a24.55,24.55,0,0,0-12.33,12,23.58,23.58,0,0,0-1.39,16.77,24,24,0,0,0,10.23,13.43,22.54,22.54,0,0,0,16.12,3.31,22.24,22.24,0,0,0,12.92-7.85,28.57,28.57,0,0,0,4.34-6.9,31.74,31.74,0,0,0,3.93,8.37,26.39,26.39,0,0,0,13.4,10.75,27.87,27.87,0,0,0,16.86.32,24,24,0,0,0,13.61-9.93,23.53,23.53,0,0,0,3.56-11.73,28.83,28.83,0,0,0-.66-7.41,36.26,36.26,0,0,0,14.95,10.57,27.27,27.27,0,0,0,16.7.87,28.68,28.68,0,0,0,7.54-3.28,21.44,21.44,0,0,0,9-10.73,22,22,0,0,0,0-14.86,26.44,26.44,0,0,0-3.54-7,25.75,25.75,0,0,0,18.16-1,23.05,23.05,0,0,0,12.06-12.16,22.08,22.08,0,0,0,.07-16.21,27,27,0,0,0-9.38-12.42,24.49,24.49,0,0,0-10-4.15,28,28,0,0,0-6.87-.38,32.2,32.2,0,0,0,6-5.6,23.43,23.43,0,0,0,5.2-11.27c1.09-7.18-1.57-14.69-6.4-20.52s-11.85-10-19.46-10.51A26.21,26.21,0,0,0,309.59,336a34.85,34.85,0,0,0-7.24,6.27,37.59,37.59,0,0,0-.5-9.54,26.26,26.26,0,0,0-6.15-12.91c-6-6.59-15.6-9.5-25.05-8.89s-18.72,4.73-24,12.2a27.75,27.75,0,0,0-4.83,15.46,38.88,38.88,0,0,0,1.09,10.17A31.9,31.9,0,0,0,230,338.7,26.39,26.39,0,0,0,214.68,337a29,29,0,0,0-17.35,11.39c-4.12,5.65-6.1,12.59-4.51,19.1A21.79,21.79,0,0,0,200,378.64,31.55,31.55,0,0,0,206.86,383.13Z"/><path class="cls-3" d="M254.08,381.76a28.78,28.78,0,0,0-12.77-1.11,15,15,0,0,0-10.63,6.75c-3.55,5.54-2.63,11.66.68,16.27a17.1,17.1,0,0,0,15,7.21c-.31,0-.79.7-1.23,1.42s-.85,1.5-1,1.73a14.58,14.58,0,0,0-1.51,11.81,13.91,13.91,0,0,0,8.09,8.69c3.86,1.6,8.33.93,12.29-1a20.88,20.88,0,0,0,9.2-8.44,43.55,43.55,0,0,0,2.33-5.7c.66-1.91,1.12-3.44,1.12-3.44,3.68,4.3,5.92,6.71,7.24,8a13.46,13.46,0,0,0,1.72,1.58,20.35,20.35,0,0,0,5.17,2.21,16.83,16.83,0,0,0,10.6-.28,15.33,15.33,0,0,0,2.54-1.25,16.14,16.14,0,0,0,2.38-1.75,17.21,17.21,0,0,0,5.45-10.15,13.26,13.26,0,0,0-2.92-10.94,27.1,27.1,0,0,0-3.71-3.26c-1.26-1-2.29-1.66-2.29-1.66l1.48-.72,1.31-.66a16.2,16.2,0,0,0,8-9.69,16,16,0,0,0-1.17-12.63,14.49,14.49,0,0,0-12.94-7.34,18.51,18.51,0,0,0-13.92,6.24,18.66,18.66,0,0,0,0-2.65,16.73,16.73,0,0,0-.58-3.43,17,17,0,0,0-5.29-8.2,19.3,19.3,0,0,0-4.33-2.9,19.94,19.94,0,0,0-9.87-1.76,15.14,15.14,0,0,0-9.69,4.28,15.57,15.57,0,0,0-4.17,8.25,17.83,17.83,0,0,0-.27,4.82,15.84,15.84,0,0,0,.55,2.79,15.56,15.56,0,0,0,.78,2.09c.15.4.52,1.53,1,2.59S253.67,381.63,254.08,381.76Z"/><path class="cls-6" d="M162.53,709.67c-9.36,16.74-14.7,34.71-15.56,51.87s2.75,33.49,11.28,47c7.23,11.4,17.66,20.23,26.92,26.48a130.66,130.66,0,0,0,19.93,11.09,116.06,116.06,0,0,0,26.14,8l-2-17-2-16.94s-23.59-2.76-40-18-25.71-42.82,2.92-92.56H162.53Z"/><path class="cls-7" d="M134.13,679.23a16.37,16.37,0,0,0-9,2.12,15.1,15.1,0,0,0-6.13,6.5,16.26,16.26,0,0,0-1.38,9.4,12.46,12.46,0,0,0,11.51,10.88,15.5,15.5,0,0,0,7.48-1.24,14.78,14.78,0,0,0-7.43,7.22,14.23,14.23,0,0,0-.84,10.1,14.46,14.46,0,0,0,6.16,8.09,13.62,13.62,0,0,0,9.71,2,13.45,13.45,0,0,0,7.79-4.73,17.22,17.22,0,0,0,2.61-4.16,19.09,19.09,0,0,0,2.37,5.05,16,16,0,0,0,8.07,6.47,16.77,16.77,0,0,0,10.16.19,14.48,14.48,0,0,0,8.2-6,14.18,14.18,0,0,0,2.14-7.07,16.9,16.9,0,0,0-.4-4.46,21.83,21.83,0,0,0,9,6.36,16.39,16.39,0,0,0,10.06.53,17.49,17.49,0,0,0,4.54-2,13,13,0,0,0,5.4-6.47,13.28,13.28,0,0,0,0-8.95,16.14,16.14,0,0,0-2.13-4.23,15.42,15.42,0,0,0,10.93-.61,13.89,13.89,0,0,0,7.27-7.33,13.27,13.27,0,0,0,0-9.76,16.27,16.27,0,0,0-5.65-7.48,14.78,14.78,0,0,0-6-2.5,17.22,17.22,0,0,0-4.14-.23,19.4,19.4,0,0,0,3.61-3.37,14.19,14.19,0,0,0,3.13-6.79,16,16,0,0,0-3.85-12.36,17.06,17.06,0,0,0-11.72-6.34,15.87,15.87,0,0,0-9.69,2.73,21.51,21.51,0,0,0-4.36,3.77,22.5,22.5,0,0,0-.3-5.74,15.73,15.73,0,0,0-3.71-7.78c-3.6-4-9.39-5.72-15.08-5.35s-11.28,2.85-14.48,7.35a16.7,16.7,0,0,0-2.91,9.31,23.15,23.15,0,0,0,.66,6.12,19.12,19.12,0,0,0-7.75-6,15.89,15.89,0,0,0-9.24-1,17.34,17.34,0,0,0-10.45,6.86,14.07,14.07,0,0,0-2.72,11.5,13.18,13.18,0,0,0,4.32,6.73A19,19,0,0,0,134.13,679.23Z"/><path class="cls-3" d="M162.58,678.4a17.62,17.62,0,0,0-7.7-.67,9.07,9.07,0,0,0-6.4,4.08,8.47,8.47,0,0,0,.41,9.79,10.29,10.29,0,0,0,9,4.35c-.19,0-.48.42-.74.85s-.51.91-.59,1a8.76,8.76,0,0,0-.91,7.12,8.37,8.37,0,0,0,4.87,5.23,9.1,9.1,0,0,0,7.4-.58,12.63,12.63,0,0,0,5.55-5.08,27.93,27.93,0,0,0,1.4-3.44c.4-1.15.67-2.07.67-2.07,2.22,2.59,3.57,4,4.37,4.84a8,8,0,0,0,1,.95,12.48,12.48,0,0,0,3.12,1.33,10.09,10.09,0,0,0,6.38-.17,9.78,9.78,0,0,0,3-1.81,10.41,10.41,0,0,0,3.28-6.11,8,8,0,0,0-1.76-6.59,16.58,16.58,0,0,0-2.23-2c-.76-.57-1.38-1-1.38-1l.89-.44.79-.4a9.71,9.71,0,0,0,4.81-5.84,9.59,9.59,0,0,0-.7-7.6,8.75,8.75,0,0,0-7.79-4.43,11.18,11.18,0,0,0-8.39,3.76,10.17,10.17,0,0,0,0-1.59,9.37,9.37,0,0,0-.34-2.07,10.37,10.37,0,0,0-3.19-4.94,11.43,11.43,0,0,0-2.61-1.74,12,12,0,0,0-5.95-1.07,9.12,9.12,0,0,0-5.83,2.58,9.46,9.46,0,0,0-2.52,5,11.5,11.5,0,0,0-.16,2.9,9.4,9.4,0,0,0,.34,1.68,9.81,9.81,0,0,0,.46,1.26c.09.24.31.92.57,1.55S162.32,678.33,162.58,678.4Z"/><path class="cls-1" d="M667.27,644.67,627.65,792.3,588,939.94h171.8L720.21,792.3,680.59,644.67a6.9,6.9,0,0,0-13.32,0Z"/><path class="cls-5" d="M849.87,478.15l-7.68.21-7.68.2a.17.17,0,0,1-.18-.14.18.18,0,0,1,.12-.2,42.44,42.44,0,0,0,15.28-9.11A27.43,27.43,0,0,0,857.66,456a26.6,26.6,0,0,0-.78-14.62,31.75,31.75,0,0,0-21.49-20.94,46.1,46.1,0,0,0-25.38-.7,36.32,36.32,0,0,0,20.19-12.63,32.39,32.39,0,0,0,1.08-39.76,31.1,31.1,0,0,0-35.77-11.49,36.21,36.21,0,0,0-17.26,12.39A39.24,39.24,0,0,0,782.11,345,35.54,35.54,0,0,0,772,324.59a36.61,36.61,0,0,0-20.87-10,32.71,32.71,0,0,0-21.85,4.51c-7.77,5-13,13.7-14.52,23.63a43,43,0,0,0,7.15,30.9.36.36,0,0,1-.51.49,30.55,30.55,0,0,0-22.8-5.5c-7.54,1.19-14.34,5.17-18.34,11.23-4.22,6.39-5.08,14.73-2.77,22.48a30.47,30.47,0,0,0,16.19,18.91s0,0,0,0,0,0,0,0A38,38,0,0,0,665,426.74c-7.72,5.09-13,12.76-14.13,20.88-1,7.06,1.24,14.59,5.79,21a37.52,37.52,0,0,0,19.86,14.15l-7.9.21-7.89.21a39.41,39.41,0,0,0-38.36,40.45h0A39.43,39.43,0,0,0,662.82,562l32.5-.86,32.51-.86c.81,41,1.63,114.74,2.44,188.46s1.64,147.46,2.45,188.47l30,.49,30,.48c-1-41.44-1.91-115.59-2.87-189.74s-1.91-148.3-2.86-189.74l32.5-.86L852,557a39.41,39.41,0,0,0-2.1-78.8Z"/><path class="cls-8" d="M705.25,422.55H691.62a1.24,1.24,0,0,1-.88-2.13,1.21,1.21,0,0,1,.88-.37h13.63a1.25,1.25,0,0,1,.88,2.14A1.27,1.27,0,0,1,705.25,422.55Z"/><path class="cls-8" d="M835.92,480.25H793.44a1.21,1.21,0,0,1-.88-.37,1.22,1.22,0,0,1-.37-.88,1.25,1.25,0,0,1,1.25-1.25h42.48a1.27,1.27,0,0,1,.88.36,1.25,1.25,0,0,1,.37.89,1.22,1.22,0,0,1-.37.88A1.24,1.24,0,0,1,835.92,480.25Z"/><path class="cls-9" d="M885.24,730.6l-2.18.06-2.18.06a22.73,22.73,0,0,0,5.63-6.51,19.6,19.6,0,0,0,2.51-8,23.48,23.48,0,0,0-.49-6.3,16,16,0,0,0-6-9.81A16.66,16.66,0,0,0,871,697.36a24,24,0,0,0-12.74,5.57,17.79,17.79,0,0,0,6.83-9.73,16.14,16.14,0,0,0-27.3-15.47,17.82,17.82,0,0,0-4.89,11,21.91,21.91,0,0,0-.58-13.7,18.89,18.89,0,0,0-8.25-9.8,18.57,18.57,0,0,0-15.5-1,21.57,21.57,0,0,0-11.89,10.16,20.65,20.65,0,0,0-1,16.22,22.83,22.83,0,0,0,11.42,13,18.83,18.83,0,0,0-15.41,1.13,16.54,16.54,0,0,0-8.6,11.08,15.84,15.84,0,0,0,1.25,9.6,18.72,18.72,0,0,0,6.71,7.79l-4.49.12-4.49.12a14.35,14.35,0,1,0,.76,28.69l17-.45,17-.45,1.38,89.41L819.7,940h26.15l-1.45-89.76L843,760.43l21.53-.57,21.53-.57a14.35,14.35,0,1,0-.77-28.69Z"/><polygon class="cls-1" points="842.95 760.43 834.92 760.43 826.88 760.43 835.33 768.88 843.77 777.32 843.36 768.88 842.95 760.43"/><path class="cls-6" d="M765.79,733.13a95.72,95.72,0,0,0-2.61,26.25,77.33,77.33,0,0,0,5.45,25.84,67.36,67.36,0,0,0,8.75,15.31,61,61,0,0,0,12.56,12.35A38.67,38.67,0,0,0,807,820c5.87.92,12,.62,18.69-.18a39.09,39.09,0,0,1,13.24.36,20.06,20.06,0,0,1,11.17,6.65,29.3,29.3,0,0,1,5.78,11.85,57.93,57.93,0,0,1,1.57,13.21l.3,10.63.31,10.62,10.59-.13,10.59-.13c.6,0,.56-5.58.34-11.4s-.62-11.91-.74-12.94a90.86,90.86,0,0,0-3.4-16.28,64.78,64.78,0,0,0-6.82-15.13,44.76,44.76,0,0,0-7.77-9.4,34.7,34.7,0,0,0-10.22-6.59,35.65,35.65,0,0,0-13.51-2.33c-4.62,0-9.29.42-13.83.59a42.16,42.16,0,0,1-13.78-1.68,32.69,32.69,0,0,1-12.14-6.61c-11-9.63-13.66-23.29-12.71-37.5s5.51-28.95,8.94-40.76c1.69-5.8,3.59-12.14,5.71-19s4.45-14.11,7-21.83l-10.1-3.64-10.11-3.65q-3.93,11-7.65,22.63t-7.14,24.08q-1.51,5.5-2.91,10.91T765.79,733.13Z"/><path class="cls-1" d="M786.87,738.44l1.34-5.52,1.35-5.52c.09-.33.16-.6.22-.84l.16-.64c.12-.47.28-1.12.53-2s.58-2.09,1-3.65c1.79-6.23,3-10,4-13.1s1.82-5.72,2.75-9.65c.58-2.45.76-3.55,1-4.9s.49-3,1.23-6.46c.82-3.86,1.65-7.34,2.43-10.37s1.51-5.6,2.11-7.64l-12.26-2-12.26-2c-.83,3.53-1.92,8.14-3.06,13s-2.35,10-3.42,14.55c-2.53,10.79-4.44,19-6,26.24s-2.64,13.66-3.6,20.9c-.25,1.9-.47,3.64-.64,5.16s-.32,2.82-.43,3.85l17.46-7,6-2.39Z"/><path class="cls-6" d="M772.42,772.1a31.18,31.18,0,0,0-7-2.3,28.65,28.65,0,0,0-6.91-.55A24.51,24.51,0,0,0,757,758.88a23.23,23.23,0,0,0-16.79-14.36,25,25,0,0,0-12,.39,20.64,20.64,0,0,0-1.55-6.73,22.13,22.13,0,0,0-3.87-6.2,21.4,21.4,0,0,0-13.59-7.17,17.35,17.35,0,0,0-19.58,17.35,21.3,21.3,0,0,0,5.47,14.35,22,22,0,0,0,6.84,5.2,20.62,20.62,0,0,0,7.81,2,25.12,25.12,0,0,0,0,12.94,23.27,23.27,0,0,0,17.49,16.65,24.9,24.9,0,0,0,11.91-.35,25,25,0,0,0,5.4,9.93,30.4,30.4,0,0,0,10,7.47,28.88,28.88,0,0,0,19.14,2.09c5.85-1.49,10.69-5.06,13.16-10.34s2.07-11.29-.54-16.73A28.88,28.88,0,0,0,772.42,772.1Z"/><path class="cls-5" d="M774,795.93a1,1,0,0,1-.3,0,1.15,1.15,0,0,1-.29-.11q-6.63-3.54-13.11-7.45t-12.71-8.1a292.85,292.85,0,0,1-28.53-22,297.83,297.83,0,0,1-25.78-25.47,1.31,1.31,0,0,1-.32-.91,1.24,1.24,0,0,1,.42-.86,1.23,1.23,0,0,1,.9-.31,1.19,1.19,0,0,1,.86.41,295.56,295.56,0,0,0,25.56,25.25A289.19,289.19,0,0,0,749,778.16c4.11,2.77,8.32,5.46,12.6,8s8.62,5,13,7.38a1.26,1.26,0,0,1,.61.74,1.29,1.29,0,0,1-.09,1,1.28,1.28,0,0,1-.47.48A1.24,1.24,0,0,1,774,795.93Z"/><path class="cls-3" d="M838.9,599.48c22.43-22.84,27.23-40.19,21.48-45.79s-22,.54-41.82,24.68c8.52-31.15,3.48-48.1-4.93-48.48s-20.19,15.81-25.14,51c-8.72-34.83-22.35-49.63-30.65-48s-11.26,19.79,1.35,50.84c-22.83-22.43-40.18-27.23-45.79-21.48s.54,22,24.68,41.82c-31.15-8.52-48.1-3.48-48.48,4.93s15.82,20.19,50.95,25.14c-34.83,8.72-49.63,22.35-48,30.65s19.8,11.26,50.84-1.35c-22.43,22.83-27.23,40.18-21.48,45.79s22-.54,41.82-24.69c-8.52,31.16-3.48,48.11,4.93,48.49s20.19-15.82,25.14-51c8.72,34.83,22.35,49.63,30.65,48s11.26-19.8-1.35-50.84c22.84,22.42,40.19,27.23,45.79,21.48s-.54-22-24.68-41.82c31.15,8.52,48.1,3.47,48.48-4.93s-15.81-20.19-51-25.14c34.83-8.72,49.63-22.35,48-30.65S870,586.87,838.9,599.48Z"/><path class="cls-7" d="M810.1,631.88A21.26,21.26,0,1,1,803.48,617,21.21,21.21,0,0,1,810.1,631.88Z"/><path class="cls-5" d="M646.75,855h-.15a1.25,1.25,0,0,1-.84-.47,1.23,1.23,0,0,1-.25-.92l13.92-114,13.93-114a1.25,1.25,0,0,1,.47-.83,1.33,1.33,0,0,1,.92-.26,1.29,1.29,0,0,1,.84.47,1.22,1.22,0,0,1,.25.93l-13.92,114L648,853.91a1.23,1.23,0,0,1-.42.79A1.26,1.26,0,0,1,646.75,855Z"/><path class="cls-5" d="M646.75,855a1.27,1.27,0,0,1-.86-.34,1.25,1.25,0,0,1-.39-.83L635,694.29,624.39,534.75a1.26,1.26,0,0,1,.31-.91,1.23,1.23,0,0,1,.86-.42,1.21,1.21,0,0,1,.9.3,1.32,1.32,0,0,1,.43.86l10.55,159.55L648,853.68a1.21,1.21,0,0,1-.3.9,1.3,1.3,0,0,1-.86.43h-.08Z"/><path class="cls-7" d="M681.23,480a55.77,55.77,0,1,1-17.38-39A55.59,55.59,0,0,1,681.23,480Z"/><path class="cls-7" d="M703.64,602.44a25.26,25.26,0,1,1-7.87-17.66A25.15,25.15,0,0,1,703.64,602.44Z"/><path class="cls-5" d="M666.62,480.29a13.92,13.92,0,0,1-8.27-2.84,15.55,15.55,0,0,1-5.39-7.4,17.85,17.85,0,0,1-9.61,1.86,14.73,14.73,0,0,1-8.49-3.59,14.53,14.53,0,0,1-4.18-6.74,17.61,17.61,0,0,1-.73-5,1.26,1.26,0,0,1,1.25-1.25h0a1.21,1.21,0,0,1,.88.37,1.25,1.25,0,0,1,.37.89,15,15,0,0,0,.61,4.18,11.93,11.93,0,0,0,3.46,5.64,12.39,12.39,0,0,0,7.8,3,15.64,15.64,0,0,0,8.76-2.34l.74-.45.74-.45.2.84.19.85a13,13,0,0,0,5.22,7.78,10.9,10.9,0,0,0,8.61,1.86,10.78,10.78,0,0,0,5.89-3.74,12.85,12.85,0,0,0,2.82-6.88,1.24,1.24,0,0,1,2.21-.67,1.26,1.26,0,0,1,.28.91,15.35,15.35,0,0,1-3.44,8.29,13.2,13.2,0,0,1-7.22,4.53,12.65,12.65,0,0,1-1.35.22A12.21,12.21,0,0,1,666.62,480.29Z"/><path class="cls-5" d="M595.65,506.18a8.06,8.06,0,0,1-4.17-1.22,9.37,9.37,0,0,1-2.1-1.74,1.24,1.24,0,0,1-.32-.9,1.27,1.27,0,0,1,.41-.86,1.26,1.26,0,0,1,.91-.32,1.27,1.27,0,0,1,.86.41,6.62,6.62,0,0,0,1.5,1.25,5.53,5.53,0,0,0,2.91.88h0a5.72,5.72,0,0,0,3.63-1.4,7.39,7.39,0,0,0,2.3-3.56l.24-.84.25-.83.71.5.71.5a6,6,0,0,0,4.35,1,5.12,5.12,0,0,0,3.34-2,4.85,4.85,0,0,0,.84-3.07,6,6,0,0,0-1.16-3.22,1.22,1.22,0,0,1-.23-.93,1.23,1.23,0,0,1,.49-.82,1.26,1.26,0,0,1,.93-.23,1.28,1.28,0,0,1,.82.5,8.54,8.54,0,0,1,1.65,4.67,7.12,7.12,0,0,1-5.7,7.41,8.51,8.51,0,0,1-5.4-.56,9.55,9.55,0,0,1-3.22,3.84,8,8,0,0,1-4.53,1.47h-.05Z"/><path class="cls-5" d="M691.44,622.84c-.25,0-.49,0-.73,0s-.48-.07-.72-.12a7.3,7.3,0,0,1-4.36-2.9,8.52,8.52,0,0,1-1.62-5.19,9.68,9.68,0,0,1-4.8-1.44,8.1,8.1,0,0,1-3.14-3.59,7.94,7.94,0,0,1-.54-4.34,9.84,9.84,0,0,1,.77-2.64,1.22,1.22,0,0,1,.7-.64,1.24,1.24,0,0,1,1.56,1.7,7.12,7.12,0,0,0-.55,1.88,5.51,5.51,0,0,0,.35,3,5.69,5.69,0,0,0,2.72,2.78,7.48,7.48,0,0,0,4.18.71l.87-.1.86-.11-.18.85-.18.86a5.91,5.91,0,0,0,.76,4.4,5.09,5.09,0,0,0,3.13,2.29,4.87,4.87,0,0,0,3.15-.44,5.91,5.91,0,0,0,2.5-2.34,1.24,1.24,0,0,1,.76-.57,1.19,1.19,0,0,1,1,.13,1.22,1.22,0,0,1,.58.76,1.28,1.28,0,0,1-.13,1,8.56,8.56,0,0,1-3,3A7.63,7.63,0,0,1,691.44,622.84Z"/><polygon class="cls-3" points="901.73 939.95 751.79 939.95 601.85 939.95 601.85 882.01 601.85 824.07 751.79 824.07 901.73 824.07 901.73 882.01 901.73 939.95"/><path class="cls-4" d="M901.73,863H601.85a1.2,1.2,0,0,1-.88-.36,1.24,1.24,0,0,1,0-1.77,1.21,1.21,0,0,1,.88-.37H901.73a1.25,1.25,0,0,1,.89.37,1.27,1.27,0,0,1,0,1.77A1.24,1.24,0,0,1,901.73,863Z"/><path class="cls-4" d="M901.73,902.86H601.85a1.21,1.21,0,0,1-.88-.37,1.25,1.25,0,0,1,.88-2.13H901.73a1.25,1.25,0,0,1,.89,2.13A1.25,1.25,0,0,1,901.73,902.86Z"/><path class="cls-5" d="M904.57,281.59H539.52l-.18-.18-.18-.19L427.64,170,316.13,58.81H700.29L802.43,170.2Zm-364-2.5H898.89L799,170.2,699.19,61.31h-377L431.37,170.2Z"/><path class="cls-5" d="M662.86,281.59a1.15,1.15,0,0,1-.48-.1,1.29,1.29,0,0,1-.42-.28L555.66,171.07,449.36,60.93a1.26,1.26,0,0,1,0-1.77,1.32,1.32,0,0,1,.89-.35,1.23,1.23,0,0,1,.87.39L557.46,169.33l106.3,110.14a1.26,1.26,0,0,1,0,1.77,1.36,1.36,0,0,1-.41.26A1.22,1.22,0,0,1,662.86,281.59Z"/><path class="cls-5" d="M786.38,281.59a1.12,1.12,0,0,1-.48-.1,1.19,1.19,0,0,1-.42-.28L679.18,171.07,572.88,60.93a1.26,1.26,0,0,1,0-1.77,1.32,1.32,0,0,1,.89-.35,1.25,1.25,0,0,1,.87.39L681,169.33l106.3,110.14a1.27,1.27,0,0,1,.35.89,1.31,1.31,0,0,1-.38.88,1.36,1.36,0,0,1-.41.26A1.25,1.25,0,0,1,786.38,281.59Z"/><path class="cls-5" d="M799.76,171.45H429.6a1.23,1.23,0,0,1-1.25-1.25A1.25,1.25,0,0,1,429.6,169H799.76A1.26,1.26,0,0,1,801,170.2a1.25,1.25,0,0,1-1.25,1.25Z"/><path class="cls-7" d="M331.39,170.05c12.39-12.61,15-22.19,11.86-25.28s-12.17.29-23.09,13.63c4.71-17.2,1.92-26.56-2.72-26.77s-11.14,8.73-13.88,28.13c-4.81-19.23-12.34-27.41-16.92-26.49s-6.22,10.93.74,28.07c-12.6-12.38-22.18-15-25.28-11.86s.3,12.17,13.63,23.09c-17.2-4.7-26.56-1.92-26.77,2.72s8.73,11.15,28.13,13.88c-19.23,4.82-27.4,12.34-26.48,16.93s10.93,6.21,28.07-.75c-12.38,12.61-15,22.19-11.86,25.28S279,230.34,289.91,217c-4.71,17.2-1.92,26.56,2.72,26.77s11.15-8.73,13.88-28.13c4.82,19.23,12.34,27.4,16.92,26.49s6.22-10.93-.74-28.07c12.6,12.38,22.18,15,25.28,11.86s-.3-12.17-13.63-23.09c17.2,4.7,26.56,1.92,26.77-2.73S352.38,189,333,186.23c19.23-4.82,27.4-12.35,26.48-16.93S348.53,163.09,331.39,170.05Z"/><path class="cls-3" d="M323.62,187.21a18.6,18.6,0,1,1-5.79-13A18.52,18.52,0,0,1,323.62,187.21Z"/><path class="cls-6" d="M586.35,777.46l27.48-.25L641.3,777a34.87,34.87,0,0,0,21.32-12.53,34.42,34.42,0,0,0,7.65-23.31c-.45-8.89-4.3-15.3-10.3-19.57s-14.15-6.39-23.18-6.68l-9,.24-9,.24c3.09,0,6.16.23,9.24.46a68.58,68.58,0,0,0,9.3.25,52.94,52.94,0,0,0,15-2.89,26.94,26.94,0,0,0,12.36-8.54,21.11,21.11,0,0,0,3.86-14.72,27,27,0,0,0-5.61-14.38c-4.69-5.84-11.48-9.17-18.84-10.95A78.53,78.53,0,0,0,621.76,663c-.14,0-1.21,0-2.25.11a5.75,5.75,0,0,0-2.06.31l-.22,0c-.11,0-.22,0-.23,0s4.12-1.13,9.46-3.36,11.88-5.7,16.63-10.8A32.43,32.43,0,0,0,650,637.49a20.91,20.91,0,0,0,0-14.13,19.4,19.4,0,0,0-5.53-7.58,25.94,25.94,0,0,0-4.87-3.25c-9.49-5.06-20.75-4.14-29.81-1.82a66.78,66.78,0,0,0-16.63,6.56c2-14.33.77-27.13-2.79-37s-9.44-16.76-16.72-19.3a21.2,21.2,0,0,0-10-.86,21.59,21.59,0,0,0-5.1,1.36c-7.11,3-12.59,10.13-15.59,20s-3.55,22.5-.79,36.39a94.31,94.31,0,0,0-20.51-3.07c-10-.29-21.08,1.47-27.09,9.24a19.31,19.31,0,0,0-1.48,2.21,22.59,22.59,0,0,0-1.25,2.61,26.86,26.86,0,0,0-1.35,7.41,21.24,21.24,0,0,0,.5,5.32c1.21,5.44,4.63,10.39,9.71,14.45a50.7,50.7,0,0,0,19.66,9.14c3.61.32,6.7.79,8.89,1.17s3.47.68,3.47.68c-2.18-.13-4.3-.36-6.36-.67s-4.06-.71-6-1.18c-7-.62-15.89-.72-24,1.3s-15.46,6.17-19.26,14a24.07,24.07,0,0,0-2.1,14.05,25.41,25.41,0,0,0,6,13A35.94,35.94,0,0,0,493,716.46a56.11,56.11,0,0,0,21.26,4.81h0l-9.58.26-9.58.25a30.28,30.28,0,0,0-20,8.31,28.76,28.76,0,0,0-9,19.56,29.27,29.27,0,0,0,30,30.67l22-.79,22-.8.29,80,.29,80h45.82c0-16.43-.06-48.53-.09-80.63S586.38,793.89,586.35,777.46Z"/><polygon class="cls-1" points="586.4 777.4 573.48 777.4 560.56 777.4 573.48 797.36 586.4 817.32 586.4 797.36 586.4 777.4"/><path class="cls-5" d="M617.45,664.88h-12a1.5,1.5,0,0,1-1.5-1.5,1.49,1.49,0,0,1,.44-1.06,1.46,1.46,0,0,1,1.06-.44h12a1.46,1.46,0,0,1,1.06.44,1.49,1.49,0,0,1,.44,1.06,1.5,1.5,0,0,1-1.5,1.5Z"/><path class="cls-5" d="M546.22,623.32a1.45,1.45,0,0,1-.55-.1,1.43,1.43,0,0,1-.49-.32l-2-2-2-2a1.49,1.49,0,0,1-.46-1.05,1.53,1.53,0,0,1,.42-1.07,1.5,1.5,0,0,1,1.06-.45,1.45,1.45,0,0,1,1.06.42l2,2,2,2a1.51,1.51,0,0,1,.46,1,1.47,1.47,0,0,1-.42,1.07,1.68,1.68,0,0,1-.5.35A1.66,1.66,0,0,1,546.22,623.32Z"/><path class="cls-5" d="M534.32,652.56a1.51,1.51,0,0,1-1.06-.44,1.49,1.49,0,0,1-.44-1.06v-6.29a1.49,1.49,0,0,1,.44-1.06,1.5,1.5,0,0,1,2.12,0,1.49,1.49,0,0,1,.44,1.06v6.29a1.49,1.49,0,0,1-.44,1.06A1.51,1.51,0,0,1,534.32,652.56Z"/><path class="cls-5" d="M608.23,686.15a1.5,1.5,0,0,1-1.5-1.5v-6.3a1.5,1.5,0,0,1,3,0v6.3a1.5,1.5,0,0,1-1.5,1.5Z"/><path class="cls-5" d="M550.38,720.48a1.5,1.5,0,0,1-1.5-1.5v-6.3a1.5,1.5,0,0,1,1.5-1.5,1.49,1.49,0,0,1,1.06.44,1.51,1.51,0,0,1,.44,1.06V719a1.51,1.51,0,0,1-.44,1.06A1.49,1.49,0,0,1,550.38,720.48Z"/><path class="cls-5" d="M523.26,722.59H503.13a1.49,1.49,0,0,1-1.06-.44,1.51,1.51,0,0,1-.44-1.06,1.5,1.5,0,0,1,1.5-1.5h20.13a1.49,1.49,0,0,1,1.06.44,1.45,1.45,0,0,1,.44,1.06,1.46,1.46,0,0,1-.44,1.06A1.49,1.49,0,0,1,523.26,722.59Z"/><path class="cls-7" d="M567.83,737.16a17.45,17.45,0,1,1-5.11-12.34A17.37,17.37,0,0,1,567.83,737.16Z"/><path class="cls-7" d="M625.68,702.1a17.45,17.45,0,1,1-5.11-12.34A17.39,17.39,0,0,1,625.68,702.1Z"/><path class="cls-7" d="M551.77,668.51a17.45,17.45,0,1,1-5.11-12.34A17.37,17.37,0,0,1,551.77,668.51Z"/><path class="cls-9" d="M461.9,939.94a29.28,29.28,0,0,1-14.33-15.1,26.32,26.32,0,0,1-.45-19.62,26,26,0,0,1,10.63-12.58,29.16,29.16,0,0,1,16.74-4.28A55.62,55.62,0,0,1,470,863.78c.38-8.48,2.82-16.64,7.77-22.58A39.85,39.85,0,0,1,499.81,828a45.38,45.38,0,0,1,13.4-1.08,56,56,0,0,1,25.8,8.58,42,42,0,0,1,16.2,19,69.24,69.24,0,0,1,4.09,15c.8,4.94,1,9.37.58,11.94A41.82,41.82,0,0,1,589.3,877a38.25,38.25,0,0,1,23.58,15.65,37.85,37.85,0,0,1,6.3,23.53,41.69,41.69,0,0,1-9.2,23.69l-74,.06Z"/><path class="cls-9" d="M127.89,940a29.24,29.24,0,0,1-14.34-15.09,26.35,26.35,0,0,1-.44-19.63,25.93,25.93,0,0,1,10.63-12.57,29.14,29.14,0,0,1,16.74-4.29A55.61,55.61,0,0,1,136,863.82c.39-8.49,2.82-16.64,7.78-22.58A39.73,39.73,0,0,1,165.8,828a44.57,44.57,0,0,1,13.39-1.08A56,56,0,0,1,205,835.5a42,42,0,0,1,16.2,19,69.58,69.58,0,0,1,4.1,15c.8,4.94,1,9.37.58,12a41.75,41.75,0,0,1,29.42-4.4,37.21,37.21,0,0,1,29.87,39.19,41.67,41.67,0,0,1-9.2,23.69l-74,0Z"/><path class="cls-2" d="M451.44,460.18h-6.37a69.31,69.31,0,0,1-69.32-69.32v-3.18h145v3.18a69.33,69.33,0,0,1-69.32,69.32Z"/><path class="cls-9" d="M409.26,693c3.09.05,12.11-.35,20-5.85s14.56-16.09,13-36.44a82.46,82.46,0,0,0-1.51-10.5,93.39,93.39,0,0,0-2.8-10.24l-7.14-21.44-7.14-21.43a71.9,71.9,0,0,0-6.28-13.83,65.62,65.62,0,0,0-9.16-12.1,56.52,56.52,0,0,0-17.92-12.81,49.49,49.49,0,0,0-26.23-3.7,54.46,54.46,0,0,0-6.72,1.25,64.76,64.76,0,0,0-6.52,2l-20.43,7.5L310,563a43.25,43.25,0,0,0-8.19,4,39,39,0,0,0-7.06,5.76,32.84,32.84,0,0,0-6.92,10.55,28.47,28.47,0,0,0-1.63,15,29.58,29.58,0,0,0,.65,3.08c.27,1,.58,2,.93,3l15.66,44.32L319.05,693h39.06l23.47,0,23.48,0h2.1Z"/><path class="cls-5" d="M540,941.19a1.25,1.25,0,0,1-.89-.37,1.27,1.27,0,0,1-.36-.88V281.62H99.52a1.25,1.25,0,1,1,0-2.5H541.29V939.94a1.24,1.24,0,0,1-.37.88A1.22,1.22,0,0,1,540,941.19Z"/><path class="cls-3" d="M328.54,861.23v48.7a9.6,9.6,0,0,1-.94,4.14,8.35,8.35,0,0,1-2.61,3.15l-13.23,9.66-13.23,9.67a1.83,1.83,0,0,0-.66,2,1.6,1.6,0,0,0,1.54,1.27h89.43a5.82,5.82,0,0,0,4.35-2A7.2,7.2,0,0,0,395,933V861.23H328.54Z"/><path class="cls-10" d="M355.75,538.76a28.47,28.47,0,1,1-8.34-20.13A28.41,28.41,0,0,1,355.75,538.76Z"/><path class="cls-4" d="M317,526.26a17.69,17.69,0,1,1-5.18-12.48A17.58,17.58,0,0,1,317,526.26Z"/><path class="cls-5" d="M320.77,683.12h-.15l-.16,0a1.2,1.2,0,0,1-.76-.57,1.24,1.24,0,0,1-.14-1,79.84,79.84,0,0,0,2.26-23.5c-.6-10.64-3.62-23-12.31-34a54.47,54.47,0,0,0-8.3-8.4A59.5,59.5,0,0,0,291.08,609a1.25,1.25,0,0,1,.2-2.3,1.29,1.29,0,0,1,1,.09,61.35,61.35,0,0,1,10.56,6.94,57.11,57.11,0,0,1,8.67,8.78c9,11.4,12.2,24.25,12.83,35.29A82.12,82.12,0,0,1,322,682.18a1.22,1.22,0,0,1-.45.69A1.26,1.26,0,0,1,320.77,683.12Z"/><path class="cls-4" d="M322.91,520.46a28.67,28.67,0,0,0,4,7.4,23.19,23.19,0,0,0,12.94,9,22.79,22.79,0,0,0,9.86.28,24.89,24.89,0,0,0,5.85-1.86,28.47,28.47,0,0,0-56.73,3.44,26.86,26.86,0,0,0,.14,2.71c.08.9.21,1.78.37,2.64a27,27,0,0,0,23.6-23.65Z"/><path class="cls-2" d="M256.51,611.53l16.19-4.92,16.19-4.92q9.72,21.93,19.43,43.86l19.43,43.86-27.85,9-27.85,9-27.3-32.44-27.3-32.43,3.05-4.18,3.05-4.17,21,13.91,21,13.91-4.55-25.21Z"/><path class="cls-1" d="M310.45,546.87a1.93,1.93,0,0,1,.83,1.22,1.91,1.91,0,0,1-.27,1.46,1.94,1.94,0,0,1-1.22.83,1.94,1.94,0,0,1-2.29-1.5,1.94,1.94,0,0,1,.28-1.45,1.91,1.91,0,0,1,1.22-.83A1.93,1.93,0,0,1,310.45,546.87Z"/><path class="cls-1" d="M322,540.38a1.91,1.91,0,0,1,.83,1.22,1.93,1.93,0,1,1-3.78.79,1.92,1.92,0,0,1,1.5-2.29A1.9,1.9,0,0,1,322,540.38Z"/><path class="cls-4" d="M318,558.86a9.59,9.59,0,0,1-1.12-.06c-.34,0-.64-.09-.89-.14a1.26,1.26,0,0,1-1-1.48,1.27,1.27,0,0,1,.55-.79,1.22,1.22,0,0,1,.94-.18,7.24,7.24,0,0,0,1.95.14,6.58,6.58,0,0,0,2.67-.74,6.65,6.65,0,0,0,2.86-2.89,8,8,0,0,0,.79-2.22,1.25,1.25,0,0,1,1.45-1,1.29,1.29,0,0,1,.81.52,1.25,1.25,0,0,1,.2.93,10.51,10.51,0,0,1-1.06,3,9.11,9.11,0,0,1-6.15,4.73A9.4,9.4,0,0,1,318,558.86Z"/><path class="cls-10" d="M349.57,633.13a30.17,30.17,0,0,0-4.94-2.19c-2.54-1-5.2-2-5.68-2.26-1.78-.83-3.53-1.7-5.27-2.6s-3.45-1.86-5.14-2.85-3.16-1.92-4.69-2.93-3.06-2.06-4.56-3.13c-1.21-.87-3-2.64-5-4s-4-2.21-5.7-1.31c-1.22.65-1.48,2-1.29,3.34a8.77,8.77,0,0,0,1.47,3.63l4.22,6.34,4.23,6.34-9.17,5.72L298.9,643a7.19,7.19,0,0,0-2.53,3,6.77,6.77,0,0,0-.7,3.81v.12a5.6,5.6,0,0,0,1.07,2.41,6.37,6.37,0,0,0,1.13,1.13,6.64,6.64,0,0,0-.65,1.73,6.29,6.29,0,0,0,3,6.87,6.49,6.49,0,0,0-.29,1.72,6.34,6.34,0,0,0,.6,3,6.23,6.23,0,0,0,2.81,2.83,7.16,7.16,0,0,0,2,.71,10.24,10.24,0,0,0,.66,1.19,12,12,0,0,0,.9,1.23,10.84,10.84,0,0,0,2.51,2.15,12.76,12.76,0,0,0,2.63,1.25,13.65,13.65,0,0,0,2.6.61,15.88,15.88,0,0,0,2.67.13l14.54-.45,14.55-.46L348,654.51Z"/><path class="cls-4" d="M297.89,654.67a1.25,1.25,0,0,1-.79-.28,1.19,1.19,0,0,1-.43-.73,1.27,1.27,0,0,1,.18-.94,1.24,1.24,0,0,1,.8-.52l5.67-1.12L309,650a1.23,1.23,0,0,1,.94.19,1.25,1.25,0,0,1,.53.8,1.25,1.25,0,0,1-1,1.46l-5.67,1.12-5.67,1.11-.12,0Z"/><path class="cls-4" d="M301,663.2a1.26,1.26,0,0,1-1.22-1,1.22,1.22,0,0,1,.19-.94,1.21,1.21,0,0,1,.79-.53l5.67-1.11,5.67-1.12a1.31,1.31,0,0,1,.94.19,1.21,1.21,0,0,1,.53.8,1.23,1.23,0,0,1-.19.94,1.29,1.29,0,0,1-.79.53l-5.67,1.11-5.68,1.11-.12,0Z"/><path class="cls-3" d="M344.66,861.34V910a9.54,9.54,0,0,1-1,4.15,8.48,8.48,0,0,1-2.6,3.15L327.88,927l-13.24,9.66a1.86,1.86,0,0,0-.65,2,1.61,1.61,0,0,0,1.54,1.28H405a5.83,5.83,0,0,0,4.35-2,7.16,7.16,0,0,0,1.81-4.83V861.34H344.66Z"/><polygon class="cls-5" points="319.05 693.04 323.94 777.13 328.83 861.23 369.97 861.23 411.12 861.23 411.12 777.13 411.12 693.04 365.08 693.04 319.05 693.04"/><path class="cls-4" d="M305.77,671.72a1.23,1.23,0,0,1-.79-.28,1.25,1.25,0,0,1-.44-.73,1.25,1.25,0,0,1,1-1.47l4.25-.83,4.25-.83a1.21,1.21,0,0,1,.93.19,1.17,1.17,0,0,1,.53.79,1.26,1.26,0,0,1-1,1.47l-4.25.83-4.25.84h-.24Z"/><path class="cls-8" d="M344.66,862.59a1.27,1.27,0,0,1-.88-.35,1.24,1.24,0,0,1-.37-.87L341.72,790,340,718.6a1.27,1.27,0,0,1,.35-.89,1.22,1.22,0,0,1,.87-.39,1.33,1.33,0,0,1,.9.36,1.15,1.15,0,0,1,.38.86l1.69,71.39,1.69,71.39a1.29,1.29,0,0,1-.35.89,1.21,1.21,0,0,1-.87.38h0Z"/><path class="cls-5" d="M272.05,708.6a1.25,1.25,0,0,1-.82-.3,1.23,1.23,0,0,1-.42-.77l-3.21-22.71-3.21-22.7a1.22,1.22,0,0,1,.24-.93,1.26,1.26,0,0,1,.82-.48,1.22,1.22,0,0,1,.93.24,1.26,1.26,0,0,1,.48.82l3.21,22.7,3.21,22.71a1.22,1.22,0,0,1-.23.92,1.28,1.28,0,0,1-.83.49h-.17Z"/><path class="cls-5" d="M269.52,617.29a22.27,22.27,0,0,1-8.55-1.75,21.4,21.4,0,0,1-4.32-2.36,1.24,1.24,0,0,1-.5-.81,1.25,1.25,0,0,1,.22-.93,1.24,1.24,0,0,1,.82-.5,1.26,1.26,0,0,1,.93.22,20.26,20.26,0,0,0,5.34,2.62,18.64,18.64,0,0,0,20.78-6.21,20.19,20.19,0,0,0,3.05-5.16,1.26,1.26,0,0,1,.66-.7,1.25,1.25,0,0,1,.95,0,1.26,1.26,0,0,1,.73,1.62,22.7,22.7,0,0,1-3.62,6.1,21.29,21.29,0,0,1-10.49,7,20.5,20.5,0,0,1-3.09.68A20.94,20.94,0,0,1,269.52,617.29Z"/><path class="cls-8" d="M315.53,941.19h-.06a3.39,3.39,0,0,1-1-.22,2.81,2.81,0,0,1-1.32-1,2.72,2.72,0,0,1-.51-1.34,3.38,3.38,0,0,1,.21-1.51,3.08,3.08,0,0,1,.77-1.21,3.52,3.52,0,0,1,.8-.61l12.34-9,12.35-9a10.11,10.11,0,0,0,2.72-2.32,4.46,4.46,0,0,0,.67-1.09l.07-.14.07-.14a7.2,7.2,0,0,0,.67-2.75,26.24,26.24,0,0,0,.11-3.48v-46a1.27,1.27,0,0,1,.36-.88,1.26,1.26,0,0,1,2.14.88v46a31.89,31.89,0,0,1-.07,3.3,10.7,10.7,0,0,1-1,4.23,7.13,7.13,0,0,1-1.12,1.8,12.64,12.64,0,0,1-3.24,2.75l-12.4,9-12.4,9a1.06,1.06,0,0,0-.22.15.79.79,0,0,0-.23.34,1,1,0,0,0-.07.27.38.38,0,0,0,.06.28.47.47,0,0,0,.24.16l.16,0a1.25,1.25,0,0,1,.87.4,1.27,1.27,0,0,1,.32.91,1.22,1.22,0,0,1-.38.84A1.24,1.24,0,0,1,315.53,941.19Z"/><path class="cls-8" d="M388.58,640.59,369,637.48l-19.6-3.12a1.24,1.24,0,0,1-.82-.5,1.21,1.21,0,0,1-.22-.93,1.24,1.24,0,0,1,.5-.82,1.3,1.3,0,0,1,.93-.22l17.38,2.77,17.39,2.76-5.33-12.7L373.87,612a1.28,1.28,0,0,1,0-1,1.21,1.21,0,0,1,.67-.68,1.23,1.23,0,0,1,1,0,1.27,1.27,0,0,1,.68.67l6.2,14.77Z"/><path class="cls-8" d="M400.29,694l-.19,0a.72.72,0,0,1-.19,0L373,685.5,346,677.08a1.2,1.2,0,0,1-.73-.61,1.24,1.24,0,0,1-.09-1,1.22,1.22,0,0,1,.62-.73,1.24,1.24,0,0,1,.95-.09l26.94,8.41,26.94,8.42a1.21,1.21,0,0,1,.73.61,1.24,1.24,0,0,1,.09,1,1.21,1.21,0,0,1-.46.64A1.27,1.27,0,0,1,400.29,694Z"/><path class="cls-6" d="M480.29,384.75a14.87,14.87,0,0,0-.51-4.43,15.6,15.6,0,0,0-1.94-4.35,13.11,13.11,0,0,0-6.91-5.29,12.37,12.37,0,0,0-8.68.26c-5.62,2.38-7.43,7.84-7.38,13.75a45.32,45.32,0,0,0,3.76,16.46l.27.61c.1.21.19.41.29.61.2.4,1.11,2.24,2,3.94s1.79,3.29,2,3.18a51.6,51.6,0,0,0,11.21-10.55C477.69,394.62,480.13,389.7,480.29,384.75Z"/><path class="cls-6" d="M478.6,435.77a15,15,0,0,0-2.06-3.95,15.6,15.6,0,0,0-3.37-3.37,13.12,13.12,0,0,0-8.35-2.47,12.37,12.37,0,0,0-8,3.35c-4.39,4.23-4.13,10-2,15.48a45.43,45.43,0,0,0,9.41,14c.15.16.31.31.47.47l.49.47c.32.3,1.83,1.68,3.28,3s2.85,2.42,3,2.26a51.06,51.06,0,0,0,6.7-13.86C479.7,445.92,480.22,440.45,478.6,435.77Z"/><path class="cls-6" d="M459.57,410a15.06,15.06,0,0,0-.82-4.37,15.33,15.33,0,0,0-2.25-4.2,13.07,13.07,0,0,0-7.26-4.79,12.28,12.28,0,0,0-8.64.87c-5.44,2.77-6.86,8.34-6.39,14.24a45.18,45.18,0,0,0,4.92,16.15l.31.59.33.59c.23.38,1.26,2.15,2.28,3.79s2,3.15,2.18,3a51.07,51.07,0,0,0,10.44-11.32C457.68,420.08,459.76,415,459.57,410Z"/><path class="cls-6" d="M488.48,341.38a15.46,15.46,0,0,0-.81-4.38,15.76,15.76,0,0,0-2.25-4.2,13.09,13.09,0,0,0-7.27-4.79,12.34,12.34,0,0,0-8.64.87c-5.43,2.77-6.85,8.35-6.39,14.24A45.39,45.39,0,0,0,468,359.27c.1.2.21.4.32.6s.21.39.33.58c.22.38,1.26,2.15,2.28,3.79s2,3.15,2.17,3A51.07,51.07,0,0,0,483.58,356C486.59,351.41,488.68,346.33,488.48,341.38Z"/><path class="cls-6" d="M462.86,326.57a14.85,14.85,0,0,0,1.58-4.15,15.52,15.52,0,0,0,.28-4.76,13,13,0,0,0-3.7-7.88A12.3,12.3,0,0,0,453.2,306c-6.08-.47-10.2,3.54-12.88,8.81a45.36,45.36,0,0,0-4.24,16.34c0,.22,0,.45,0,.67l0,.67c0,.45,0,2.5,0,4.43s.08,3.74.27,3.72a51.19,51.19,0,0,0,14.81-4.21C456,334.14,460.43,330.9,462.86,326.57Z"/><path class="cls-6" d="M434,397.41a14.87,14.87,0,0,0,1.59-4.15,15.52,15.52,0,0,0,.28-4.76,13.1,13.1,0,0,0-3.7-7.88,12.32,12.32,0,0,0-7.82-3.77c-6.08-.47-10.21,3.54-12.89,8.81A45.36,45.36,0,0,0,407.26,402c0,.22,0,.45,0,.67s0,.45,0,.67c0,.45-.05,2.5,0,4.43s.08,3.74.27,3.72a51.36,51.36,0,0,0,14.81-4.21C427.19,405,431.62,401.74,434,397.41Z"/><path class="cls-6" d="M431.29,337.47a15.1,15.1,0,0,0-2.16-3.9,15.48,15.48,0,0,0-3.45-3.28,13.13,13.13,0,0,0-8.41-2.26,12.3,12.3,0,0,0-7.92,3.54c-4.29,4.34-3.89,10.08-1.6,15.52a45.47,45.47,0,0,0,9.75,13.79l.49.47.49.45c.34.29,1.88,1.64,3.36,2.88s2.91,2.36,3,2.19a51.35,51.35,0,0,0,6.35-14C432.64,347.59,433,342.11,431.29,337.47Z"/><path class="cls-5" d="M497.93,309.34a17.63,17.63,0,0,0-3.57-3.86,18.28,18.28,0,0,0-4.89-2.78,15.5,15.5,0,0,0-10.28-.22,14.57,14.57,0,0,0-8.08,6.32c-3.69,6.19-1.6,12.65,2.57,18.25a53.66,53.66,0,0,0,15.09,13.05l.69.39c.23.13.46.26.7.38.46.24,2.61,1.35,4.66,2.35s4,1.88,4.09,1.66a60.54,60.54,0,0,0,3.3-17.89C502.36,320.56,501.24,314.17,497.93,309.34Z"/><path class="cls-5" d="M412.47,367.73a15,15,0,0,0-1-4.35,15.58,15.58,0,0,0-2.39-4.11,13.08,13.08,0,0,0-7.43-4.54,12.34,12.34,0,0,0-8.6,1.18c-5.34,3-6.56,8.58-5.89,14.45a45.46,45.46,0,0,0,5.48,16c.11.2.22.39.34.58l.35.58c.24.37,1.33,2.1,2.41,3.7s2.13,3.08,2.28,2.95a50.82,50.82,0,0,0,10-11.67C410.93,377.82,412.84,372.67,412.47,367.73Z"/><path class="cls-6" d="M504.8,368.08a15.19,15.19,0,0,0-2.18-3.88,15.58,15.58,0,0,0-3.49-3.25,13.07,13.07,0,0,0-8.42-2.2,12.31,12.31,0,0,0-7.9,3.61c-4.25,4.37-3.8,10.1-1.46,15.53a45.27,45.27,0,0,0,9.85,13.71l.49.46.5.45c.34.29,1.89,1.63,3.38,2.85s2.93,2.34,3,2.17a51.13,51.13,0,0,0,6.23-14.07C506.23,378.19,506.57,372.71,504.8,368.08Z"/><path class="cls-5" d="M498.12,406.06a14.93,14.93,0,0,0-2.19-3.88,15.31,15.31,0,0,0-3.48-3.25,13,13,0,0,0-8.42-2.2,12.31,12.31,0,0,0-7.9,3.61c-4.25,4.37-3.8,10.1-1.47,15.53a45.29,45.29,0,0,0,9.86,13.71l.49.46.5.45c.34.29,1.89,1.63,3.38,2.85s2.93,2.34,3,2.17a51.13,51.13,0,0,0,6.23-14.07C499.55,416.17,499.89,410.69,498.12,406.06Z"/><path class="cls-5" d="M459.94,357.77a15,15,0,0,0-1.15-4.3,15.55,15.55,0,0,0-2.56-4,13.15,13.15,0,0,0-7.61-4.23,12.33,12.33,0,0,0-8.54,1.53c-5.21,3.18-6.21,8.84-5.3,14.68a45.21,45.21,0,0,0,6.13,15.73l.36.57c.12.19.24.38.37.56.25.37,1.42,2,2.56,3.61s2.26,3,2.4,2.85a51.21,51.21,0,0,0,9.55-12.07C458.81,367.92,460.5,362.7,459.94,357.77Z"/></svg>