<svg id="Layer_1" data-name="Layer 1" xmlns="http://www.w3.org/2000/svg" viewBox="0 0 1000 1000"><defs><style>.cls-1{fill:#666538;}.cls-2{fill:#353519;}.cls-3{fill:#bab653;}.cls-4{fill:#deb8fc;}.cls-5{fill:#f98638;}.cls-6{fill:#f4ece5;}.cls-7{fill:#e9cf81;}.cls-8{fill:#e2b2ff;}.cls-9{fill:#ad4d4d;}</style></defs><path class="cls-1" d="M139.65,467.6a1.18,1.18,0,0,1-.58-.14,1.2,1.2,0,0,1-.46-.41,207.66,207.66,0,0,1-25.3-53.92,200.7,200.7,0,0,1,29.61-177.38,207.32,207.32,0,0,1,41-42.47,1.27,1.27,0,0,1,.93-.25,1.24,1.24,0,0,1,1.07,1.4,1.21,1.21,0,0,1-.48.83,205.09,205.09,0,0,0-40.52,42,198.17,198.17,0,0,0-29.25,175.2,205.32,205.32,0,0,0,25,53.25,1.27,1.27,0,0,1,.19.94,1.22,1.22,0,0,1-.53.79,1,1,0,0,1-.34.16A1.12,1.12,0,0,1,139.65,467.6Z"/><path class="cls-2" d="M162.23,945.09q105.93-.86,211.86-.85t211.86.85q57.62.45,115.21,1.16t115.2,1.67a1424.9,1424.9,0,0,0-13.91-148.75,1396,1396,0,0,0-38.79-180.31c-10.21-35.72-41.13-144-84.79-244.19s-100-192.22-161.13-195.44c-34.13-1.79-80.61,23.55-139.76,132.41S247,612.86,162.23,945.09Z"/><path class="cls-3" d="M145.87,523.22l-.12,0-.12,0c-2.94,11.65-7,23-11.14,34.28S126.16,580,123,591.62a138.23,138.23,0,0,0-5.42,35.83c-.07,12,1.95,23.89,7.07,34.77a66.66,66.66,0,0,0,9.32,14.52,70.19,70.19,0,0,0,12.65,11.76c4.26,3.07,9.58,5.22,14.58,7.74s9.65,5.42,12.59,10c9.21,14.41,3.75,27.24-5.52,39.15s-22.35,22.9-28.39,33.65c-4.55,8.1-7,17.39-8,26.9a144.85,144.85,0,0,0,0,28.24,206.93,206.93,0,0,0,3.67,24.38c1.69,8.06,3.79,16,6.15,23.89.44,1.48,1.56,5.21,3.31,10.48s4.16,12.07,7.18,19.67,6.48,15.58,9.25,21.83,4.81,10.65,4.81,10.65h0l13.88,0,13.88,0h0s-8-14.87-16.65-36-18-48.58-20.82-73.68a70.18,70.18,0,0,1,2.72-28.52,66.12,66.12,0,0,1,13.65-24.4c8.45-9.5,17.34-20.12,23.54-31.74s9.7-24.27,7.39-37.81a54.7,54.7,0,0,0-21-34.29c-4.51-3.36-9.55-6-14.44-8.86s-9.61-5.86-13.49-9.93A39.73,39.73,0,0,1,147.16,648a54.6,54.6,0,0,1-3.75-13.63,82.22,82.22,0,0,1,.92-27A169,169,0,0,1,151.89,581c3.11-8.57,6.56-17.05,9.64-25.63a160,160,0,0,0,7.35-26.24l-11.5-3Z"/><path class="cls-2" d="M140.15,540.94l6.95,17.11,7,17.1s2.71-6.93,5.49-14.37,5.65-15.4,6-17.46l-5.31-9.77-5.31-9.78-7.36,8.59Z"/><path class="cls-4" d="M121.93,469a25.7,25.7,0,0,0-14,3.32,23.53,23.53,0,0,0-9.59,10.18,25.41,25.41,0,0,0-2.16,14.71,19.92,19.92,0,0,0,7.51,13.08,20.25,20.25,0,0,0,10.51,4,24.28,24.28,0,0,0,11.71-2,23.19,23.19,0,0,0-11.63,11.31,22.26,22.26,0,0,0-1.32,15.83,22.63,22.63,0,0,0,9.65,12.66,21.28,21.28,0,0,0,15.21,3.12,21,21,0,0,0,12.19-7.4,26.79,26.79,0,0,0,4.08-6.51,30.34,30.34,0,0,0,3.72,7.9,25,25,0,0,0,12.63,10.14,26.26,26.26,0,0,0,15.91.29,22.62,22.62,0,0,0,12.84-9.36,22.24,22.24,0,0,0,3.36-11.06,27.41,27.41,0,0,0-.63-7,34.09,34.09,0,0,0,14.1,10,25.76,25.76,0,0,0,15.76.83,27.27,27.27,0,0,0,7.1-3.1,20.19,20.19,0,0,0,8.46-10.12,20.81,20.81,0,0,0,0-14,25.28,25.28,0,0,0-3.34-6.63,24.22,24.22,0,0,0,17.12-.95,21.79,21.79,0,0,0,11.39-11.47,20.91,20.91,0,0,0,.06-15.29,25.44,25.44,0,0,0-8.85-11.71,23.21,23.21,0,0,0-9.41-3.92,26,26,0,0,0-6.48-.35,30.25,30.25,0,0,0,5.64-5.29,22.13,22.13,0,0,0,4.92-10.63c1-6.78-1.48-13.85-6-19.36s-11.18-9.43-18.36-9.91a24.77,24.77,0,0,0-15.16,4.26,33,33,0,0,0-6.83,5.92,35.37,35.37,0,0,0-.47-9,24.68,24.68,0,0,0-5.8-12.18c-5.65-6.21-14.72-9-23.63-8.38s-17.66,4.46-22.66,11.51A26.09,26.09,0,0,0,154.87,427a36.74,36.74,0,0,0,1,9.6,30,30,0,0,0-12.14-9.49,24.92,24.92,0,0,0-14.47-1.61,27.25,27.25,0,0,0-16.35,10.74c-3.89,5.34-5.76,11.88-4.26,18a20.46,20.46,0,0,0,6.77,10.54A29.53,29.53,0,0,0,121.93,469Z"/><path class="cls-5" d="M166.47,467.73a27.37,27.37,0,0,0-12.06-1,14.17,14.17,0,0,0-10,6.37c-3.35,5.22-2.48,11,.64,15.34a16.13,16.13,0,0,0,14.16,6.8c-.29,0-.75.66-1.16,1.35s-.8,1.41-.92,1.62a13.76,13.76,0,0,0-1.43,11.15,13.08,13.08,0,0,0,7.63,8.19c3.64,1.51,7.86.88,11.59-.91a19.67,19.67,0,0,0,8.68-8,41.18,41.18,0,0,0,2.2-5.38c.62-1.8,1.06-3.25,1.06-3.25,3.47,4.06,5.58,6.33,6.83,7.58a12.87,12.87,0,0,0,1.62,1.49,19.41,19.41,0,0,0,4.88,2.09,15.92,15.92,0,0,0,10-.27,14.76,14.76,0,0,0,2.4-1.17,14.57,14.57,0,0,0,2.24-1.66,16.15,16.15,0,0,0,5.14-9.57,12.48,12.48,0,0,0-2.75-10.32,26.44,26.44,0,0,0-3.49-3.08c-1.2-.9-2.16-1.56-2.16-1.56l1.39-.68,1.23-.62a15.31,15.31,0,0,0,7.55-9.15,15.06,15.06,0,0,0-1.11-11.91,13.67,13.67,0,0,0-12.2-6.92,17.45,17.45,0,0,0-13.13,5.88,16.59,16.59,0,0,0,0-2.5,15.38,15.38,0,0,0-.55-3.23,16,16,0,0,0-5-7.73,18.19,18.19,0,0,0-4.08-2.74,18.86,18.86,0,0,0-9.32-1.66,14.25,14.25,0,0,0-9.14,4,14.75,14.75,0,0,0-3.93,7.78,16.79,16.79,0,0,0-.25,4.55,14.23,14.23,0,0,0,.52,2.63,16.4,16.4,0,0,0,.73,2c.14.38.49,1.44.9,2.44S166.07,467.62,166.47,467.73Z"/><path class="cls-2" d="M162.7,945.09c-.76-6.58-4.06-39.35,4.25-81.32s28.2-93.12,73.82-136.45a262.15,262.15,0,0,1,109.16-62c40.67-11.42,84.12-12.76,125.84-1.49,56,15.13,104.4,51.77,137.92,101.46s52.22,112.44,48.92,179.77H162.7Z"/><path class="cls-1" d="M162.47,945.09H816.36a261.78,261.78,0,0,0,10-63.28c.89-28.23-2.94-61.95-18.29-96.13-22.67-50.48-65.14-90.1-115.76-113.55s-109.4-30.74-164.67-16.57c-58.25,14.94-99.07,50.24-126,83.48s-40,64.44-42.7,71.17q-29.27-97.83-55.16-146t-48.46-46.63q-28.6,1.93-51.81,83.8T162.47,945.09Z"/><path class="cls-5" d="M489.25,765.9l-24,89.33-24,89.32H550.52l-24-89.32-24-89.33a6.9,6.9,0,0,0-13.32,0Z"/><path class="cls-5" d="M256.91,865.87l-10.63,39.61-10.63,39.61H285.9l-10.63-39.61-10.63-39.61a4,4,0,0,0-7.73,0Z"/><polygon class="cls-6" points="336.53 945.09 306.59 945.09 276.65 945.09 288.84 666.39 301.03 387.69 306.59 387.69 312.15 387.69 324.34 666.39 336.53 945.09"/><polygon class="cls-6" points="585.95 945.09 558.37 945.09 530.8 945.09 541.74 751.17 552.67 557.26 558.23 557.26 563.79 557.26 574.87 751.17 585.95 945.09"/><path class="cls-1" d="M683.91,479.64a1.26,1.26,0,0,1-1.19-.88,136.29,136.29,0,0,0-17.57-35.84,129.18,129.18,0,0,0-112.51-56.33,137.76,137.76,0,0,0-40.42,7.6,1.25,1.25,0,0,1-1.56-1.71,1.25,1.25,0,0,1,.71-.64,140.37,140.37,0,0,1,41.18-7.74,131.62,131.62,0,0,1,114.66,57.4A138.82,138.82,0,0,1,685.11,478a1.25,1.25,0,0,1-.82,1.56l-.19.05Z"/><path class="cls-7" d="M331.52,945.09c-10.26-16.49-13.42-34-10.77-49.54s11.11-29,24.12-37.56a74.86,74.86,0,0,1,32.92-11.1c12.61-1.19,26,.79,37.51,8a48.14,48.14,0,0,1,19.93,24.67,52.9,52.9,0,0,1,3.3,16.61,43.18,43.18,0,0,1,28.05,1.73c8.07,3.45,14.24,9.33,16.62,16.36a22.91,22.91,0,0,1-1,16.51,33.33,33.33,0,0,1-12.41,14.35H331.52Z"/><path class="cls-1" d="M734.08,946.21a1.24,1.24,0,0,1-.27,0,1.14,1.14,0,0,1-.26-.09,1.25,1.25,0,0,1-.65-.71,1.28,1.28,0,0,1,.05-1L812.3,776.79l79.34-167.64a1.27,1.27,0,0,1,.71-.64,1.24,1.24,0,0,1,1,0,1.27,1.27,0,0,1,.64.71,1.21,1.21,0,0,1-.05,1L814.56,777.86,735.21,945.5a1.25,1.25,0,0,1-.47.52A1.3,1.3,0,0,1,734.08,946.21Z"/><path class="cls-1" d="M734.08,946.21h-.24a1.25,1.25,0,0,1-1-1.47l47.26-240,47.25-240a1.25,1.25,0,0,1,.53-.8,1.26,1.26,0,0,1,.94-.18,1.17,1.17,0,0,1,.79.53,1.21,1.21,0,0,1,.19.93l-47.25,240-47.25,240a1.25,1.25,0,0,1-1.23,1Z"/><path class="cls-6" d="M937.57,388.92A85.66,85.66,0,1,1,910.88,329,85.37,85.37,0,0,1,937.57,388.92Z"/><path class="cls-6" d="M961.56,592.52a52.56,52.56,0,1,1-16.38-36.74A52.45,52.45,0,0,1,961.56,592.52Z"/><path class="cls-8" d="M915.12,388.67a20.77,20.77,0,0,1-12.6-4.46,23.31,23.31,0,0,1-8-11.55,27,27,0,0,1-14.71,3.17,22,22,0,0,1-13.05-5.39,21.53,21.53,0,0,1-6.22-10.06,26.57,26.57,0,0,1-1.1-7.41,1.24,1.24,0,0,1,.37-.88,1.27,1.27,0,0,1,.88-.36h0a1.24,1.24,0,0,1,.88.37,1.21,1.21,0,0,1,.36.88,24.33,24.33,0,0,0,1,6.64,19.18,19.18,0,0,0,5.51,9,19.72,19.72,0,0,0,12.37,4.81,24.67,24.67,0,0,0,13.87-3.69l.74-.46.75-.45.19.85.19.85a20.73,20.73,0,0,0,8.32,12.36,17.42,17.42,0,0,0,13.72,2.94,17.1,17.1,0,0,0,9.41-6,20.47,20.47,0,0,0,4.5-10.95A1.23,1.23,0,0,1,933,368a1.26,1.26,0,0,1,1.76.18,1.26,1.26,0,0,1,.28.91,23,23,0,0,1-5.12,12.36,19.61,19.61,0,0,1-10.74,6.74,18.57,18.57,0,0,1-4,.44Z"/><path class="cls-8" d="M806.11,428.44a11.64,11.64,0,0,1-6.07-1.78,14.15,14.15,0,0,1-3.08-2.54,1.25,1.25,0,0,1-.31-.91,1.19,1.19,0,0,1,.41-.86,1.23,1.23,0,0,1,.9-.31,1.21,1.21,0,0,1,.87.41,11.31,11.31,0,0,0,2.47,2.05,9.12,9.12,0,0,0,4.81,1.44h0a9.43,9.43,0,0,0,6-2.28,12,12,0,0,0,3.78-5.83l.25-.83.24-.84.71.5.72.51a10,10,0,0,0,6.92,1.74,8.31,8.31,0,0,0,5.81-3.33,8.13,8.13,0,0,0,1.42-5.12,9.82,9.82,0,0,0-1.92-5.33,1.22,1.22,0,0,1-.23-.93,1.27,1.27,0,0,1,.49-.82,1.31,1.31,0,0,1,.93-.23,1.26,1.26,0,0,1,.82.5,12.3,12.3,0,0,1,2.4,6.79,10.53,10.53,0,0,1-1.87,6.58,10.66,10.66,0,0,1-6.69,4.21,12.39,12.39,0,0,1-8.14-1.18A14.28,14.28,0,0,1,813,426.1a11.71,11.71,0,0,1-6.87,2.34h-.06Z"/><path class="cls-8" d="M936.16,633.61c-.46,0-.91,0-1.37-.07a12.83,12.83,0,0,1-1.36-.22,14,14,0,0,1-8.67-6.09,16.41,16.41,0,0,1-2.63-10.77A19.13,19.13,0,0,1,912,614a15.6,15.6,0,0,1-6.6-7.22,15.26,15.26,0,0,1-1-8.32,18.56,18.56,0,0,1,1.49-5.08,1.21,1.21,0,0,1,.7-.65,1.28,1.28,0,0,1,1,0,1.25,1.25,0,0,1,.61,1.66,16,16,0,0,0-1.28,4.33,12.85,12.85,0,0,0,.84,7,13.23,13.23,0,0,0,6.22,6.42,16.66,16.66,0,0,0,9.54,1.64l.86-.1.87-.1-.18.85-.18.85a13.92,13.92,0,0,0,1.59,9.88,11.73,11.73,0,0,0,7.53,5.65,11.45,11.45,0,0,0,7.39-1,13.77,13.77,0,0,0,5.82-5.42,1.22,1.22,0,0,1,.76-.58,1.28,1.28,0,0,1,1,.13,1.31,1.31,0,0,1,.58.77,1.21,1.21,0,0,1-.14.94,16.25,16.25,0,0,1-5.72,5.78A14.63,14.63,0,0,1,936.16,633.61Z"/><path class="cls-3" d="M730.6,693.31l-5.89.16-5.89.15a.13.13,0,0,1-.14-.11.14.14,0,0,1,.09-.15,32.7,32.7,0,0,0,11.72-7,21.17,21.17,0,0,0,6.09-10.08,20.51,20.51,0,0,0-.6-11.21A24.35,24.35,0,0,0,719.49,649a35.3,35.3,0,0,0-19.47-.54,27.87,27.87,0,0,0,15.49-9.69,24.87,24.87,0,0,0,.83-30.5,23.85,23.85,0,0,0-27.44-8.81,27.75,27.75,0,0,0-13.24,9.5,30.1,30.1,0,0,0,3-17.84,27.28,27.28,0,0,0-7.8-15.64,28.08,28.08,0,0,0-16-7.65,25.07,25.07,0,0,0-16.76,3.46c-6,3.82-9.94,10.51-11.14,18.13a33,33,0,0,0,5.49,23.7.27.27,0,0,1,0,.36.28.28,0,0,1-.36,0,23.37,23.37,0,0,0-17.49-4.22,19.5,19.5,0,0,0-16.19,25.86,23.37,23.37,0,0,0,12.42,14.5,0,0,0,0,1,0,0s0,0,0,0a29.19,29.19,0,0,0-22,4.17c-5.92,3.91-10,9.79-10.84,16a22.85,22.85,0,0,0,4.44,16.1,28.81,28.81,0,0,0,15.24,10.86l-6.06.16-6.06.16a30.24,30.24,0,0,0-29.42,31h0a30.24,30.24,0,0,0,31,29.42l24.93-.67,24.93-.66q.94,47.19,1.88,94.38t1.88,94.39l23,.37,23,.37-2.19-95.36-2.2-95.36,24.93-.66,24.93-.66a30.24,30.24,0,0,0-1.61-60.45Z"/><path class="cls-1" d="M620.19,650.27H609.74a1.22,1.22,0,0,1-.88-.37,1.24,1.24,0,0,1,0-1.77,1.26,1.26,0,0,1,.88-.36h10.45a1.25,1.25,0,0,1,.89,2.13A1.25,1.25,0,0,1,620.19,650.27Z"/><path class="cls-1" d="M719.9,694.57H687.31a1.22,1.22,0,0,1-.88-.37,1.24,1.24,0,0,1,0-1.77,1.26,1.26,0,0,1,.88-.36H719.9a1.27,1.27,0,0,1,.88.36,1.26,1.26,0,0,1-.88,2.14Z"/><path class="cls-7" d="M641,945.62a35.23,35.23,0,0,1-17.28-18.22,31.45,31.45,0,0,1-.49-23.54A31,31,0,0,1,635.82,889a35.07,35.07,0,0,1,19.86-5.15A73.83,73.83,0,0,1,650.86,864c-1.11-10.86,0-24.42,8.67-36.11,9.41-12.75,25.1-19.81,41-20.78s32.13,4.18,42.54,15.85c9.36,10.48,11.66,23.53,11.55,34.18A73.11,73.11,0,0,1,751.74,877a52.69,52.69,0,0,1,37.68-7.28,47.3,47.3,0,0,1,30.49,19.2,46.72,46.72,0,0,1,8,29.25,52.65,52.65,0,0,1-11.5,29.8l-87.7-1.15Z"/><path class="cls-6" d="M240.16,145.41a1.52,1.52,0,0,1,2.69-.78A292.5,292.5,0,0,1,270.57,186a291.55,291.55,0,0,1,26,63.71,291.38,291.38,0,0,1,10.22,65.59,293.31,293.31,0,0,1-2.05,48.45,1.52,1.52,0,0,1-2.7.76,294.9,294.9,0,0,1-22.17-31.77A289.09,289.09,0,0,1,239.1,206.69,305.86,305.86,0,0,1,240.16,145.41Z"/><path class="cls-6" d="M535.43,342.09a1.52,1.52,0,0,1,.33,2.78,292.8,292.8,0,0,1-45.3,20.71,292,292,0,0,1-180.92,5.16,1.52,1.52,0,0,1-.32-2.78,296.66,296.66,0,0,1,34.92-16.79,289.43,289.43,0,0,1,131-20A305.51,305.51,0,0,1,535.43,342.09Z"/><path class="cls-6" d="M300.86,371.68a1.49,1.49,0,0,1,1.63.38,1.51,1.51,0,0,1,.28,1.66,292.36,292.36,0,0,1-24.28,43.5,291.29,291.29,0,0,1-98.73,91,291.48,291.48,0,0,1-44.1,20.19A1.51,1.51,0,0,1,134,528a1.53,1.53,0,0,1-.27-1.66A295.39,295.39,0,0,1,152,492.15a289.2,289.2,0,0,1,93.79-93.57A306.23,306.23,0,0,1,300.86,371.68Z"/><path class="cls-1" d="M524,304.42a1.2,1.2,0,0,1-.81-.31,1.23,1.23,0,0,1-.42-.77,192.45,192.45,0,0,0-16.61-53.66c-11.91-25.12-32-53.84-65.6-75.24A178.86,178.86,0,0,0,354.76,147a189.37,189.37,0,0,0-54.12,4.36,1.23,1.23,0,0,1-.94-.15,1.26,1.26,0,0,1-.56-.78,1.25,1.25,0,0,1,.92-1.5,192,192,0,0,1,54.86-4.42,181.21,181.21,0,0,1,87,27.82A177.48,177.48,0,0,1,481,206a188,188,0,0,1,28.35,44.34,202.27,202.27,0,0,1,11.73,32.44,169.13,169.13,0,0,1,4.17,20.2,1.26,1.26,0,0,1-1.06,1.41H524Z"/><path class="cls-3" d="M376.34,752.18a131,131,0,0,0-3.58,36,106,106,0,0,0,7.48,35.43,91.87,91.87,0,0,0,12,21,83.26,83.26,0,0,0,17.23,16.93,52.9,52.9,0,0,0,23.45,9.8c8,1.27,16.45.86,25.62-.24a46.78,46.78,0,0,1,18.26,1.26A38,38,0,0,1,492,880.7a33.92,33.92,0,0,1,8.82,13.37,61.34,61.34,0,0,1,3.5,15.77c.17,1.75.42,10.56.58,18.94s.23,16.31.05,16.31h27.19s.24-4.83.27-11.56a213.79,213.79,0,0,0-1-23,119.6,119.6,0,0,0-3.59-19.41,90.23,90.23,0,0,0-10.42-23.67,62,62,0,0,0-10.66-12.89,47.81,47.81,0,0,0-14-9c-5.94-2.43-12.2-3.14-18.53-3.19s-12.74.57-19,.81a57.58,57.58,0,0,1-18.89-2.3,44.84,44.84,0,0,1-16.64-9.06c-15.09-13.21-18.74-32-17.44-51.43s7.55-39.7,12.27-55.9c2.31-7.95,4.91-16.64,7.82-26s6.1-19.35,9.63-29.93l-13.86-5-13.86-5q-5.37,15-10.48,31t-9.8,33q-2.08,7.54-4,15T376.34,752.18Z"/><path class="cls-1" d="M403.13,771.16q1.46-6.72,2.9-13.42l2.91-13.42c.11-.46.21-.83.29-1.15s.16-.6.23-.88c.16-.65.39-1.53.73-2.78s.79-2.87,1.4-5c2.58-9,4.91-16.76,6.59-22.32s2.72-8.88,2.72-8.88c1.48-4.73,3.14-10,5-15.86s3.89-12.16,6.1-19l-13.86-5-13.86-5c-2.72,7.33-5.15,14.12-7.3,20.29s-4,11.69-5.58,16.48c-.34,1-3.47,10.62-7.06,23.25s-7.62,28.31-9.77,41.45c-.51,3.09-1,6.36-1.3,9.87s-.56,7.26-.6,11.3c0,2.6,0,5,.12,7.12s.23,4,.36,5.56l15-11.32Z"/><path class="cls-3" d="M423.83,843.15A42,42,0,0,0,398.56,831a43.64,43.64,0,0,0-20.5,2.31c-.26-1-.54-2-.88-2.91a34.08,34.08,0,0,0-45.51-20.56,37.42,37.42,0,0,0-6.55,3.48,31.76,31.76,0,0,0-35.39-19.23,25.24,25.24,0,0,0-19.27,32.83,31.7,31.7,0,0,0,36.09,21.18c.5-.1,1-.22,1.49-.36a37.3,37.3,0,0,0,2,10,34.09,34.09,0,0,0,45.51,20.56,36.37,36.37,0,0,0,6.41-3.38,33,33,0,0,0,3.94,5,43.63,43.63,0,0,0,52.69,6.41c7.42-4.7,12.52-11.82,13.54-20.24S429.9,849.49,423.83,843.15Z"/><path class="cls-1" d="M410.9,862.79h-.11l-.11,0c-7.17-1.27-14.35-2.73-21.48-4.38S375,854.92,368,852.92a422.87,422.87,0,0,1-49.32-17.52,429.3,429.3,0,0,1-47.09-23.58,1.22,1.22,0,0,1-.58-.76,1.23,1.23,0,0,1,.89-1.53,1.21,1.21,0,0,1,.94.13,426.13,426.13,0,0,0,46.82,23.44,417.87,417.87,0,0,0,49,17.41c6.95,2,14,3.81,21.07,5.45s14.22,3.09,21.36,4.35a1.27,1.27,0,0,1,1,1.45,1.25,1.25,0,0,1-1.23,1Z"/><path class="cls-4" d="M475.65,712.9h0l0,0,0,0a30.27,30.27,0,0,1-40,40l0,0h0a30.27,30.27,0,0,1-56.54,0h0l0,0a30.26,30.26,0,0,1-40-40v0l0,0h0a30.26,30.26,0,0,1,0-56.53h0l0,0v0a30.26,30.26,0,0,1,40-40l0,0h0a30.27,30.27,0,0,1,56.54,0h0l0,0a30.27,30.27,0,0,1,40,40l0,0,0,0h0a30.26,30.26,0,0,1,0,56.53Z"/><path class="cls-6" d="M440.05,691.39a33.09,33.09,0,1,1-5.89-24.63A32.94,32.94,0,0,1,440.05,691.39Z"/><path class="cls-5" d="M319.51,378a13.59,13.59,0,1,1-4-9.61A13.53,13.53,0,0,1,319.51,378Z"/><polygon class="cls-2" points="682.35 755.09 667.16 755.09 651.97 755.09 667.63 775.24 683.28 795.4 682.81 775.24 682.35 755.09"/><path class="cls-6" d="M427.75,945.06a37.94,37.94,0,0,1,.92-9.38,34.37,34.37,0,0,1,6.55-13.82A33.13,33.13,0,0,1,449,911.71a50.92,50.92,0,0,1,11.35-3,45.92,45.92,0,0,1,18.44.71,41.93,41.93,0,0,1,16.44,8.19,39.68,39.68,0,0,1,7.08,7.59,34.79,34.79,0,0,1,2.8,4.6,36.92,36.92,0,0,1,3.06,8.75,36.4,36.4,0,0,1,.79,6.49l-40.6,0Z"/><path class="cls-5" d="M484.12,920.22a4.82,4.82,0,0,1-2,3.76,7.92,7.92,0,0,1-9.44,0,4.6,4.6,0,0,1,0-7.53,7.92,7.92,0,0,1,9.44,0A4.83,4.83,0,0,1,484.12,920.22Z"/><path class="cls-6" d="M480.71,402a1.07,1.07,0,0,1,.59-1,1.05,1.05,0,0,1,1.19.13,208.38,208.38,0,0,1,73.31,145,1.06,1.06,0,0,1-.6,1A1.08,1.08,0,0,1,554,547a210.81,210.81,0,0,1-19.87-19.21,205.6,205.6,0,0,1-20.6-26.84,207.76,207.76,0,0,1-25.18-55.86A218.65,218.65,0,0,1,480.71,402Z"/><path class="cls-6" d="M714.39,499.32a1.09,1.09,0,0,1,.61,1.91,208.36,208.36,0,0,1-154.86,49.08,1.08,1.08,0,0,1-.61-1.9,211,211,0,0,1,22.16-16.54,204.53,204.53,0,0,1,29.8-16A207.56,207.56,0,0,1,670.66,500,218.88,218.88,0,0,1,714.39,499.32Z"/><path class="cls-6" d="M556.23,554.33a1.08,1.08,0,0,1,1.3,1.51A208.37,208.37,0,0,1,434,661.33a1.08,1.08,0,0,1-1.15-.33,1.07,1.07,0,0,1-.14-1.19,209.93,209.93,0,0,1,14-23.86,206.44,206.44,0,0,1,69.54-64A218.21,218.21,0,0,1,556.23,554.33Z"/><path class="cls-5" d="M568.34,555.16a11.18,11.18,0,1,1-3.27-7.91A11.17,11.17,0,0,1,568.34,555.16Z"/><path class="cls-4" d="M633.29,680.47a13.49,13.49,0,1,1-3.95-9.54A13.44,13.44,0,0,1,633.29,680.47Z"/><path class="cls-4" d="M681.11,720.24a13.49,13.49,0,1,1-4-9.54A13.44,13.44,0,0,1,681.11,720.24Z"/><path class="cls-4" d="M700,649.7a13.49,13.49,0,1,1-3.95-9.54A13.44,13.44,0,0,1,700,649.7Z"/><path class="cls-1" d="M439,620.48a1.15,1.15,0,0,1-.48-.1,1.11,1.11,0,0,1-.41-.28,133.37,133.37,0,0,1-21.34-29,124.2,124.2,0,0,1-15.27-53.27C400,509,409,485.12,419.35,467.63a139.19,139.19,0,0,1,26-32.1,1.26,1.26,0,0,1,1.77.11,1.21,1.21,0,0,1,.31.9,1.24,1.24,0,0,1-.42.86,136.6,136.6,0,0,0-25.46,31.48c-10.15,17.15-19,40.51-17.52,68.79a121.65,121.65,0,0,0,15,52.22,130.94,130.94,0,0,0,20.92,28.46,1.28,1.28,0,0,1,.36.89,1.26,1.26,0,0,1-1.25,1.24Z"/><path class="cls-3" d="M78.66,740.85c-8.36,14.95-13.13,31-13.9,46.32s2.46,29.92,10.08,41.94c6.46,10.19,15.77,18.07,24,23.66a118.32,118.32,0,0,0,17.8,9.9,103.93,103.93,0,0,0,12.91,4.7A107.07,107.07,0,0,0,140,869.82l-1.74-15.13-1.75-15.14s-21.07-2.46-35.75-16-23-38.25,2.61-82.67H78.66Z"/><path class="cls-4" d="M53.3,713.66a14.68,14.68,0,0,0-8,1.9,13.39,13.39,0,0,0-5.47,5.8,14.53,14.53,0,0,0-1.23,8.39,11.38,11.38,0,0,0,4.28,7.47,11.64,11.64,0,0,0,6,2.26,13.93,13.93,0,0,0,6.68-1.12,13.25,13.25,0,0,0-6.64,6.45,12.77,12.77,0,0,0-.75,9,12.91,12.91,0,0,0,5.51,7.22,12.14,12.14,0,0,0,8.67,1.78,12,12,0,0,0,7-4.22,14.78,14.78,0,0,0,2.33-3.72,17.46,17.46,0,0,0,2.12,4.51A14.17,14.17,0,0,0,81,765.19a14.93,14.93,0,0,0,9.07.17A12.83,12.83,0,0,0,97.34,760a12.63,12.63,0,0,0,1.92-6.31,15.16,15.16,0,0,0-.36-4,19.53,19.53,0,0,0,8,5.68,14.68,14.68,0,0,0,9,.47,15.27,15.27,0,0,0,4-1.76,11.49,11.49,0,0,0,4.83-5.78,11.84,11.84,0,0,0,0-8,14.37,14.37,0,0,0-1.9-3.78,13.83,13.83,0,0,0,9.77-.54,12.48,12.48,0,0,0,6.49-6.55,11.88,11.88,0,0,0,0-8.72,14.43,14.43,0,0,0-5-6.67,13.29,13.29,0,0,0-5.37-2.24,15.28,15.28,0,0,0-3.7-.2,17,17,0,0,0,3.22-3,12.51,12.51,0,0,0,2.8-6.06,14.28,14.28,0,0,0-3.44-11,15.23,15.23,0,0,0-10.47-5.66,14.2,14.2,0,0,0-8.65,2.44,18.62,18.62,0,0,0-3.89,3.37,20.2,20.2,0,0,0-.27-5.13,14,14,0,0,0-3.31-6.95c-3.22-3.54-8.39-5.11-13.47-4.78s-10.08,2.55-12.93,6.57a14.88,14.88,0,0,0-2.6,8.31,21.21,21.21,0,0,0,.58,5.47,17.09,17.09,0,0,0-6.92-5.41,14.19,14.19,0,0,0-8.25-.92A15.59,15.59,0,0,0,48.17,695a12.58,12.58,0,0,0-2.43,10.27,11.75,11.75,0,0,0,3.86,6A16.34,16.34,0,0,0,53.3,713.66Z"/><path class="cls-5" d="M78.7,712.92a15.66,15.66,0,0,0-6.87-.59A8.1,8.1,0,0,0,66.11,716a7.59,7.59,0,0,0,.37,8.75,9.18,9.18,0,0,0,8.07,3.88c-.16,0-.42.38-.66.77s-.45.8-.53.93a7.83,7.83,0,0,0-.81,6.35,7.48,7.48,0,0,0,4.35,4.68,8.15,8.15,0,0,0,6.61-.53,11.26,11.26,0,0,0,5-4.53,26.11,26.11,0,0,0,1.25-3.07c.35-1,.6-1.85.6-1.85,2,2.31,3.19,3.6,3.9,4.32a8.44,8.44,0,0,0,.92.85,11.7,11.7,0,0,0,2.78,1.19,9.1,9.1,0,0,0,5.7-.16,7.54,7.54,0,0,0,1.37-.67,8.56,8.56,0,0,0,1.28-.94,9.2,9.2,0,0,0,2.93-5.46,7.11,7.11,0,0,0-1.57-5.89,15,15,0,0,0-2-1.75c-.68-.52-1.23-.89-1.23-.89l.79-.39.71-.35a8.72,8.72,0,0,0,4.3-5.22,8.59,8.59,0,0,0-.63-6.79,7.78,7.78,0,0,0-7-4,10,10,0,0,0-7.49,3.35,9.23,9.23,0,0,0,0-1.42,8.5,8.5,0,0,0-.31-1.85A9.27,9.27,0,0,0,92,700.91a11.16,11.16,0,0,0-2.33-1.56,10.84,10.84,0,0,0-5.32-1,8.18,8.18,0,0,0-5.21,2.31,8.38,8.38,0,0,0-2.24,4.44,9.88,9.88,0,0,0-.15,2.59,8.46,8.46,0,0,0,.3,1.5,8.82,8.82,0,0,0,.42,1.13c.08.21.28.82.51,1.39S78.48,712.86,78.7,712.92Z"/><path class="cls-7" d="M238.78,802.31l-5,.13-5.05.13a.1.1,0,0,1-.11-.09.11.11,0,0,1,.08-.13,27.74,27.74,0,0,0,10-6,18,18,0,0,0,5.21-8.62,17.59,17.59,0,0,0-.51-9.58,21.39,21.39,0,0,0-2.3-4.91,22.07,22.07,0,0,0-11.81-8.84,30.24,30.24,0,0,0-16.65-.46,23.75,23.75,0,0,0,13.24-8.29,21.26,21.26,0,0,0,.72-26.08,20.4,20.4,0,0,0-23.48-7.54,23.81,23.81,0,0,0-11.33,8.12,25.66,25.66,0,0,0,2.54-15.25,23.28,23.28,0,0,0-6.67-13.38A24,24,0,0,0,174,695a21.45,21.45,0,0,0-14.34,3c-5.1,3.27-8.5,9-9.53,15.51a28.21,28.21,0,0,0,4.7,20.27.24.24,0,0,1,0,.31.23.23,0,0,1-.3,0,20,20,0,0,0-15-3.61,16.68,16.68,0,0,0-13.86,22.13A20,20,0,0,0,136.25,765h0a25,25,0,0,0-18.78,3.57c-5.06,3.34-8.54,8.37-9.27,13.7A19.52,19.52,0,0,0,112,796a24.6,24.6,0,0,0,13,9.29l-5.18.14-5.18.14a25.87,25.87,0,0,0-25.17,26.54h0A25.87,25.87,0,0,0,116,857.32l21.33-.57,21.33-.57,1.77,44.45,1.77,44.46H199l-.73-45-.72-45,21.32-.57,21.33-.56a25.87,25.87,0,0,0,25.17-26.55h0a25.85,25.85,0,0,0-26.54-25.16Z"/><polygon class="cls-2" points="197.5 855.15 187.11 855.15 176.72 855.15 187.38 869.48 198.04 883.81 197.77 869.48 197.5 855.15"/><path class="cls-1" d="M145.18,766.25h-8.94A1.25,1.25,0,0,1,135,765a1.26,1.26,0,0,1,1.25-1.25h8.94a1.25,1.25,0,0,1,1.25,1.25,1.23,1.23,0,0,1-1.25,1.25Z"/><path class="cls-1" d="M229.62,804.11H201.74a1.27,1.27,0,0,1-.88-.36,1.25,1.25,0,0,1-.37-.89,1.22,1.22,0,0,1,.37-.88,1.24,1.24,0,0,1,.88-.37h27.88a1.26,1.26,0,0,1,1.25,1.25,1.25,1.25,0,0,1-1.25,1.25Z"/><path class="cls-1" d="M188.92,735.46a1.14,1.14,0,0,1-.37-.05,1.29,1.29,0,0,1-.86-1,1.23,1.23,0,0,1,.21-.94l1.43-2,1.42-2a1.25,1.25,0,1,1,2,1.45l-1.42,2-1.43,2a1.23,1.23,0,0,1-.46.39A1.21,1.21,0,0,1,188.92,735.46Z"/><path class="cls-6" d="M613.65,888.25l-1.45,28.64-1.46,28.65,26.37.26,26.37.27-3-29.49q-1.51-14.75-3-29.5c-1.41-13.48-12-20-22.43-19.68S614.33,874.71,613.65,888.25Z"/><path class="cls-5" d="M644.45,880.78a2.23,2.23,0,0,1-1.07,1.79,4.94,4.94,0,0,1-5.2,0,2,2,0,0,1,0-3.58,4.88,4.88,0,0,1,5.2,0A2.21,2.21,0,0,1,644.45,880.78Z"/><path class="cls-5" d="M652.39,891.25a3.41,3.41,0,0,1-1.36,2.63,5.58,5.58,0,0,1-6.6,0,3.21,3.21,0,0,1,0-5.26,5.54,5.54,0,0,1,6.6,0A3.38,3.38,0,0,1,652.39,891.25Z"/><path class="cls-3" d="M171.34,678.58s7.51-18.63,18.74-40.85,26.21-48,41.13-62.38a21.2,21.2,0,0,1,26.55-2.75,20.93,20.93,0,0,1,8.85,25,65.58,65.58,0,0,1-8.89,16.67,137.54,137.54,0,0,1-18.34,20.45l-27.67,28.64L184.05,692a32.65,32.65,0,0,0-3-4.11A60.19,60.19,0,0,0,171.34,678.58Z"/><path class="cls-1" d="M183,679.87a1.29,1.29,0,0,1-.74-.24,1.28,1.28,0,0,1-.5-.82,1.26,1.26,0,0,1,.23-.93l33.6-45.82,33.59-45.82a1.26,1.26,0,0,1,.82-.5,1.31,1.31,0,0,1,.93.23,1.26,1.26,0,0,1,.5.82,1.31,1.31,0,0,1-.23.93l-33.6,45.82L184,679.36a1.4,1.4,0,0,1-.46.38A1.31,1.31,0,0,1,183,679.87Z"/><path class="cls-6" d="M779.65,947.37l-9.89.26-9.89.26a13.42,13.42,0,0,1-13.73-14.48l2.71-33.76,2.7-33.76,15.66-.42,15.66-.42,4.85,33.5L792.57,932a13.42,13.42,0,0,1-12.92,15.33Z"/><polygon class="cls-9" points="751.56 865.89 769.27 879.57 786.97 893.24 784.93 879.15 782.89 865.05 767.23 865.47 751.56 865.89"/><path class="cls-5" d="M834.32,863.75l-64.72,1.72-64.72,1.72a3.59,3.59,0,0,1-3.67-3.48l-.07-2.58-.06-2.57a61.07,61.07,0,0,1,59.42-62.67l7.24-.19,7.25-.19a61.07,61.07,0,0,1,62.67,59.42l.07,2.57.07,2.58a3.59,3.59,0,0,1-3.48,3.67Z"/><path class="cls-9" d="M762.26,840.84a1.25,1.25,0,0,1-1.25-1.25V799.23l-14.54,11.4L731.93,822a1.24,1.24,0,0,1-.92.25,1.17,1.17,0,0,1-.83-.47,1.2,1.2,0,0,1-.26-.92,1.24,1.24,0,0,1,.47-.83l14.7-11.53L759.79,797a2.14,2.14,0,0,1,2.27-.57,2.14,2.14,0,0,1,1.45,2v41.13a1.25,1.25,0,0,1-1.25,1.25Z"/><path class="cls-9" d="M793.87,828.88a1.22,1.22,0,0,1-.46-.09,1.06,1.06,0,0,1-.41-.26l-16-15.34-16-15.35.32-.94.31-.95.59.15.58.14,17,4.91,17,4.91a1.29,1.29,0,0,1,.75.6,1.24,1.24,0,0,1-1.44,1.8l-14.65-4.22L766.94,800l13.9,13.35,13.89,13.36a1.24,1.24,0,0,1,0,1.77,1.2,1.2,0,0,1-.9.38Z"/><path class="cls-7" d="M827.09,149,814,155.72l-13.07,6.68a2.74,2.74,0,0,0-1.06,3.94l8,12.32,8,12.33a2.75,2.75,0,0,1-2.45,4.23l-14.66-.76-14.67-.77a2.74,2.74,0,0,0-2.88,2.89l.76,14.66.76,14.67a2.74,2.74,0,0,1-4.23,2.45l-12.32-8-12.33-8a2.75,2.75,0,0,0-3.94,1.05l-6.68,13.08-6.69,13.08a2.74,2.74,0,0,1-4.88,0L725,226.52l-6.69-13.08a2.74,2.74,0,0,0-3.93-1.05l-12.33,8-12.32,8a2.74,2.74,0,0,1-4.23-2.45l.76-14.67.76-14.66a2.71,2.71,0,0,0-.8-2.09,2.73,2.73,0,0,0-2.08-.8l-14.67.77-14.66.76a2.75,2.75,0,0,1-2.45-4.24l8-12.32,8-12.32a2.74,2.74,0,0,0-1.06-3.94l-13.07-6.68L641.07,149a2.74,2.74,0,0,1,0-4.89l13.08-6.68,13.07-6.69a2.74,2.74,0,0,0,1.41-1.73,2.78,2.78,0,0,0-.35-2.21l-8-12.32-8-12.32A2.75,2.75,0,0,1,654.76,98l14.66.77,14.67.76A2.74,2.74,0,0,0,687,96.59l-.76-14.66-.76-14.67a2.73,2.73,0,0,1,4.23-2.44l12.32,8,12.33,8a2.71,2.71,0,0,0,2.2.35,2.77,2.77,0,0,0,1.74-1.4L725,66.65l6.69-13.07a2.73,2.73,0,0,1,4.88,0l6.69,13.07,6.69,13.08a2.74,2.74,0,0,0,3.93,1l12.33-8,12.32-8a2.73,2.73,0,0,1,4.23,2.44L782,81.93l-.76,14.67a2.7,2.7,0,0,0,.8,2.08,2.73,2.73,0,0,0,2.08.8l14.67-.76L813.4,98a2.75,2.75,0,0,1,2.45,4.24l-8,12.32-8,12.32a2.78,2.78,0,0,0-.35,2.21,2.74,2.74,0,0,0,1.41,1.73L814,137.46l13.08,6.68a2.74,2.74,0,0,1,0,4.89Z"/><path class="cls-5" d="M789,146.59a54.92,54.92,0,1,1-16.08-38.83A54.74,54.74,0,0,1,789,146.59Z"/></svg>