<svg xmlns="http://www.w3.org/2000/svg" data-name="Layer 1" viewBox="0 0 517 516" id="concept-of-product-release-and-launch-for-public"><g data-name="product release or product launch"><path d="M215.27 121.47a22.09 22.09 0 0 1 11.77-.26 48.14 48.14 0 0 1 16.49 7.89 11.83 11.83 0 0 1 1.76 1.47 10.53 10.53 0 0 0 4.51 2.88 11.36 11.36 0 0 0 2.91-.11 8.27 8.27 0 0 0 5.77-5.29 12.41 12.41 0 0 0 .27-7.41 26.38 26.38 0 0 0-3.35-7.39c-1.89-3.1-3.94-6.08-6-9.07a114.83 114.83 0 0 0-11.9-14.3c-6.16-6.4-13.79-8.92-22.61-8a42.51 42.51 0 0 0-9.7 2.47A66.79 66.79 0 0 0 189.24 93a43.39 43.39 0 0 0-9.2 8.49l-.14.15c-.91 1-.91 1-2 .37l-4.7-2.72A240 240 0 0 0 149 87a96.41 96.41 0 0 0-29.47-7.38 67.73 67.73 0 0 0-21 1.34 140.81 140.81 0 0 0-33 11.16c-11 5.46-21.64 11.55-31.11 19.48a1.81 1.81 0 0 1-1.89.38c-3.15-.89-6.32-1.68-9.49-2.52a2.51 2.51 0 0 0-1.43-.16.8.8 0 0 0-.44.37.56.56 0 0 0 .19.74 9 9 0 0 0 1.56.56c3.16.85 6.32 1.7 9.5 2.5a1.42 1.42 0 0 1 1.17 1 26.42 26.42 0 0 1 .82 3 17.45 17.45 0 0 0 1.67 4.92c.83 1.69 1.66 3.38 2.47 5.08a58.26 58.26 0 0 0 4.73 8.12A104.09 104.09 0 0 0 56.51 151a53 53 0 0 0 6.26 5.22 110 110 0 0 0 32.49 16q14.71 4.4 29.8 7.32a114.5 114.5 0 0 0 13.68 1.77 160.65 160.65 0 0 0 22.8-.08 1.86 1.86 0 0 1 1.93.87c1.12 1.68 2.28 3.34 3.38 5 1.78 2.75 3.5 5.52 5.43 8.18a27.66 27.66 0 0 0 15.26 10.38c5 1.47 10.19 1.47 15.36 1 3.47-.29 6.91-.88 10.34-1.5a70.71 70.71 0 0 0 21.89-8 31.36 31.36 0 0 0 9.23-7.77 26 26 0 0 0 4.61-8.37 6 6 0 0 0-.82-5.57l-.59-.85a1.6 1.6 0 0 1-.81-.61.5.5 0 0 1-.29-.22l-2.6-1.21a21.8 21.8 0 0 0-10.68 1c-1.65.53-3.34.94-5 1.4a78.23 78.23 0 0 1-8.1 2 16.17 16.17 0 0 1-11.28-1.84 29 29 0 0 1-5.88-4.64 3.25 3.25 0 0 1-.51-.65.36.36 0 0 1 .12-.53c.36-.2.75-.36 1.12-.55 3.27-1.68 6.55-3.36 9.81-5.07a8.91 8.91 0 0 0 3.5-3.2c1.39-2.22 1.25-4-.47-6.09.09-.47.4-.48.76-.35l7.14 1.54c2.79.62 5.58 1.19 8.42 1.53 4 .46 7.88 1 11.82 1.57 1.72.24 3.44.52 5.17.77a15.69 15.69 0 0 0 3.75.12 3.47 3.47 0 0 0 3-2 4.6 4.6 0 0 0 0-4.41 5.88 5.88 0 0 0-3.2-2.85 20.91 20.91 0 0 0-2.79-.86c-4.69-1-9.4-2-14.1-2.95q-6.66-1.36-13.32-2.69a39.68 39.68 0 0 1-4.32-.82 19.3 19.3 0 0 0 1.57-1.58 7 7 0 0 0 1.07-6.35 17.52 17.52 0 0 0-2.74-5.83 31.5 31.5 0 0 0-4.87-5.45c-.34-.3-.86-.48-.91-1.15a5.75 5.75 0 0 1 .81-.56 9.72 9.72 0 0 1 1.52-.6Zm-89.37 55.64a2.41 2.41 0 0 1-2.27.59c-4.79-.93-9.53-2.09-14.26-3.26s-9.71-2.46-14.5-3.95a109.53 109.53 0 0 1-31.48-15.67 52 52 0 0 1-6.08-5.12 101.68 101.68 0 0 1-13.52-15.91 57.63 57.63 0 0 1-3.37-5.79c-1.09-2.1-2.07-4.27-3.13-6.38a15.91 15.91 0 0 1-1.38-3.94 19 19 0 0 0-.94-3.63 1.13 1.13 0 0 1 .47-1.45c1.6-1.24 3.13-2.57 4.76-3.76a168.92 168.92 0 0 1 29.44-17 3.84 3.84 0 0 1 .4-.11c.41-.29 3.61-1.5 3.87-1.68a60.14 60.14 0 0 1 8.38-3.18 138.5 138.5 0 0 1 19.41-5 66.5 66.5 0 0 1 16.06-.93 102.12 102.12 0 0 1 16.09 2.58 101 101 0 0 1 16.58 5.66 3 3 0 0 1 1.84 2 47 47 0 0 1 1.9 12.79 91.46 91.46 0 0 1-1.51 18.31 124.45 124.45 0 0 1-8 27.19 93.63 93.63 0 0 1-9.66 17.61 50 50 0 0 1-7.68 8.82c-.45.41-.95.8-1.42 1.21ZM157 180c-4.25.08-8.5.08-12.76.06a115.52 115.52 0 0 1-15.24-1.34c-.54-.07-1.08-.23-1.58-.34-.16-.4.07-.57.27-.74a53.38 53.38 0 0 0 10.09-11.93 108.21 108.21 0 0 0 11.4-23.91c1-2.89 1.89-5.82 2.65-8.79.12-.46.3-.91.44-1.33a81.25 81.25 0 0 0 9.21-2.17c2.68-.74 5.34-1.58 8-2.37.47-.14.94-.24 1.41-.35s1-.33 1 .49q-7.1 3.56-14.18 7.12c-1.24.63-2.47 1.29-3.69 1.95a2.85 2.85 0 0 0-1.12.92.73.73 0 0 0 .32 1 1.89 1.89 0 0 0 1.22 0 57.35 57.35 0 0 0 6-1.65c2.12-.67 4.23-1.38 6.35-2.06.4-.13.81-.18 1.22-.27a12.21 12.21 0 0 1 3.09-1.19c4.19-1.48 8.4-2.92 12.6-4.39 1-.35 1.34-.74 1.13-1.19s-.71-.52-1.69-.22c-.53.16-1.05.38-1.57.56l-16.17 5.58a4 4 0 0 1-.62.11c-.28.17-.65.1-.91.34a.63.63 0 0 1-.33.09c-.4.08-.89.4-.88-.4a.76.76 0 0 1 .35-.14l.45-.25c3.73-1.89 7.47-3.77 11.19-5.69 2-1 3.92-2.13 5.87-3.21a2.68 2.68 0 0 0 1.25-1.06.75.75 0 0 0-.44-1 3.17 3.17 0 0 0-1.64.18L171.5 125c-5.74 1.74-11.45 3.54-17.28 5l-.6.17c-.79.22-1.05 0-.86-.78a101.07 101.07 0 0 0 2.15-11.72 78.87 78.87 0 0 0 .15-20.67c-.23-1.65-.67-3.28-1-4.91 0-.27-.2-.53 0-.85.4-.21.72.11 1.06.27 7 3.37 13.81 7 20.46 10.94 3.41 2 6.86 4 10.33 6a2.12 2.12 0 0 1 1.25 1.76c.18 2 .47 4 .54 6a74.21 74.21 0 0 1-1.4 16.22c-.17 1-.35 1.92-.57 2.87-.15.68-.29.75-1 .6l-8.4-1.69a12.51 12.51 0 0 0-4-.23 3.19 3.19 0 0 0-3 3 6.75 6.75 0 0 0 .19 2.49 8.43 8.43 0 0 0 3.76 2.54c2.94 1.1 5.89 2.16 8.91 3 .77.21.87.42.63 1.21a110.57 110.57 0 0 1-4.21 11.13 107.16 107.16 0 0 1-10.82 19.3l-1.48 2a1.6 1.6 0 0 1-1.2.72c-.49 0-1 .2-1.45.24-2.25.11-4.47.39-6.66.39Zm50.42-3.92a17.42 17.42 0 0 0 12.43 2.48c4.07-.67 8-1.89 12-2.95 2.16-.57 4.27-1.27 6.49-1.63a14.17 14.17 0 0 1 5.39.27c.13 0 .26.1.39.14 2.89 1 4.62 3.42 3.28 7a26.24 26.24 0 0 1-5.54 8.8 31.15 31.15 0 0 1-7.93 6.1 69.78 69.78 0 0 1-20.17 7.31 110.16 110.16 0 0 1-13 1.79 34.71 34.71 0 0 1-17.54-3 24.91 24.91 0 0 1-9-7.27 83.5 83.5 0 0 1-5.19-7.6c-1.15-1.83-2.36-3.62-3.54-5.43a1.63 1.63 0 0 1-.48-1.2l7.38-1.3a82.61 82.61 0 0 0 19.84-5.74c2.15-1 4.35-1.89 6.52-2.83.39-.16.76-.35 1.15-.5.9-.36 1-.36 1.62.36a28.29 28.29 0 0 0 5.86 5.21Zm8.46-17.66a14 14 0 0 1-1.43.3 38.22 38.22 0 0 1-8.35.23 4.7 4.7 0 0 0-1.87.06.64.64 0 0 0-.47.61.58.58 0 0 0 .46.61 5.59 5.59 0 0 0 1.23.15 74 74 0 0 0 8.16 0 1.62 1.62 0 0 1 1.5 0 3.11 3.11 0 0 1-1.7 1.39 33.41 33.41 0 0 1-12.41 2.28 15.11 15.11 0 0 0-1.66.09.55.55 0 0 0-.44.61.64.64 0 0 0 .34.49 3.55 3.55 0 0 0 1.21.22c1.46 0 2.91-.07 4.37-.11.61-.19 1.21-.38 1.6.37a74.12 74.12 0 0 1-7.33 3.45c-3.69 1.61-7.4 3.16-11.1 4.72-4.94 2.11-10.12 3.11-15.29 4.11a10.77 10.77 0 0 1-2.87.47 1.49 1.49 0 0 1-1.46 0 6.3 6.3 0 0 1 .4-.72 114.27 114.27 0 0 0 15.07-30c.8-2.39.38-2.29 3-1.59q10.37 2.83 20.76 5.61c1 .27 2 .45 3.06.7a6.92 6.92 0 0 1 4.44 2.72c-.59.26-1-.08-1.42-.13s-1-.11-1.45-.2a37.61 37.61 0 0 0-7.72-.28 1.36 1.36 0 0 0-.6.14c-.22.14-.47.32-.43.65a.61.61 0 0 0 .49.6 8.75 8.75 0 0 0 1.45 0 34.84 34.84 0 0 1 8.94.69 10.14 10.14 0 0 1 1.59.51.73.73 0 0 1 .36.7.57.57 0 0 1-.47.56Zm5.78-13.35c3.29.58 6.56 1.28 9.84 1.95q9 1.83 18 3.7a30.16 30.16 0 0 1 3.22.9 4.71 4.71 0 0 1 2.2 1.54 3.43 3.43 0 0 1 .64 3.15 2.07 2.07 0 0 1-1.88 1.71 9.74 9.74 0 0 1-1.87 0c-2.91-.34-5.81-.71-8.71-1.09s-5.52-.81-8.29-1.09a83.41 83.41 0 0 1-10.29-1.74c-3.94-.9-7.9-1.7-11.81-2.69-5.87-1.48-11.73-3-17.55-4.65-4.88-1.41-9.82-2.6-14.71-4-2.21-.63-4.36-1.45-6.51-2.24a10.87 10.87 0 0 1-2.22-1.15 2.2 2.2 0 0 1-.85-2.76c.32-.94.88-1.31 2.1-1.38h.68a12.28 12.28 0 0 1 2.84.39c7.64 1.56 15.29 3.08 22.92 4.69 4.42.93 8.82 2 13.23 3 2.94.74 5.96 1.25 8.98 1.77Zm-4.44-15.33c-.05.72-.44.75-1 .5a31.11 31.11 0 0 0-7.92-1.82 4.44 4.44 0 0 0-1 0 .57.57 0 0 0-.51.57.67.67 0 0 0 .43.65 5.84 5.84 0 0 0 1 .18 35.41 35.41 0 0 1 7.11 1.63 12.33 12.33 0 0 1 3.28 1.8 3.39 3.39 0 0 1 1.49 3c-.42.38-.7 0-1-.08a84.75 84.75 0 0 0-8.83-3.22 3.61 3.61 0 0 0-1.83-.27.79.79 0 0 0-.45.35.52.52 0 0 0 .23.72 8.84 8.84 0 0 0 1.35.54l7.71 2.64a15.36 15.36 0 0 1 1.72.74c1.25.59 1.33.86.72 2.07a1 1 0 0 1-1.17.6 29.36 29.36 0 0 1-4.43-1.23c-2.09-.76-4.17-1.56-6.26-2.33a3.54 3.54 0 0 0-1-.26.64.64 0 0 0-.64.45.59.59 0 0 0 .24.73 10.34 10.34 0 0 0 1.51.7 65.43 65.43 0 0 0 8.5 2.89 7.86 7.86 0 0 1 1 .41 8.44 8.44 0 0 1-4.83.17c-2.11-.44-4.22-.93-6.31-1.44-5.42-1.32-10.87-2.46-16.34-3.53q-1.12-.21-2.25-.45c-.49-.1-.66-.38-.57-.9.38-2.06.75-4.11 1.07-6.18a68.22 68.22 0 0 0 .45-18.77 1.65 1.65 0 0 1 .07-.45 1.76 1.76 0 0 1 .57 0 154.54 154.54 0 0 1 20.24 12.12 30.28 30.28 0 0 1 7.61 7.48Zm-5.81-7.88-2.79-2a144.21 144.21 0 0 0-14.85-9c-3.87-2.07-7.7-4.22-11.55-6.34a14.72 14.72 0 0 1-1.43-.87.51.51 0 0 1-.06-.87c.9-1 1.76-2 2.69-2.92a53.2 53.2 0 0 1 9.58-7.58c2.06-1.31 4.19-2.5 6.34-3.65A50.26 50.26 0 0 1 212.1 84a25.65 25.65 0 0 1 18.09 2.22 26.7 26.7 0 0 1 6.86 5.43 132.68 132.68 0 0 1 15.72 20.32 61.78 61.78 0 0 1 3.34 5.8 17.53 17.53 0 0 1 1.47 4.78 9.72 9.72 0 0 1-.61 5.33 6.25 6.25 0 0 1-6.57 4.12 5.39 5.39 0 0 1-3.14-1.52 46.19 46.19 0 0 0-19.11-10.39 24.32 24.32 0 0 0-12.42-.2 12.72 12.72 0 0 0-4.36 1.98Z"></path><path fill="#020101" d="M115.42 123.88a19.53 19.53 0 0 0-13.54-2.32 21.57 21.57 0 0 0-14.5 9.1A19.17 19.17 0 0 0 84.12 147c1.91 7.59 8.56 13.32 17.44 13.81a21.33 21.33 0 0 0 14.8-4.76 20.8 20.8 0 0 0 8.26-16.44 17.89 17.89 0 0 0-9.2-15.73Zm-10.34 35.31a17.53 17.53 0 0 1-11.68-2.29 16.29 16.29 0 0 1-8.4-14.31 19.32 19.32 0 0 1 7.56-15.21 19.87 19.87 0 0 1 12.35-4.54c5.73-.11 10.75 1.79 14.39 6.36 4.42 5.54 5 11.76 2.08 18.1-3.16 6.91-8.75 10.83-16.3 11.89Z"></path><path fill="#f38704" d="M169.49 139.39a.8.8 0 0 1-.55-.78v-2.06a2.52 2.52 0 0 0-.9-2.19 12.21 12.21 0 0 1 3.09-1.19c4.19-1.48 8.4-2.92 12.6-4.39 1-.35 1.34-.74 1.13-1.19s-.71-.52-1.69-.22c-.53.16-1.05.38-1.57.56l-16.17 5.58a4 4 0 0 1-.62.11c-.28.17-.65.1-.91.34a.63.63 0 0 1-.33.09c-.4.08-.89.4-.88-.4a.76.76 0 0 1 .35-.14l.45-.25c3.73-1.89 7.47-3.77 11.19-5.69 2-1 3.92-2.13 5.87-3.21a2.68 2.68 0 0 0 1.25-1.06.75.75 0 0 0-.44-1 3.17 3.17 0 0 0-1.64.18L171.5 125c-5.74 1.74-11.45 3.54-17.28 5l-.6.17c-.79.22-1.05 0-.86-.78a101.07 101.07 0 0 0 2.15-11.72 78.87 78.87 0 0 0 .15-20.67c-.23-1.65-.67-3.28-1-4.91 0-.27-.2-.53 0-.85.4-.21.72.11 1.06.27 7 3.37 13.81 7 20.46 10.94 3.41 2 6.86 4 10.33 6a2.12 2.12 0 0 1 1.25 1.76c.18 2 .47 4 .54 6a74.21 74.21 0 0 1-1.4 16.22c-.17 1-.35 1.92-.57 2.87-.15.68-.29.75-1 .6l-8.4-1.69a12.51 12.51 0 0 0-4-.23 3.19 3.19 0 0 0-3 3 6.75 6.75 0 0 0 .16 2.41ZM211.37 121.87l-2.79-2a144.21 144.21 0 0 0-14.85-9c-3.87-2.07-7.7-4.22-11.55-6.34a14.72 14.72 0 0 1-1.43-.87.51.51 0 0 1-.06-.87c.9-1 1.76-2 2.69-2.92a53.2 53.2 0 0 1 9.62-7.59c2.06-1.31 4.19-2.5 6.34-3.65A50.26 50.26 0 0 1 212.1 84a25.65 25.65 0 0 1 18.09 2.22 26.7 26.7 0 0 1 6.86 5.43 132.68 132.68 0 0 1 15.72 20.32 61.78 61.78 0 0 1 3.34 5.8 17.53 17.53 0 0 1 1.47 4.78 9.72 9.72 0 0 1-.61 5.33 6.25 6.25 0 0 1-6.57 4.12 5.39 5.39 0 0 1-3.14-1.52 46.19 46.19 0 0 0-19.11-10.39 24.32 24.32 0 0 0-12.42-.2 12.72 12.72 0 0 0-4.36 1.98ZM164.86 180.93l7.38-1.3a82.61 82.61 0 0 0 19.84-5.74c2.15-1 4.35-1.89 6.52-2.83.39-.16.76-.35 1.15-.5.9-.36 1-.36 1.62.36a28.29 28.29 0 0 0 6 5.17 17.42 17.42 0 0 0 12.43 2.48c4.07-.67 8-1.89 12-2.95 2.16-.57 4.27-1.27 6.49-1.63a14.17 14.17 0 0 1 5.39.27c.13 0 .26.1.39.14 2.89 1 4.62 3.42 3.28 7a26.24 26.24 0 0 1-5.54 8.8 31.15 31.15 0 0 1-7.93 6.1 69.78 69.78 0 0 1-20.17 7.31 110.16 110.16 0 0 1-13 1.79 34.71 34.71 0 0 1-17.54-3 24.91 24.91 0 0 1-9-7.27 83.5 83.5 0 0 1-5.19-7.6c-1.15-1.83-2.36-3.62-3.54-5.43a1.63 1.63 0 0 1-.58-1.17Z"></path><path fill="#f38704" d="M171.86 127.28q-7.1 3.56-14.18 7.12c-1.24.63-2.47 1.29-3.69 1.95a2.85 2.85 0 0 0-1.12.92.73.73 0 0 0 .32 1 1.89 1.89 0 0 0 1.22 0 57.35 57.35 0 0 0 6-1.65c2.12-.67 4.23-1.38 6.35-2.06.4-.13.81-.18 1.22-.27 1.14.07 1.15.85 1.17 1.73 0 1.1-.46 2.26.3 3.3a8.43 8.43 0 0 0 3.76 2.54c2.94 1.1 5.89 2.16 8.91 3 .77.21.87.42.63 1.21a110.57 110.57 0 0 1-4.21 11.13 107.16 107.16 0 0 1-10.82 19.3l-1.48 2a1.6 1.6 0 0 1-1.2.72c-.49 0-1 .2-1.45.24-2.22.18-4.44.42-6.67.47-4.25.08-8.5.08-12.76.06a115.52 115.52 0 0 1-15.16-1.27c-.54-.07-1.08-.23-1.58-.34-.16-.4.07-.57.27-.74a53.38 53.38 0 0 0 10.09-11.93 108.21 108.21 0 0 0 11.4-23.91q1.5-4.34 2.66-8.79c.11-.46.29-.91.43-1.33a81.25 81.25 0 0 0 9.21-2.17c2.68-.74 5.34-1.58 8-2.37.47-.14.94-.24 1.41-.35s.99-.33.97.49Z"></path><path d="M495.89 425.74c-.05-2.37-.28-4.74-.27-7.11a127.1 127.1 0 0 0-1.1-16.07 6 6 0 0 1 .12-2.67 9.83 9.83 0 0 0-.55-6.75c-.52-1.28-1.15-2.53-1.77-3.78-1.8-3.62-3.73-7.17-5.28-10.91-1.11-2.71-2.14-5.45-3.29-8.14a191.08 191.08 0 0 1-8.05-23.51 6.24 6.24 0 0 1 0-3.68c.88-2.87 1.62-5.77 2.5-8.64a81 81 0 0 0 3.46-20.56c.07-1.88.26-3.76.29-5.64 0-2.37-.07-4.74-.09-7.11 0-3.63-.18-7.25 0-10.88.25-4.18.45-8.36.52-12.55a193.66 193.66 0 0 0-1.3-24.43c-.06-.48-.08-1-.14-1.46a13.58 13.58 0 0 1 1-6.74c1-2.59 1.92-5.23 2.85-7.86a65.94 65.94 0 0 0 3.5-15.25 113.87 113.87 0 0 0 .41-16.93 24.08 24.08 0 0 0-1.86-8.32c-1.3-3.15-2.53-6.34-3.83-9.49a43.75 43.75 0 0 1-3.26-18.4c.14-4 .47-7.93.86-11.89a49.22 49.22 0 0 0-1.4-18 70 70 0 0 0-4.85-12.22 68.36 68.36 0 0 1-3.84-9.93 4.34 4.34 0 0 1-.35-1.83 10.16 10.16 0 0 0-.87-5.09 9.7 9.7 0 0 0-6.7-6.36 30.05 30.05 0 0 0-3.86-.91 112.36 112.36 0 0 1-12-2.65c-2-.59-4-1.24-6-1.79a50.57 50.57 0 0 0-10.5-1.78 35.46 35.46 0 0 0-18.18 3.88 30.65 30.65 0 0 0-10.7 8.51 60.17 60.17 0 0 0-10.63 20 93.59 93.59 0 0 0-3.58 24.55c-.12 4.4.2 8.79.45 13.18.5 8.43 1.11 16.84 1.66 25.27.16 2.57.24 5.16.45 7.73a68.73 68.73 0 0 1 .19 9.41c-.29 5.43-.69 10.86-1 16.29a26.26 26.26 0 0 0 .23 7.51c.22 1 .53 2 .81 3a16.72 16.72 0 0 1-1.45.89c-4.64 2.29-8.9 5.2-13.29 7.9a24.14 24.14 0 0 0-3.95 3.09 9 9 0 0 0-2.35 3.42 4.24 4.24 0 0 0 1.08 5l1.55 1.37a14.37 14.37 0 0 0-2.92 2.53c-1.9 2.32-3.82 4.62-5.71 6.95a90.37 90.37 0 0 1-7.93 8.89 77.14 77.14 0 0 0-7.8 8.17 39 39 0 0 1-7.54 7.21 55.14 55.14 0 0 0-9.86 9 30.44 30.44 0 0 1-2.64 2.69c-1.77 1.68-3.52 3.38-5.14 5.21a18.36 18.36 0 0 1-3.94 3.42 75.48 75.48 0 0 0-10.93 8.74 4.38 4.38 0 0 1-3.45.94.42.42 0 0 1-.4-.41c0-.56-.06-1.11-.12-1.67a24.67 24.67 0 0 0-.49-4.36c-.14-.51-.1-1.18-.82-1.29-.42-.06-.69.71-.48 1.59a27.35 27.35 0 0 1 .36 5.42c0 .49-.16.79-.7.79h-1.67q-11.1.31-22.18.61l-32.23.83-16.32.43c-1.26 0-2.51.08-3.77.1-.33 0-.78.09-.92-.28-.33-.81-1-.82-1.71-1-6-1.39-12-2.71-17.9-4.22a3.24 3.24 0 0 0-3.35.9c-3.76 3.33-7.58 6.59-11.37 9.88l-27.82 24.16c-1.47 1.28-1.43 1.58.32 2.38 3.42 1.57 6.85 3.1 10.26 4.68.49.22 1.08.3 1.42.86a5.21 5.21 0 0 1-.28.52c-1.64 2.34-3.33 4.65-4.9 7-4.27 6.45-8.44 13-12.89 19.31a9 9 0 0 0-.87 1.66 1.14 1.14 0 0 0 .6 1.4 2.9 2.9 0 0 0 1 .26 32.42 32.42 0 0 0 3.55.15c3.84-.14 7.67-.37 11.5-.54 1.46-.07 2.93-.06 4.39-.08a.5.5 0 0 1 .54.51 4.26 4.26 0 0 1 0 .62c-.05 7.54-.13 15.07-.17 22.61 0 2.37.08 4.74.12 7.11a2.29 2.29 0 0 0 1.77 2.3 6.41 6.41 0 0 0 2.26.27c7.12-.19 14.23-.17 21.34-.74 3.61-.29 7.22-.64 10.81-1.15 2.76-.39 5.53-.74 8.3-1 3.33-.35 6.67-.62 10-.91 5.28-.44 10.55-1 15.85-1.25 3.06-.14 6.13-.34 9.19-.56 4.87-.34 9.74-.73 14.61-1.09 2.29-.18 4.59-.38 6.88-.51 3.56-.2 7.11-.36 10.66-.51a21 21 0 0 1 2.51.09c.3 0 .7-.08.87.48l-2.58 2.34a9.9 9.9 0 0 0-2.12 2.57c-.83 1.5-1.13 3-.06 4.52s2.6 1.74 4.29 1.49a6 6 0 0 0 .81-.21 11 11 0 0 0 3.21-1.47 90.38 90.38 0 0 0 10.71-8.37c.3-.29.6-.58.91-.86a.4.4 0 0 1 .55 0c.38.31.77.61 1.12.94a4.54 4.54 0 0 0 3.48 1.12 5.38 5.38 0 0 0 1.65-.27 4.2 4.2 0 0 1 4.94 1.07 3.21 3.21 0 0 0 3.5.7c1-.33 2-.56 3-.91a4 4 0 0 1 3.6.3c2.08 1.27 3.73.61 5.23-1a12.09 12.09 0 0 0 2.31-3.47c.7-1.59 1.43-3.18 2.08-4.79a1.38 1.38 0 0 1 1.36-1c1.47-.05 2.93-.1 4.39-.26 3.4-.37 6.81-.55 10.23-.63 6.7-.15 13.4-.28 20.09-.44 3.07-.07 6.14-.07 9.2-.39a15.63 15.63 0 0 1 1.67-.06c.54 0 .73.18.75.75.15 3.41.35 6.83.43 10.24.21 9-.21 18-.86 27a96.48 96.48 0 0 1-1.39 10.58 120.92 120.92 0 0 1-5 18.11c-1 2.75-2.07 5.47-3.12 8.2-.18.46-.36.9 0 1.35h1.2c.91-2.4 1.84-4.79 2.72-7.2a124.71 124.71 0 0 0 5.84-20.69 99.13 99.13 0 0 0 1.4-11c.55-8.14.92-16.3.85-24.46 0-3.56-.25-7.11-.55-10.66a2.6 2.6 0 0 1 0-1.41 1.2 1.2 0 0 1 1 .31c.93.62 1.88 1.21 2.8 1.84a64.83 64.83 0 0 0 12.34 6.55 4.75 4.75 0 0 1 2.23 1.72 51.63 51.63 0 0 0 25.05 19.08 28.53 28.53 0 0 0 6.1 1.39 15.92 15.92 0 0 0 5.38-.22c.47.43.31.94.3 1.41q-.27 9.42-.55 18.83v1.88a.65.65 0 0 0 1.27.19 7.48 7.48 0 0 0 .23-1c.08-.76.15-1.53.18-2.29.36-9.7.64-19.39.58-29.09 0-1.88.05-3.77.06-5.65 0-1.42.12-1.39 1.31-1.57a167.4 167.4 0 0 0 25-6 79.32 79.32 0 0 0 15.16-7 34.11 34.11 0 0 0 7.23-5.14 8.52 8.52 0 0 1 .49 2.57c.36 4 .55 7.93.6 11.91 0 3.06.25 6.13.3 9.2a120.41 120.41 0 0 1-3.08 27.84c-1.61 7.3-3.87 14.39-5.94 21.55-.63 2.21-1.22 4.43-1.83 6.64a.34.34 0 0 1 .08.16 1.55 1.55 0 0 0 1.47-.15c.51-1.74 1-3.47 1.53-5.21 2.18-7.63 4.63-15.19 6.32-23a123.25 123.25 0 0 0 3.02-29.25Zm-23.59-279c-.37-2.83-.84-5.65-1.26-8.48a2.21 2.21 0 0 1 .06-1.62.73.73 0 0 1 .49-.32.68.68 0 0 1 .5.28 2.34 2.34 0 0 1 .24.79c.4 3.33 1.19 6.58 1.57 9.92.22 1.94.33 3.89.38 5.7a44.68 44.68 0 0 1-1.72 12.74 3.3 3.3 0 0 1-.67 1.5.65.65 0 0 1-.54.17.74.74 0 0 1-.43-.4 2.27 2.27 0 0 1 .14-1.43 54.62 54.62 0 0 0 1.58-8.63 41.14 41.14 0 0 0-.34-10.26Zm-4.08 30.68c.16.11.39.27.4.42a14.43 14.43 0 0 1-.09 1.62 29.5 29.5 0 0 0 .85 5.39 88 88 0 0 0 4.13 12.47c1.41 3.56 2.82 7.11 4.27 10.65a56 56 0 0 1 3.51 14.36c.1.83.21 1.65.29 2.49.05.48.05 1 .06 1.46a1 1 0 0 1-.59 1c-.33.15-.78-.34-.86-1-.2-1.59-.35-3.18-.55-4.77a49.29 49.29 0 0 0-3.24-12.92c-1.42-3.48-2.79-7-4.17-10.47a86.67 86.67 0 0 1-4.07-12c-.41-1.75-.69-3.55-1-5.34a9.67 9.67 0 0 1 0-2.28 2.1 2.1 0 0 1 .45-.91.39.39 0 0 1 .61-.21Zm-32.4-70.16a4 4 0 0 1 2.22-1.8 11.83 11.83 0 0 1 3.46-.74 24.71 24.71 0 0 1 7.28.51 58.61 58.61 0 0 1 7.58 2.3 4.4 4.4 0 0 1 1.48.75.78.78 0 0 1 .29.79.6.6 0 0 1-.59.43 5.16 5.16 0 0 1-1.18-.36 53.25 53.25 0 0 0-8.19-2.47 22.49 22.49 0 0 0-7.89-.32 4.69 4.69 0 0 0-3.44 1.72.55.55 0 0 1-.89.13.7.7 0 0 1-.13-.98Zm-15.28 16a2.16 2.16 0 0 1 1.42-.12c1.18.16 2.35.32 3.51.53a30 30 0 0 0 9.16.32 30.88 30.88 0 0 0 12.77-4.22 14.87 14.87 0 0 0 4.83-4.54 1.79 1.79 0 0 1 .56-.6.59.59 0 0 1 .55 0 .63.63 0 0 1 .3.5 2.75 2.75 0 0 1-.36 1 13.86 13.86 0 0 1-3.68 4 26.86 26.86 0 0 1-10.19 4.62 31.89 31.89 0 0 1-8.24 1c-3.53.07-6.93-.75-10.38-1.25a.57.57 0 0 1-.36-.18.84.84 0 0 1-.23-.53.72.72 0 0 1 .34-.59Zm-1 10.43a.75.75 0 0 1 .88-.65c1.74.1 3.49.22 5.23.19a53.9 53.9 0 0 0 26.65-7.45 31.48 31.48 0 0 0 7-5.58l1.42-1.55a3 3 0 0 1 1.78 2 56.57 56.57 0 0 1 3.33 9.88 75.43 75.43 0 0 1 1.75 24.7 69.28 69.28 0 0 1-5.53 22 45.45 45.45 0 0 1-5.78 9.66c-1 1.22-1.13 1.27-2.69.78s-3.25-1.21-4.88-1.82a45.35 45.35 0 0 0-7.07-1.84 9.31 9.31 0 0 0-5.72.61 28.63 28.63 0 0 0-8.14 5l-4.38 4.13c-.42-.05-.41-.38-.45-.61a37.88 37.88 0 0 0-4-11c-.89-1.73-1.73-3.5-2.73-5.17a36.64 36.64 0 0 0-6.11-8.16c-.27-.31-.68-.09-1-.26s-.68-.28-1-.43c-1.84-1.52-3.73-.47-5.61-.11-1.83-1.29-2.59-3.24-3.16-5.27a31.44 31.44 0 0 1-.8-4.09 9 9 0 0 1 .66-4.92 4.38 4.38 0 0 1 2.83-2.58 2.91 2.91 0 0 1 3.09.65c.79.74.95.75 1.77.14 5.7-4.17 10.2-9.27 12.17-16.24.19-.7.29-1.39.45-2.07Zm-8.78 50.65c-.25-.94-.53-1.88-.79-2.81a3.37 3.37 0 0 1-.18-.81.57.57 0 0 1 .46-.61.65.65 0 0 1 .71.29.44.44 0 0 1 .09.18 37.9 37.9 0 0 1 2.47 10.94 28 28 0 0 1-.82 6.42 9.92 9.92 0 0 1-.67 1.74.79.79 0 0 1-1 .48c-.37-.13-.5-.51-.28-1a19.77 19.77 0 0 0 1.19-6.33 27.41 27.41 0 0 0-1.22-8.55Zm-4.48-9a.46.46 0 0 1-.35.12 1.29 1.29 0 0 1-.55-.27 5.6 5.6 0 0 1-2-5 .53.53 0 0 1 .31-.48c.12 0 .28.05.35.13a.57.57 0 0 1 .14.37 5.29 5.29 0 0 0 1.89 4.41.85.85 0 0 1 .24.33.44.44 0 0 1-.07.32Zm10.22-45.08a1.84 1.84 0 0 1-.06.41 18.16 18.16 0 0 1-5.63 9.52 1.48 1.48 0 0 1-1.16.52c-.11-.09-.32-.18-.41-.34a.69.69 0 0 1 0-.56 5.42 5.42 0 0 1 .66-.79c.91-1 1.86-2.06 2.73-3.14a13.4 13.4 0 0 0 2.12-4.26c.2-.59.38-1.18.62-1.76a.62.62 0 0 1 .68-.37c.37-.01.4.35.41.7Zm-20.56 5a5.35 5.35 0 0 1 .32-1 62.06 62.06 0 0 1 10.06-16.53 30.76 30.76 0 0 1 8.29-6.61 3.21 3.21 0 0 1 1-.38c.33-.07.46.23.61.53-.06.15-.08.41-.22.51-.43.34-.91.63-1.37.93a33.34 33.34 0 0 0-9 8.31 64.45 64.45 0 0 0-7.66 13.14 10.37 10.37 0 0 1-.9 1.63.53.53 0 0 1-.74.15.66.66 0 0 1-.43-.75Zm-2.76 22.25c.08-1 .09-1.95.16-2.92a3.09 3.09 0 0 1 .22-1 .65.65 0 0 1 .5-.28.65.65 0 0 1 .47.32 5.08 5.08 0 0 1 .12 1.23c-.05 2.51-.12 5-.2 8.34a101.08 101.08 0 0 0 1.67 17.48 154.08 154.08 0 0 1 2.38 17c.08 1 .21 2.08.29 3.12a35.71 35.71 0 0 1-.85 8.93c-.27 1.51-.56 3-.85 4.51a7.25 7.25 0 0 1-.34 1.21.6.6 0 0 1-.69.34.64.64 0 0 1-.52-.57 5.82 5.82 0 0 1 .16-1.86c.37-1.92.69-3.84 1.08-5.75a31.35 31.35 0 0 0 .3-9.37c-.4-4.31-.87-8.6-1.61-12.86-.46-2.61-1-5.2-1.37-7.82a88.76 88.76 0 0 1-.96-20.12Zm-21.76 97.74a2.87 2.87 0 0 1-.87-3.9 8 8 0 0 1 2-2.66 23.82 23.82 0 0 1 3.46-2.7c4.4-2.68 8.71-5.5 13.28-7.92a63.87 63.87 0 0 0 15-11.22c.25-.24.52-.47.77-.7.43-.09.63 0 .53.51a98.64 98.64 0 0 1-4.42 11 35.17 35.17 0 0 1-9.77 12.62 22.42 22.42 0 0 0-3.58 3.51 18.59 18.59 0 0 0-3.24 6.28c-.22.74-.37.8-1 .55-3-1.19-5.95-2.37-8.92-3.58a11.19 11.19 0 0 1-3.28-1.86Zm-61.89 64.93a80.07 80.07 0 0 1 9.72-7.59 18.38 18.38 0 0 0 3.92-3.44c1.64-1.82 3.38-3.52 5.15-5.21a32.39 32.39 0 0 0 2.78-2.84 50.8 50.8 0 0 1 9.24-8.46 43.57 43.57 0 0 0 8.29-7.93 73.38 73.38 0 0 1 7.52-7.85 85.73 85.73 0 0 0 7.55-8.4c2-2.49 4-5 6.06-7.49a10.82 10.82 0 0 1 1.45-1.5c1.74-1.45 1.74-1.43 3.87-.6l6.84 2.59c.39.15.77.32 1.15.48a1.23 1.23 0 0 1 .9 1.44 7.85 7.85 0 0 0 .09 1.87 11 11 0 0 0 2.09 5c.83 1.2 1.76 2.33 2.71 3.58a23.21 23.21 0 0 0-3.74 4.18 62.05 62.05 0 0 0-5.14 8.62c-1.21 2.5-2.45 5-3.57 7.55a4.15 4.15 0 0 1-2.21 2.35 25.09 25.09 0 0 0-5.88 4c-3.31 2.69-6.26 5.76-9.33 8.71a37.06 37.06 0 0 1-7.1 5.48c-2.47 1.43-4.86 3-7.22 4.62a5.79 5.79 0 0 1-3.32 1c-9.14.18-18.28.42-27.41.65-1.6 0-3.2.1-4.78.15-.28-.64.09-.82.33-1.03Zm64.75-21.68c0 .1-.06.14-.1.14a1 1 0 0 1-.11.39 2.77 2.77 0 0 0-.26.48c-1.24 2.56-2.44 5.15-3.72 7.69-1.73 3.42-3.52 6.8-5.28 10.19-.22.44-.5.84-.68 1.29a1.53 1.53 0 0 1-1.65 1c-4.31.09-8.63.23-12.94.35h-2.44c-.12-.57.31-.65.55-.81 2.05-1.32 4.1-2.63 6.18-3.9a26 26 0 0 0 4.49-3.38c2.31-2.22 4.6-4.46 6.94-6.65a62.25 62.25 0 0 1 8-6.63.76.76 0 0 1 .5-.31.26.26 0 0 1 .31 0c.14-.07.19 0 .17.08Zm-150.12 26.79a.56.56 0 0 1 .55-.52c.55 0 1.11-.07 1.67-.08l27.83-.68c3-.08 6-.2 9-.3v.06q14.55-.4 29.09-.81c2.86-.08 5.72-.12 8.58-.17.73 0 .87.11 1 .78a36.18 36.18 0 0 0 .65 4.13 21.8 21.8 0 0 0 7.65 11.93 2.76 2.76 0 0 0 1.25.72.6.6 0 0 0 .66-.39.72.72 0 0 0 0-.58 13 13 0 0 0-1.24-1.1 20 20 0 0 1-6.85-10.77 16.94 16.94 0 0 1-.65-4.13.58.58 0 0 1 .61-.66c2.3-.08 4.6-.18 6.91-.24 8.44-.21 16.88-.38 25.32-.6q12.13-.31 24.27-.67h1.46a.36.36 0 0 1 .34.55c-.12.25-.25.5-.39.74-2.32 4-4.58 8-7 11.9-2.71 4.4-5.11 9-7.56 13.5-1.67 3.09-.75 2.4-4.27 2.6l-18.39 1.08c-2.78.17-5.57.35-8.35.5-6.13.34-12.27.65-18.39 1-8.36.48-16.72 1-25.08 1.48-6 .35-12 .65-18 1s-12 .71-18 1.06l-10.86.6h-1.26a.5.5 0 0 1-.52-.52v-1l-.09-29.31a7.36 7.36 0 0 1 .06-1.1Zm-1.38.91q.06 15 .13 29.91v.63a.67.67 0 0 1-.65.68c-.34 0-.69.08-1 .1-5.85.32-11.69.62-17.54 1s-12 .72-18 1.06c-2.22.13-4.44.22-7 .35 1.49-1.49 42.25-33.43 43.8-34.38.28.09.26.37.26.65Zm-59.6 27.8c-.12-.06-.2-.2-.3-.3.07-.45.47-.63.77-.88l37.76-32.78a4.76 4.76 0 0 0 .47-.41 2 2 0 0 1 2.25-.58c3.93 1 7.86 1.86 11.8 2.78l6.45 1.5c-.71.58-1.07.89-1.45 1.19l-43.63 34.21c-.27.22-.56.42-.82.65a1.11 1.11 0 0 1-1.34.12c-3.98-1.84-7.97-3.65-11.96-5.5ZM175 388.74c-4.45 0-8.92.1-13.37.55a39 39 0 0 1-4.19 0c-.67 0-.81-.36-.43-1a6 6 0 0 1 .36-.52c4.07-5.75 7.84-11.69 11.73-17.57 1.61-2.44 3.27-4.85 4.86-7.31a2.71 2.71 0 0 1 2.37-1.39c6.76-.33 13.52-.71 20.27-1.1 6-.34 12-.71 18-1.07 2.72-.16 5.43-.33 8.15-.48q12.85-.7 25.7-1.42c8.36-.48 16.72-1 25.07-1.48 6-.35 12-.64 18-1s12.11-.72 18.17-1.08l7.52-.43 26.13-1.45a2.6 2.6 0 0 1 1.41.09c.17.39-.07.66-.23 1-1.37 2.59-2.77 5.15-4.35 7.62-3.41 5.36-6.35 11-9.5 16.49-1.18 2.06-.63 1.87-3 1.77-8.46-.36-16.88.13-25.31.58-3.63.2-7.25.37-10.87.62-4.87.33-9.74.73-14.61 1.1-2 .15-4 .34-6.05.46-5.5.34-11 .61-16.5 1-6.55.44-13.09.85-19.62 1.5-5.48.54-11 .95-16.46 1.45-3.55.31-7.09.64-10.63 1a325 325 0 0 1-32.62 2.07Zm114.86 25.73c-3.63 0-7.25 0-10.87.33-4.52.35-9.05.66-13.57 1-2.16.16-4.31.37-6.47.5-4.52.29-9.05.51-13.58.82-3.9.26-7.79.59-11.68.92s-7.93.68-11.88 1.09c-2.92.3-5.82.68-8.72 1.06-3.32.45-6.64.83-10 1.12-7.38.63-14.77.74-22.17.79h-1.88a1.08 1.08 0 0 1-1.08-1.07c-.06-.48 0-1-.06-1.46-.22-7.89 0-15.77 0-23.66v-4.6c0-.83.17-.95 1-1l10-.4c4.61-.19 9.19-.63 13.77-1.13 3.39-.38 6.8-.64 10.21-1 5.69-.53 11.38-1.1 17.08-1.59 6-.51 12-1 17.94-1.41 8.91-.62 17.83-1.11 26.74-1.72 6.47-.44 12.94-1 19.41-1.46 2.09-.16 4.18-.24 6.27-.34 8-.39 16-.95 24.06-.74 1.32 0 2.63.1 4.13.16a4.61 4.61 0 0 1-.22.84c-1.71 3.59-3.66 7.05-5.64 10.5a2.89 2.89 0 0 1-2.43 1.67 62.81 62.81 0 0 0-9.17 2 9.08 9.08 0 0 0-3.3 1.76 17.62 17.62 0 0 0-3.75 4.19c-2.23 3.3-4.78 6.36-7.27 9.46l-.4.48c-.87 1-1.63 2.23-2.8 2.78s-2.46.12-3.71.11Zm47.87-7.57a83 83 0 0 1-3.28 7.92 9.06 9.06 0 0 1-2.41 3.11 2 2 0 0 1-2.5.34l-.74-.4a5 5 0 0 0-3.86-.33c-.94.27-1.89.51-2.79.86a2.65 2.65 0 0 1-3.24-.6 4.69 4.69 0 0 0-.82-.65 4.08 4.08 0 0 0-3.76-.65 13.58 13.58 0 0 1-2.46.5 3 3 0 0 1-2.67-.88c-2-2.11-3-1.36-4.53.16a83 83 0 0 1-10.22 8 7.84 7.84 0 0 1-4.64 1.67 2.06 2.06 0 0 1-1.91-1.06 1.8 1.8 0 0 1-.19-1.6 7.39 7.39 0 0 1 2.09-3.07l4.17-3.83a49.22 49.22 0 0 0 5.62-6.19c2.09-2.7 4.27-5.34 6.16-8.19a14.52 14.52 0 0 1 2.48-2.83 9.72 9.72 0 0 1 4.22-2.19c1.49-.35 3-.8 4.45-1.15a18.51 18.51 0 0 1 3.28-.59 4.32 4.32 0 0 0 4-2.57c1.43-2.71 3-5.35 4.4-8.07s2.93-5.71 4.52-8.49c3.15-5.51 6.19-11.08 9.57-16.45 1.77-2.83 3.23-5.86 4.85-8.79 3.21-5.79 6.3-11.64 9.76-17.3q9.24-15.18 17-31.22c2.37-4.89 4.65-9.83 7-14.74a68 68 0 0 1 6-10 9.6 9.6 0 0 1 2.68-2.67 5.46 5.46 0 0 1 .68.47 119 119 0 0 0 9.24 7.53c1.67 1.27 3.3 2.57 4.86 4 2.69 2.44 5.59 4.63 8.46 6.84a15.67 15.67 0 0 0 5.31 2.48 2.44 2.44 0 0 1-.89 1.8c-5.54 6.22-10 13.28-15 19.88-6.57 8.59-13.21 17.12-20.05 25.5-5.51 6.76-11.23 13.35-16.94 19.94-1.27 1.48-2.49 3-3.72 4.53-3 3.75-6 7.53-9 11.27a89 89 0 0 0-15.22 27.71Zm56.85-61.9c-3.88.31-7.76.6-12.17.94 3.66-4.38 6.76-8.54 10.1-12.46.59.1.49.54.58.81a53.57 53.57 0 0 1 2 9.78c.07.42.05.86-.51.93Zm.34 1.72a4.68 4.68 0 0 1-.78 2.17q-5.72 12.08-11.46 24.13a19.52 19.52 0 0 0-1 2.08 1.67 1.67 0 0 1-1.56 1.15c-2.2.32-4.41.66-6.61 1l-15.05 2.4c-1.1.18-2.19.37-3.3.53a1.06 1.06 0 0 1-1.05-.18c.62-.81 1.22-1.65 1.87-2.44 5-6.14 9.88-12.44 15.15-18.38 3.06-3.44 6-7 8.94-10.52a2.91 2.91 0 0 1 2.28-1.15c3.68-.22 7.36-.53 11-.79.55-.05 1.04-.02 1.57-.02Zm-11.19 59.21c-1.74.11-3.48.22-5.22.27-10.05.29-20.09.53-30.13.84-2.72.09-5.43.38-8.14.58-.94.06-1.09-.14-.77-1.08s.59-1.72.95-2.55c1.12-2.63 2.27-5.24 3.39-7.86 2-4.72 5-8.84 7.91-13a2.58 2.58 0 0 1 1.91-1.09l5.58-.9 15.07-2.4c2.14-.34 4.27-.73 6.42-.94a2.59 2.59 0 0 0 2.3-1.8c3.72-7.95 7.5-15.88 11.26-23.81.44-.93.91-1.86 1.39-2.81a1.86 1.86 0 0 1 .53 1.39c.19 1.87.46 3.75.51 5.63.26 9.41.79 18.82 1 28.24.09 4.8.55 9.61.89 14.41a15 15 0 0 1-.2 3.54 1.73 1.73 0 0 1-1.09 1.41 14.26 14.26 0 0 1-5.62 1.45c-2.67.01-5.3.31-7.94.46Zm59 17.59q-.07 6-.17 11.91v1a.78.78 0 0 1-.75.83 20.41 20.41 0 0 1-2.06.29 23.26 23.26 0 0 1-9-1.51 48.73 48.73 0 0 1-16.47-10 45.38 45.38 0 0 1-6-6.41l-.77-1c2.18.11 4 .84 5.84 1.14s3.83.71 5.75 1 3.72.55 5.59.77 3.87.4 5.81.6a54.37 54.37 0 0 0 9.8 0 6.37 6.37 0 0 1 2.26-.07 2.78 2.78 0 0 1 .21 1.43Zm47.89-20a37.63 37.63 0 0 1-5.69 3.89c-1.14.68-2.35 1.22-3.51 1.86-6.65 3.68-13.83 5.91-21.15 7.73-4.26 1.06-8.53 2.11-12.87 2.79-1.93.31-3.86.56-5.81.68a93.53 93.53 0 0 1-13.6-.08c-2.15-.18-4.28-.58-6.42-.82a97.24 97.24 0 0 1-14.55-2.87 37.62 37.62 0 0 1-5.25-2.06 69.16 69.16 0 0 1-11.09-6.27 10.25 10.25 0 0 1-.85-.62.38.38 0 0 1-.07-.36.41.41 0 0 1 .29-.22 8 8 0 0 1 1.46-.08c2.4.18 4.51-.73 6.61-1.69a2.88 2.88 0 0 0 1.65-2 8.66 8.66 0 0 0 .32-2.48c0-1.32 0-2.65-.16-4-.38-3.82-.58-7.65-.72-11.48-.16-4.6-.26-9.21-.41-13.81s-.24-9.48-.5-14.22a68.09 68.09 0 0 0-1.54-12.22 33.15 33.15 0 0 1-.8-4.95 32.53 32.53 0 0 0-1.31-6.12c-.14-.47-.24-1-.38-1.41a1.89 1.89 0 0 1 .36-1.95c.55-.63 1-1.31 1.55-2 4-5.3 7.91-10.63 11.9-15.92 2.65-3.51 5.36-7 8-10.46 1.18-1.55 2.19-3.23 3.47-4.72a1.81 1.81 0 0 1 1.78-.82 2.75 2.75 0 0 0 .41 0c3.63.35 6.5-1.13 9-3.65a74.3 74.3 0 0 0 10.72-13.62c1.19-2 2.33-4 3.5-5.94a1.75 1.75 0 0 0 .4-1.16.75.75 0 0 0-.32-.5.64.64 0 0 0-.57.07 4.88 4.88 0 0 0-.78 1c-.93 1.47-1.85 3-2.74 4.45a75.78 75.78 0 0 1-10.79 14.09 16.9 16.9 0 0 1-3 2.57 6.94 6.94 0 0 1-3.54 1.11 15.15 15.15 0 0 1-10.17-3.14c-3.09-2.4-6.13-4.84-9.06-7.43-1.72-1.53-3.61-2.85-5.41-4.29-2-1.61-4-3.22-6-4.87a29.83 29.83 0 0 1-4.6-4.86 24.57 24.57 0 0 1-1.53-2.24 8.55 8.55 0 0 1-1.05-6.82 17.06 17.06 0 0 1 4.74-8.46c.86-.81 1.75-1.6 2.66-2.35a35.76 35.76 0 0 0 8.13-10 52.25 52.25 0 0 0 3.33-7.21q2.75-7.12 5.46-14.26a89.49 89.49 0 0 1 9.73-18.69 52.79 52.79 0 0 1 10.63-11.2 24.09 24.09 0 0 1 6-3.37 8.06 8.06 0 0 1 4.9-.6 55.49 55.49 0 0 1 13 4.42 19.82 19.82 0 0 1 6.42 5.26 67.66 67.66 0 0 1 12.11 22.53 77.52 77.52 0 0 1 3.4 15.71c.35 3.26 1.18 6.44 1.8 9.65.33 1.72.73 3.41 1 5.13.23 1.44.2 2.91.37 4.36.55 4.64.85 9.3 1.13 14 .31 5.16.3 10.32.15 15.48-.09 3.21-.21 6.41-.44 9.61-.21 2.87 0 5.72 0 8.58 0 3.9.08 7.8-.16 11.71s-.5 7.65-.92 11.46a30.16 30.16 0 0 1-.75 3.9c-1.29 5.43-3 10.74-4.46 16.12a91.32 91.32 0 0 0-2.87 15.39c-.18 1.95-.34 3.89-.38 5.85a25.7 25.7 0 0 0 .57 5.39 8.32 8.32 0 0 0 .33 1.21c.16.48.39.93 1 .94.42 0 .68-.67.49-1.38-1.08-4-.82-8-.4-12.05a77.33 77.33 0 0 1 1.4-9.09 5.54 5.54 0 0 1 .17-.58c.44.1.52.43.62.77a167.45 167.45 0 0 0 7.31 21.13c1.34 3.22 2.63 6.45 4 9.67 1.54 3.67 3.51 7.12 5.24 10.7a18.41 18.41 0 0 1 1.73 4.47 7.78 7.78 0 0 1-2.58 7.69Z"></path><path fill="#0c0a0a" d="m73 90.9.83-.09c.47.66.51 1 .14 1.18-.59.36-1.22.67-1.8 1.05a30.3 30.3 0 0 0-8.13 8 8.34 8.34 0 0 0-.86 1.65.73.73 0 0 1-1 .37.78.78 0 0 1-.37-1.06 9.33 9.33 0 0 1 .9-1.64 29 29 0 0 1 7-7.36c.45-.32.89-.66 1.34-1A6.46 6.46 0 0 0 73 90.9Z"></path><path fill="#020101" d="M135.44 138a26.67 26.67 0 0 0-8.81-15.73A35 35 0 0 0 94 115a29.29 29.29 0 0 0-14.82 9.3c-5.36 6.41-7.23 13.74-5.23 21.89a26.64 26.64 0 0 0 9.25 14.34 34.31 34.31 0 0 0 22.18 7.9 32.42 32.42 0 0 0 11.1-1.76A28.86 28.86 0 0 0 131 156.22a23.65 23.65 0 0 0 4.44-18.22Zm-10.12 22.1a30.15 30.15 0 0 1-13.12 6.13 43.93 43.93 0 0 1-6.49.69c-8.29-.16-15.44-2.49-21.59-7.59A25.15 25.15 0 0 1 76.46 149c-3.57-9.22-1.91-17.55 4.73-24.79 4.6-5 10.52-7.69 17.19-8.71a33.58 33.58 0 0 1 20.14 3.07 29.35 29.35 0 0 1 10.5 8.46c8.09 10.49 6.8 24.41-3.7 33.07Z"></path><path fill="#010000" d="M354.08 204.38a32.12 32.12 0 0 0-3.38-4 58.07 58.07 0 0 0-9.78-7.82c-4-2.59-8.11-4.89-12.25-7.21-3.77-2.11-7.52-4.25-11.11-6.66a104.9 104.9 0 0 1-17.72-15.27c-3.45-3.65-6.86-7.34-10.34-11a77.62 77.62 0 0 0-9.79-8.49c-7.37-5.48-15.76-8.15-24.76-9.22-2.57-.31-5.15-.24-7.73-.37-2.24 1.46-4.89.77-7.31 1.32a39 39 0 0 1-5 .72 50.88 50.88 0 0 0 7.19-.58 56.17 56.17 0 0 1 27.72 3.6c6 2.46 11.12 6.36 15.86 10.73s9.31 9.43 13.84 14.27a113.65 113.65 0 0 0 29.63 22.31A103.55 103.55 0 0 1 346.79 198a34.61 34.61 0 0 1 6.57 7 18.59 18.59 0 0 1 3.33 13.65 23.34 23.34 0 0 1-18.82 19.91 25.13 25.13 0 0 1-10-.36c-4-.87-7.94-2.19-11.88-3.37-.54-.16-1.18-.27-1.4-.93a4.81 4.81 0 0 0-1.92-.61c-.45-.12 1.69.19 2.23.16.95-.72 2.14-.25 3.2-.41 3 0 6 .38 9-.2 13.5-2.65 16.2-15.24 10.9-24.84-4.38-8-11.22-13.14-19.32-16.93-10.18-4.76-21.06-6.8-32-8.41-9.32-1.36-18.62-2.84-27.64-5.64a84.59 84.59 0 0 1-29.47-16.24 8.43 8.43 0 0 0-1.15-.92s-.11 0-.18 0a63.32 63.32 0 0 0 13.23 9.79c1.12.64 2.49 1 3 2.4a.3.3 0 0 1 0 .1 4.68 4.68 0 0 0 1.43.88c.21.13.43.25.65.37a3.17 3.17 0 0 0 .41.21l.59.28a1.21 1.21 0 0 0 .42.05.85.85 0 0 1 .57.2c.26.09.53.16.78.27a71.17 71.17 0 0 0 9.59 3.55 171.43 171.43 0 0 0 26 5.39q7.56 1.06 15 2.57a83.93 83.93 0 0 1 20.49 7 41.86 41.86 0 0 1 12.06 8.89 28.52 28.52 0 0 1 5.48 8.1 16.8 16.8 0 0 1 1.43 10.38 13.39 13.39 0 0 1-7.52 9.94 18.55 18.55 0 0 1-8.9 1.91c-1.18 0-2.37-.18-3.55-.17-4.55 0-9-.72-13.55-1.08-3.05-.24-6.1-.56-9.17-.61-4.26-.06-8.51.11-12.76.4a11.93 11.93 0 0 0-5.13 1.62 6.88 6.88 0 0 0-2.78 8.21 9.84 9.84 0 0 0 2.49 3.56c1 .89 2 1.71 3.08 2.52a38.82 38.82 0 0 1 5.4 4.93 20.92 20.92 0 0 1 4.35 7.55 13.92 13.92 0 0 1-.05 9.23 14.9 14.9 0 0 0-.67 2.41 7.83 7.83 0 0 0 1.92 6.59 2.15 2.15 0 0 0 .84.58.59.59 0 0 0 .54-.15.64.64 0 0 0 .19-.54 15.75 15.75 0 0 0-.89-1.4 6.59 6.59 0 0 1-1-5.58 14 14 0 0 1 .42-1.4 15.65 15.65 0 0 0-.42-11.63 23.23 23.23 0 0 0-3.78-6.23 38.23 38.23 0 0 0-6-5.54c-1-.77-2-1.55-2.92-2.37a8 8 0 0 1-2.09-2.85 5.27 5.27 0 0 1 2-6.59 8.1 8.1 0 0 1 3.73-1.27 55.9 55.9 0 0 1 6.47-.25c2.37.1 4.75.15 7.12.25.83 0 1.66.15 2.49.23 2.79.26 5.5 1 8.24 1.44a89.46 89.46 0 0 1 11.19 2.61c1.59.5 3.2.94 4.8 1.42a35.78 35.78 0 0 0 14.06 1.48 21.65 21.65 0 0 0 2.26-.35 19.23 19.23 0 0 0 6.41-3c4.81-3 8.46-7 10.15-12.57.25-.8.5-1.6.71-2.41a19.47 19.47 0 0 0-2.97-16.8Z"></path><path fill="#7a7a7a" d="m483.4 483.64.07-.47H485c0 .15 0 .31.05.46Z"></path><path fill="#020101" d="m193.82 37.72-7.72-.6a107.94 107.94 0 0 0-15.47 0c-19.56 1.26-38.12 6.42-56 14.18a221.23 221.23 0 0 0-35.58 19.36 4.26 4.26 0 0 1-1.81 1 .87.87 0 0 1-.57-.19c-.26-.21-.16-.5 0-.74a5.39 5.39 0 0 1 1.61-1.31A216.45 216.45 0 0 1 98.73 57.2a213.2 213.2 0 0 1 36.42-15.08 164.87 164.87 0 0 1 24.47-5.39 133.19 133.19 0 0 1 26.92-1.1c1.74.11 3.48.27 5.21.49a24.73 24.73 0 0 0 4.38.28h.42a.54.54 0 0 1 .56.51.61.61 0 0 1-.58.71h-2.71Z"></path><path fill="#030202" d="M205.05 238.15a105.67 105.67 0 0 1-25.89-5.55 183.58 183.58 0 0 1-29.38-13c-7.23-3.89-14.45-7.83-21.68-11.73a9.94 9.94 0 0 0-2.44-1.16 1.37 1.37 0 0 1-.55-.28c-.33-.27-.64-.57-.46-1.06s.63-.58 1.23-.3c.76.36 1.5.74 2.24 1.13q10.88 5.89 21.67 11.8a193.43 193.43 0 0 0 26.58 12.11 122.21 122.21 0 0 0 20.33 5.53 79.74 79.74 0 0 0 10.8 1.14 3.51 3.51 0 0 1 1.64.21.54.54 0 0 1 .35.47.48.48 0 0 1-.3.49 3.21 3.21 0 0 1-1 .22c-1.05 0-2.09-.02-3.14-.02ZM64.58 69.89c-.14-.1-.31-.15-.35-.25a.77.77 0 0 1-.06-.57 2.22 2.22 0 0 1 .55-.6 107 107 0 0 1 16.63-11.54c4.44-2.62 8.84-5.31 13.32-7.87A182.16 182.16 0 0 1 114 39.2a105.15 105.15 0 0 1 22.78-6.79 2.91 2.91 0 0 1 1 0 .66.66 0 0 1 .4.43.63.63 0 0 1-.19.53 3.5 3.5 0 0 1-1.75.6 116.32 116.32 0 0 0-14.91 4 99.89 99.89 0 0 0-12.15 5c-6.63 3.25-13.11 6.8-19.44 10.59-5.2 3.12-10.46 6.15-15.52 9.49A67 67 0 0 0 67 68.4a18 18 0 0 1-1.86 1.34 1.61 1.61 0 0 1-.56.15ZM199.4 250a40.7 40.7 0 0 1-8.84-1.45 114.27 114.27 0 0 1-23.47-9.19c-5.64-2.9-11.09-6.12-16.48-9.46q-8.87-5.52-17.72-11.07-.79-.49-1.56-1a3.18 3.18 0 0 1-.58-.58.59.59 0 0 1 0-.76.55.55 0 0 1 .73-.21c.5.25 1 .57 1.43.86 8.37 5.27 16.7 10.6 25.22 15.63A144.68 144.68 0 0 0 181 243.9a86 86 0 0 0 14.41 4.17 25.16 25.16 0 0 0 5.4.59 3.21 3.21 0 0 1 .82.05.46.46 0 0 1 .42.4.62.62 0 0 1-.35.67 1.43 1.43 0 0 1-.6.17c-.58.05-1.1.05-1.7.05Z"></path><path fill="#050404" d="M345 164c-.13.26-.34.52-.63.41a3.83 3.83 0 0 1-1.07-.62c-2.21-1.8-4.47-3.56-6.61-5.46-6.68-5.92-13.05-12.18-19.26-18.6-.53-.55-1-1.12-1.54-1.71-.25-.32-.49-.69-.1-1.11s.59-.28 1.05.18c1.87 1.89 3.71 3.79 5.59 5.66 4.76 4.7 9.52 9.42 14.54 13.86 2.24 2 4.56 3.89 6.84 5.84.37.31.73.64 1.08 1a.5.5 0 0 1 .11.55Z"></path><path fill="#070505" d="M305.62 134.89a9 9 0 0 1 .89.66c2.05 2 4.11 3.95 6.13 6 3 3 5.88 5.95 8.81 8.93 2.1 2.13 4.15 4.32 6.44 6.26a2.71 2.71 0 0 1 .64.79.55.55 0 0 1-.6.76 3.34 3.34 0 0 1-1.08-.59c-1.2-1-2.42-2.1-3.54-3.24Q315.65 146.72 308 139c-.88-.89-1.77-1.77-2.63-2.69a1 1 0 0 1-.29-.73c.06-.25.34-.44.54-.69Z"></path><path fill="#080707" d="M301 305.05a2.41 2.41 0 0 1-.08.46c-.08.19-.15.42-.4.41a1 1 0 0 1-.55-.17 1.29 1.29 0 0 1-.42-.93c-.28-1.86-.58-3.71-.83-5.58a54.72 54.72 0 0 0-1.29-8 12.73 12.73 0 0 0-2.27-5.11.74.74 0 0 1-.17-.37.55.55 0 0 1 .05-.39.88.88 0 0 1 .53-.27 1.22 1.22 0 0 1 .88.5 8.72 8.72 0 0 1 1.45 2.53 31.16 31.16 0 0 1 2 8.3c.31 2.56.65 5.11 1 7.67.02.31.1.65.1.95Z"></path><path fill="#f38704" d="M474.34 349c.44.1.52.43.62.77a167.45 167.45 0 0 0 7.31 21.13c1.34 3.22 2.63 6.45 4 9.67 1.54 3.67 3.51 7.12 5.24 10.7a18.41 18.41 0 0 1 1.73 4.47 7.78 7.78 0 0 1-2.56 7.75 37.63 37.63 0 0 1-5.69 3.89c-1.14.68-2.35 1.22-3.51 1.86-6.65 3.68-13.83 5.91-21.15 7.73-4.26 1.06-8.53 2.11-12.87 2.79-1.93.31-3.86.56-5.81.68a93.53 93.53 0 0 1-13.6-.08c-2.15-.18-4.28-.58-6.42-.82a97.24 97.24 0 0 1-14.55-2.87 37.62 37.62 0 0 1-5.25-2.06 69.16 69.16 0 0 1-11.09-6.27 10.25 10.25 0 0 1-.85-.62.38.38 0 0 1-.07-.36.41.41 0 0 1 .29-.22 8 8 0 0 1 1.46-.08c2.4.18 4.51-.73 6.61-1.69a2.88 2.88 0 0 0 1.65-2 8.66 8.66 0 0 0 .32-2.48c0-1.32 0-2.65-.16-4-.38-3.82-.58-7.65-.72-11.48-.16-4.6-.26-9.21-.41-13.81s-.24-9.48-.5-14.22a68.09 68.09 0 0 0-1.54-12.22 33.15 33.15 0 0 1-.8-4.95 32.53 32.53 0 0 0-1.31-6.12c-.14-.47-.24-1-.38-1.41a1.89 1.89 0 0 1 .36-1.95c.55-.63 1-1.31 1.55-2 4-5.3 7.91-10.63 11.9-15.92 2.65-3.51 5.36-7 8-10.46 1.18-1.55 2.19-3.23 3.47-4.72a1.81 1.81 0 0 1 1.78-.82 2.75 2.75 0 0 0 .41 0c3.63.35 6.5-1.13 9-3.65a74.3 74.3 0 0 0 10.72-13.62c1.19-2 2.33-4 3.5-5.94a1.75 1.75 0 0 0 .4-1.16.75.75 0 0 0-.32-.5.64.64 0 0 0-.57.07 4.88 4.88 0 0 0-.78 1c-.93 1.47-1.85 3-2.74 4.45a75.78 75.78 0 0 1-10.79 14.09 16.9 16.9 0 0 1-3 2.57 6.94 6.94 0 0 1-3.54 1.11 15.15 15.15 0 0 1-10.17-3.14c-3.09-2.4-6.13-4.84-9.06-7.43-1.72-1.53-3.61-2.85-5.41-4.29-2-1.61-4-3.22-6-4.87a29.83 29.83 0 0 1-4.6-4.86 24.57 24.57 0 0 1-1.53-2.24 8.55 8.55 0 0 1-1.05-6.82 17.06 17.06 0 0 1 4.74-8.46c.86-.81 1.75-1.6 2.66-2.35a35.76 35.76 0 0 0 8.13-10 52.25 52.25 0 0 0 3.33-7.21q2.75-7.12 5.46-14.26a89.49 89.49 0 0 1 9.73-18.69 52.79 52.79 0 0 1 10.63-11.2 24.09 24.09 0 0 1 6-3.37 8.06 8.06 0 0 1 4.9-.6 55.49 55.49 0 0 1 13 4.42 19.82 19.82 0 0 1 6.42 5.26 67.66 67.66 0 0 1 12.11 22.53 77.52 77.52 0 0 1 3.4 15.71c.35 3.26 1.18 6.44 1.8 9.65.33 1.72.73 3.41 1 5.13.23 1.44.2 2.91.37 4.36.55 4.64.85 9.3 1.13 14 .31 5.16.3 10.32.15 15.48-.09 3.21-.21 6.41-.44 9.61-.21 2.87 0 5.72 0 8.58 0 3.9.08 7.8-.16 11.71s-.5 7.65-.92 11.46a30.16 30.16 0 0 1-.75 3.9c-1.29 5.43-3 10.74-4.46 16.12a91.32 91.32 0 0 0-2.87 15.39c-.18 1.95-.34 3.89-.38 5.85a25.7 25.7 0 0 0 .57 5.39 8.32 8.32 0 0 0 .33 1.21c.16.48.39.93 1 .94.42 0 .68-.67.49-1.38-1.08-4-.82-8-.4-12.06a77.49 77.49 0 0 1 1.4-9.08 5.54 5.54 0 0 1 .11-.62Z"></path><path fill="#f38704" d="M405.58 226.59a98.64 98.64 0 0 1-4.42 11 35.17 35.17 0 0 1-9.77 12.62 22.42 22.42 0 0 0-3.58 3.51 18.59 18.59 0 0 0-3.24 6.28c-.22.74-.37.8-1 .55-3-1.19-5.95-2.37-8.92-3.58a11.19 11.19 0 0 1-3.26-1.84 2.87 2.87 0 0 1-.87-3.9 8 8 0 0 1 2-2.66 23.82 23.82 0 0 1 3.46-2.7c4.4-2.68 8.71-5.5 13.28-7.92a63.87 63.87 0 0 0 15-11.22c.25-.24.52-.47.77-.7.45-.03.65.1.55.56Z"></path><path fill="#ac6703" d="m405.58 226.59-.53-.51a1.72 1.72 0 0 1 1.06-1 1.74 1.74 0 0 1-.53 1.51Z"></path><path fill="#563121" d="m409.57 169.24-.37-.38a.52.52 0 0 1 .14-.7 1 1 0 0 1 .77.62Z"></path><path fill="#050303" d="M238.62 141.16a25.81 25.81 0 0 1 9.19 1.35c9.65 2.84 18.33 7.62 26.51 13.39a28.44 28.44 0 0 1 2.24 1.87 1.74 1.74 0 0 1 .47.66.63.63 0 0 1-.11.55.73.73 0 0 1-.54.18c-.45 0-.74-.37-1.06-.62a95.66 95.66 0 0 0-18.59-11.13 62 62 0 0 0-12.81-4.33 29.59 29.59 0 0 0-6-.59 21.84 21.84 0 0 1-2.29-.16.58.58 0 0 1-.49-.59.55.55 0 0 1 .51-.57c1.03-.03 2.08-.01 2.97-.01ZM274.18 168.44A122.22 122.22 0 0 1 257.6 167a56.7 56.7 0 0 1-15.82-4.45c-.37-.18-.8-.27-1-.68a.73.73 0 0 1-.06-.39c0-.25.21-.34.41-.41a1.71 1.71 0 0 1 1.19.23 58.34 58.34 0 0 0 13 3.78 75.47 75.47 0 0 0 8.48 1.16l8.12.63a62.27 62.27 0 0 0 7.1.05 15.32 15.32 0 0 1 1.66 0 .54.54 0 0 1 .5.57.66.66 0 0 1-.47.61 3.63 3.63 0 0 1-1 .16 46.41 46.41 0 0 1-5.53.18Z"></path><path fill="#090606" d="M279.3 164.52a.66.66 0 0 1-.67.48c-.39 0-.62-.31-.87-.53-5.14-4.56-11.2-7.51-17.55-9.94-.39-.14-.79-.26-1.17-.43a.52.52 0 0 1-.32-.67.71.71 0 0 1 .63-.49 5.59 5.59 0 0 1 2 .52 59 59 0 0 1 13.06 6.5c1.22.81 2.36 1.74 3.49 2.66a9.89 9.89 0 0 1 1.27 1.39c.12.14.25.35.13.51Z"></path><path fill="#ad6703" d="M171.86 127.28c-.19-.4-.6-.38-1-.49a6.31 6.31 0 0 1 2.53-.87c.41-.13.53.06.45.44a5.58 5.58 0 0 1-1.98.92Z"></path><path fill="#b55d03" d="M162.67 133.65c.21.3.57.3.88.4a1.47 1.47 0 0 1-1.24.44.41.41 0 0 1-.14-.62.43.43 0 0 1 .5-.22Z"></path><path fill="#764a02" d="m173.89 126.36-.45-.44a1.91 1.91 0 0 1 1.34-.4.28.28 0 0 1 .11.32c0 .1-.09.15-.13.15Z"></path><path fill="#c9b7b7" d="M168.37 178.37h1.46a1.71 1.71 0 0 1-1.5.33c-.2.01-.2-.22.04-.33Z"></path><path fill="#8f4e02" d="M161 134.93a.85.85 0 0 1-.7.32 1.27 1.27 0 0 1-.36-.12c0-.1 0-.25.12-.29a9.41 9.41 0 0 1 .91-.42q.34.22.03.51Z"></path><path fill="#503101" d="M174.76 126v-.47c.16-.24.37-.39.59-.11 0 0-.14.31-.26.43a1.12 1.12 0 0 1-.33.15Z"></path><path fill="#b55d03" d="M163.88 134a.76.76 0 0 1 .91-.34.89.89 0 0 1-.91.34Z"></path><path fill="#b16503" d="M162.17 133.87c0 .21.09.41.14.62h-.05c-.34.16-.67.23-.94-.14a1.18 1.18 0 0 1 .85-.48Z"></path><path fill="#b55d03" d="m161.32 134.32.94.14a.89.89 0 0 1-.89.36.34.34 0 0 1-.12-.31c0-.11.05-.17.08-.17Z"></path><path fill="#0c0a0a" d="M72.16 90.44a.8.8 0 0 1-.8.37.78.78 0 0 1 .8-.37Z"></path><path fill="#b55d03" d="M163.47 133.26a.35.35 0 0 1-.45.25.35.35 0 0 1 .45-.25Z"></path><path fill="#b16503" d="M161.33 134.34v.48a.84.84 0 0 1-.38.11v-.51a.49.49 0 0 1 .38-.08Z"></path><path fill="#0a0707" d="M436 140.26a15.85 15.85 0 0 0-8 2.71c-.47.3-.89.66-1.36 1s-1.13.27-1.31-.09a.87.87 0 0 1 .3-1.11c.26-.22.53-.44.81-.65a18.29 18.29 0 0 1 8.41-3.38 9.93 9.93 0 0 1 4.33.34 5.86 5.86 0 0 1 2.35 1.3.77.77 0 1 1-.86 1.28 2.5 2.5 0 0 1-.35-.21 6.71 6.71 0 0 0-4.32-1.19ZM464.15 137.86c0 .42-.43.83-.71.76a2 2 0 0 1-.73-.33c-2.56-2.16-5.46-2.17-8.49-1.39a8.86 8.86 0 0 0-3.66 1.93l-.62.56c-.55.45-1 .47-1.26.08a1 1 0 0 1 .21-1.3 7.35 7.35 0 0 1 .93-.84 12.06 12.06 0 0 1 10.67-2.08 7.05 7.05 0 0 1 3.24 1.83 1.13 1.13 0 0 1 .42.78Z"></path><path fill="#0b0707" d="m443.82 174-4.57-.21a1.36 1.36 0 0 1-1.12-.43.83.83 0 0 1-.18-.55.73.73 0 0 1 .36-.47 1.71 1.71 0 0 1 .81-.08 38.11 38.11 0 0 0 11.38-.47 6.31 6.31 0 0 1 1.44-.09.56.56 0 0 1 .56.51.68.68 0 0 1-.28.73 4.73 4.73 0 0 1-1.16.42 31.43 31.43 0 0 1-7.24.64Z"></path><path fill="#191414" d="M448.92 165.42a4 4 0 0 1-3.88-3.15.73.73 0 0 1 .45-.85.58.58 0 0 1 .73.19 3.92 3.92 0 0 1 .25.32c1.42 2.13 1.5 2.16 4.06 1.52.07 0 .13 0 .2-.06.58-.13 1.11.08 1.19.49a.92.92 0 0 1-.6 1 5.77 5.77 0 0 1-2.4.54Z"></path><path fill="#0f0b0b" d="M445.42 177.22a20.34 20.34 0 0 1-2.08-.19.64.64 0 0 1-.51-.79.58.58 0 0 1 .59-.48 53.92 53.92 0 0 0 5.4-.52.8.8 0 0 1 .41 0 .62.62 0 0 1 .48.61.83.83 0 0 1-.25.53 1.64 1.64 0 0 1-.73.34c-1.1.22-2.2.35-3.31.5Z"></path><path fill="#2a1e1e" d="M403.06 158.27a.79.79 0 0 1 .64.45c.15.3-.11.38-.27.43-.43.12-.47.44-.47.8a2.18 2.18 0 0 0 .56 1.32 1.28 1.28 0 0 0 1.14.38c.23 0 .39.11.4.34s-.25.5-.52.52a2.12 2.12 0 0 1-1-.1 3.1 3.1 0 0 1-1.3-3.62.8.8 0 0 1 .82-.52Z"></path><path fill="#77460d" d="m409.34 168.16-.14.7a1.53 1.53 0 0 1-.69-1c.31.01.63-.02.83.3Z"></path><path fill="#f28704" d="M409.57 169.24a.87.87 0 0 0-.3-.68 6.23 6.23 0 0 1-.76-.69 9.41 9.41 0 0 0-.81-.6 3.63 3.63 0 0 0-4.53.28 6 6 0 0 1-.68.43c-.15.46-.28.92-.44 1.37a7.12 7.12 0 0 0 .62 6.21 5.33 5.33 0 0 0 2.05 2 3.65 3.65 0 0 0 4.95-1.21 5.47 5.47 0 0 0 .9-2.73 8.21 8.21 0 0 0-1-4.38Zm-3.33 6a.46.46 0 0 1-.35.12 1.29 1.29 0 0 1-.55-.27 5.6 5.6 0 0 1-2-5 .53.53 0 0 1 .31-.48c.12 0 .28.05.35.13a.57.57 0 0 1 .14.37 5.29 5.29 0 0 0 1.89 4.41.85.85 0 0 1 .24.33.44.44 0 0 1-.03.42Z"></path><path fill="#0b0909" d="M119.55 88.18c0 .11 0 .36-.14.48a4.14 4.14 0 0 1-.8.65 43.72 43.72 0 0 0-8.09 7.52 11.21 11.21 0 0 0-1.85 2.76.58.58 0 0 1-.84.34.83.83 0 0 1-.45-.87 1.72 1.72 0 0 1 .16-.59 7.86 7.86 0 0 1 .64-1.08 38.64 38.64 0 0 1 10-9.41 2 2 0 0 1 .76-.32c.26-.05.49.12.61.52ZM104.51 87.93a1.7 1.7 0 0 1-.18.48 1.63 1.63 0 0 1-.47.39 33.5 33.5 0 0 0-10 10.2c-.38.59-.83.77-1.17.49s-.41-.68-.09-1.31a9.78 9.78 0 0 1 .74-1.25 36.72 36.72 0 0 1 8.54-8.47 4.44 4.44 0 0 1 2-1c.31-.09.56.04.63.47Z"></path><path fill="#0d0a0a" d="M113.26 100.86a.47.47 0 0 1-.44-.4 1.45 1.45 0 0 1 0-.8 7.6 7.6 0 0 1 .83-1.44 27.47 27.47 0 0 1 9.25-8 5 5 0 0 1 .95-.42.69.69 0 0 1 .86.4.55.55 0 0 1-.26.7 3.51 3.51 0 0 1-.52.33 26.11 26.11 0 0 0-9.84 9.11.82.82 0 0 1-.83.52Z"></path><path fill="#0b0909" d="M110.34 88.71a1.47 1.47 0 0 1-.16.49 4.12 4.12 0 0 1-.65.52 31.54 31.54 0 0 0-8.82 9.65.63.63 0 0 1-.27.31 1 1 0 0 1-.57.1.64.64 0 0 1-.41-.39 2.06 2.06 0 0 1 .07-1 5.88 5.88 0 0 1 .71-1.27 33.91 33.91 0 0 1 8.37-8.4 3.24 3.24 0 0 1 1.11-.53c.28-.08.53.12.62.52Z"></path><path fill="#0c0a0a" d="M95.64 88.83v.39a3.19 3.19 0 0 1-.57.59A32.91 32.91 0 0 0 88 98a22.14 22.14 0 0 0-1.1 2.24.6.6 0 0 1-.68.36.74.74 0 0 1-.62-.74 2.45 2.45 0 0 1 .13-.81 6.16 6.16 0 0 1 .54-1.13 33.23 33.23 0 0 1 7.19-8.61 9.14 9.14 0 0 1 1.38-.91.6.6 0 0 1 .8.43Z"></path><path fill="#0b0909" d="M80.25 90.58a.93.93 0 0 1-.46.64c-3.23 1.7-5.53 4.41-7.77 7.18a8.27 8.27 0 0 0-1.28 2.14.59.59 0 0 1-.87.29.8.8 0 0 1-.45-.86 1.43 1.43 0 0 1 .2-.59 26.26 26.26 0 0 1 9.18-9.23 1.35 1.35 0 0 1 1-.19.59.59 0 0 1 .45.62Z"></path><path fill="#0c0a0a" d="M77.68 100.64c-.46-.09-.84-.57-.72-.94a6.66 6.66 0 0 1 .66-1.52 27.75 27.75 0 0 1 7.47-7.8l.17-.13c.36-.21.73-.44 1.13-.07s.2.81-.36 1.21a28.11 28.11 0 0 0-5.91 5.87 9.48 9.48 0 0 0-1.74 2.83.7.7 0 0 1-.7.55Z"></path><path fill="#0d0b0b" d="M135.21 91.88c0 .12 0 .36-.15.48a9.69 9.69 0 0 1-1.13.9 23.51 23.51 0 0 0-7 7.63 1 1 0 0 1-.1.18c-.2.29-.41.58-.82.47a.91.91 0 0 1-.49-1.2 5.36 5.36 0 0 1 .46-.93 24.83 24.83 0 0 1 7.76-7.71 2.46 2.46 0 0 1 .75-.32c.36-.07.56.15.72.5Z"></path><path fill="#0e0b0b" d="M129.14 91.42a.84.84 0 0 1-.47.86 28.63 28.63 0 0 0-4.67 3.86 18.78 18.78 0 0 0-2.88 3.29 2.69 2.69 0 0 1-.26.33.7.7 0 0 1-.9.27c-.38-.19-.48-.59-.24-1.09a6 6 0 0 1 .63-1.07 31.82 31.82 0 0 1 7.43-6.65 1.84 1.84 0 0 1 .77-.28.59.59 0 0 1 .59.48Z"></path><path fill="#0f0c0c" d="M132.73 101.17c-.24 0-.66-.52-.57-.76a5.76 5.76 0 0 1 .59-1.31 22.8 22.8 0 0 1 6.81-6.35 2.83 2.83 0 0 1 .57-.23c.46-.15 1 0 1 .39s-.19.65-.49.83a20.8 20.8 0 0 0-7.1 6.89 1.11 1.11 0 0 1-.81.54Z"></path><path fill="#151313" d="M138.48 99.89c-.44 0-.62-.22-.69-.51a1.14 1.14 0 0 1 .3-1 13.31 13.31 0 0 1 4.25-3.61 1.65 1.65 0 0 1 .8-.14.59.59 0 0 1 .56.52.65.65 0 0 1-.23.54 14.2 14.2 0 0 0-3 2.23c-.49.49-.92 1-1.41 1.54a3.31 3.31 0 0 1-.58.43Z"></path><path fill="#211919" d="M143.88 98.81c-.24-.17-.46-.25-.54-.4a.67.67 0 0 1-.07-.56A4.22 4.22 0 0 1 145.6 96a.62.62 0 0 1 .52.2c.12.13.24.42.17.53a8.42 8.42 0 0 1-2.41 2.08Z"></path><path fill="#0b0600" d="M208.74 103.67c-.15.1-.32.22-.49.32a.52.52 0 0 1-.58-.09 3.89 3.89 0 0 1-1-1.56 65.69 65.69 0 0 0-3.81-6.93c-.42-.64-.87-1.25-1.29-1.89a2.18 2.18 0 0 1-.35-.74.63.63 0 0 1 .23-.52.61.61 0 0 1 .56-.08 2.78 2.78 0 0 1 .78.67 51.52 51.52 0 0 1 5.72 9.89 5.12 5.12 0 0 1 .23.93Z"></path><path fill="#0e0800" d="M213.35 89.3a1.19 1.19 0 0 1 .44.2 2.27 2.27 0 0 1 .46.68q1.68 3.81 3.35 7.62a1.83 1.83 0 0 1 .15.6.7.7 0 0 1-.4.67.58.58 0 0 1-.74-.19 5 5 0 0 1-.64-1.06c-1-2.36-2-4.73-3-7.1a1.37 1.37 0 0 1-.15-1 .49.49 0 0 1 .53-.42Z"></path><path fill="#0d0700" d="M227.4 102.2c.11-2.09.48-4.16.76-6.23a4.39 4.39 0 0 1 .25-1 .53.53 0 0 1 .67-.33.72.72 0 0 1 .44.39 3 3 0 0 1 0 1 62.93 62.93 0 0 0-.69 8.12 1.36 1.36 0 0 1 0 .2c-.06.37-.2.69-.61.72a.63.63 0 0 1-.71-.61c-.05-.73-.07-1.46-.11-2.26Z"></path><path fill="#100900" d="M220.42 92.33v-1a.76.76 0 0 1 .52-.8c.36-.12.68.17.77.76.25 1.56.47 3.14.71 4.71.14.88.32 1.76.47 2.64a6 6 0 0 1 .12 1 .63.63 0 0 1-.42.64.58.58 0 0 1-.71-.26 4 4 0 0 1-.55-1.33c-.33-2.21-.64-4.47-.91-6.36ZM211.3 94.1c-.48-1.08-1-2.15-1.44-3.22a2.23 2.23 0 0 1-.22-.78.66.66 0 0 1 .31-.48.67.67 0 0 1 .57 0 1.64 1.64 0 0 1 .54.6q1.77 3.41 3.51 6.83a4.17 4.17 0 0 1 .24.58.62.62 0 0 1-.82.79 3.26 3.26 0 0 1-.69-.45 5 5 0 0 1-2-3.87Z"></path><path fill="#0e0800" d="M212.46 98.8a1 1 0 0 1-1.14-.26 8.88 8.88 0 0 1-.67-1.05q-1.62-2.91-3.22-5.84l-.29-.55a.7.7 0 0 1 .16-.94.62.62 0 0 1 .9.2c.33.44.61.92.9 1.4l1.71 2.85c1.08 1.19 2.1 2.39 1.65 4.19Z"></path><path fill="#110a00" d="M231.75 107.2c-.87.53-1.23.48-1.4-.23a4.33 4.33 0 0 1-.15-1.43q.36-3.51.8-7c.09-.66.6-.65 1.12-.53a18.54 18.54 0 0 1-.37 9.19Z"></path><path fill="#0a0600" d="M226 98.07v3.75a3.12 3.12 0 0 1-.14 1 .6.6 0 0 1-.48.31.63.63 0 0 1-.51-.25 1.4 1.4 0 0 1-.27-.76v-8.75a.56.56 0 0 1 .15-.37 1.2 1.2 0 0 1 .51-.27c.09 0 .24.11.34.2a1.21 1.21 0 0 1 .29 1v4.17Z"></path><path fill="#100900" d="M217.05 89.63a1.66 1.66 0 0 1 .51.19 2.23 2.23 0 0 1 .65 1.27c.6 2.13 1.17 4.27 1.73 6.41a1.84 1.84 0 0 1 0 .81.7.7 0 0 1-.41.4.74.74 0 0 1-.56-.12 1.76 1.76 0 0 1-.59-1.07q-.88-3.4-1.74-6.83a1.83 1.83 0 0 1 .07-.8c.01-.09.18-.15.34-.26Z"></path><path fill="#0f0800" d="M205 91.34a1.06 1.06 0 0 1 .44.19 6.44 6.44 0 0 1 .61.84q1.53 2.49 3.05 5a3.61 3.61 0 0 1 .33.53.82.82 0 0 1-.13 1c-.27.27-.73.19-1.09-.21a5.21 5.21 0 0 1-.5-.66c-1-1.75-2-3.5-3.06-5.25a1.2 1.2 0 0 1-.18-1 .49.49 0 0 1 .53-.44Z"></path><path fill="#1a0f00" d="M236 109.73c-.8 1-.92 1-1.52-.1-.07-.11-.12-.24-.18-.36-1.14-2-.49-4 .36-5.88 0-.13.07-.26.12-.39.16-.39.35-.82.86-.71s.6.54.52 1a10.81 10.81 0 0 0-.19 2.66c.03 1.24.58 2.5.03 3.78Z"></path><path fill="#0e0700" d="M232.93 100.45c.84-.39 1.1-.31 1.24.43a4.17 4.17 0 0 1 0 .79c-.16 1.92 0 3.84-.16 5.76-.07.67.19 1.43-.65 1.81a1.41 1.41 0 0 1-.88-.79c-.36-2.7-.86-5.4.45-8Z"></path><path fill="#b56503" d="M232.93 100.45a38.26 38.26 0 0 0-.43 8c-.49-.27-.24-1-.75-1.25a25 25 0 0 1 .23-5.53 10.34 10.34 0 0 0 .14-3.68c.51.26.48.74.48 1.2s-.11.93.33 1.26Z"></path><path fill="#0b0600" d="M237.65 109.72c-.62.66-.71.66-1.37 0-.24-1.27-.64-2.55 0-3.82.29-1.17.29-1.17 1.28-1.2.11 1.67 1.03 3.3.09 5.02Z"></path><path fill="#140a00" d="m238.09 110.42-.05-.72c.05-.85-.28-1.76.38-2.52.93-.51 1.27-.45 1.27.32a22.55 22.55 0 0 1-.17 2.84c-.08.56-.54.73-1.09.6a.87.87 0 0 1-.34-.52Z"></path><path fill="#c06903" d="M233.38 109.24a1.72 1.72 0 0 0 .48-1.49c-.05-1.43-.05-2.87 0-4.31a2.89 2.89 0 0 1 .37-1.77c.21.56-.17 1.26.43 1.72-.05.68-.05 1.36-.16 2a19.19 19.19 0 0 0-.2 3.86Z"></path><path fill="#c66d03" d="M212.46 98.8a2.38 2.38 0 0 0-.41-1.79c-.44-.78-.83-1.6-1.24-2.4l.49-.51a20.86 20.86 0 0 1 2 3.87Z"></path><path fill="#b96703" d="M238.42 107.18a4.14 4.14 0 0 1-.38 2.52 2.55 2.55 0 0 1-.39 0c0-1.67-.07-3.35-.1-5 .54.26.46.76.46 1.22s-.07.96.41 1.26Z"></path><path fill="#9e5803" d="M236.27 105.9v3.82H236c-.1-.54-.24-1.07-.31-1.61a3.35 3.35 0 0 1 .28-2.2Z"></path><path fill="#b96703" d="M238.09 110.42c.12.17.23.34.34.52a.46.46 0 0 1-.34-.52Z"></path><path fill="#0f0800" d="M201.55 176.91a1.18 1.18 0 0 1-.19.44 30 30 0 0 0-4.25 5.64 1.85 1.85 0 0 1-.62.52.6.6 0 0 1-.78-.46 1.35 1.35 0 0 1 0-.61 21.8 21.8 0 0 1 4.71-6 1.23 1.23 0 0 1 .59-.16c.29-.08.61.27.54.63Z"></path><path fill="#100900" d="M203.29 178.51a1.22 1.22 0 0 1-.21.56 19.64 19.64 0 0 0-3.48 5.9.66.66 0 0 1-.8.48.86.86 0 0 1-.55-1 1.79 1.79 0 0 1 .09-.4 18.92 18.92 0 0 1 3.65-5.79 1.9 1.9 0 0 1 .71-.4c.22-.1.58.19.59.65Z"></path><path fill="#0e0800" d="M202.59 186.69c-.35-.09-.57-.27-.59-.57a2.67 2.67 0 0 1 .09-1 24.28 24.28 0 0 1 2.89-5.73 1.17 1.17 0 0 1 .46-.4.67.67 0 0 1 .57 0 .69.69 0 0 1 .25.53 1.64 1.64 0 0 1-.26.77 28.57 28.57 0 0 0-2.63 5.63 1.48 1.48 0 0 1-.29.54 1.46 1.46 0 0 1-.49.23Z"></path><path fill="#100900" d="M194 181.27c-.33 0-.75-.41-.68-.68a1.84 1.84 0 0 1 .22-.58 32.87 32.87 0 0 1 4.29-4.84 1.89 1.89 0 0 1 .71-.41.79.79 0 0 1 .55.18.43.43 0 0 1 .16.55 1.07 1.07 0 0 1-.21.36 53.82 53.82 0 0 0-4.36 5.06.81.81 0 0 1-.68.36Z"></path><path fill="#130b00" d="M205.2 185.9c.14-.49.28-1.1.5-1.67.44-1.16.91-2.3 1.41-3.43a.57.57 0 0 1 .71-.27.61.61 0 0 1 .44.62 3.85 3.85 0 0 1-.23 1c-.47 1.37-.94 2.73-1.42 4.09a1.39 1.39 0 0 1-.28.54.77.77 0 0 1-.53.21.79.79 0 0 1-.45-.36 2.85 2.85 0 0 1-.15-.73Z"></path><path fill="#170d00" d="M210.82 182.21c-.37 1.55-.7 3-1.08 4.52a.67.67 0 0 1-.79.52.77.77 0 0 1-.6-.76 1.62 1.62 0 0 1 .05-.62c.36-1.34.74-2.68 1.12-4a.67.67 0 0 1 .76-.56c.41.06.52.4.54.77Z"></path><path fill="#130b00" d="M213 183.31c-.15 1-.38 2.12-.62 3.2a.69.69 0 0 1-.73.61.82.82 0 0 1-.63-.93 5.62 5.62 0 0 1 .14-.82c.17-.82.33-1.64.53-2.45.14-.54.48-.82.85-.71.51.16.46.63.46 1.1Z"></path><path fill="#1f1000" d="M214 185.85a12.58 12.58 0 0 1 .44-2.7.59.59 0 0 1 .66-.4.69.69 0 0 1 .57.54 6.29 6.29 0 0 1-.55 3.23c0 .13-.35.24-.53.23a.74.74 0 0 1-.47-.33 1.57 1.57 0 0 1-.12-.57Z"></path><path fill="#331c01" d="M218.72 184.51a3.36 3.36 0 0 1-.23 1.4.65.65 0 0 1-.65.4.64.64 0 0 1-.58-.5 3.55 3.55 0 0 1 .28-2.58.64.64 0 0 1 .53-.22.79.79 0 0 1 .48.31c.27.35.17.78.17 1.19Z"></path><path fill="#381d01" d="M219.63 183.81a3 3 0 0 1 .18-.66c.14-.23.34-.48.66-.39a.86.86 0 0 1 .5.32 2.1 2.1 0 0 1 .1 2 .61.61 0 0 1-.66.41.65.65 0 0 1-.59-.5 8.87 8.87 0 0 1-.19-1.18Z"></path><path fill="#020100" d="M156.77 170.76c-2.89.77-5.78 1.56-8.67 2.31-1.48.39-3 .72-4.48 1a7.45 7.45 0 0 1-2.9.13.82.82 0 0 1-.46-1.31 4.1 4.1 0 0 1 1.7-1.17c2.58-1.23 5.15-2.47 7.76-3.62q9.65-4.28 19.32-8.47a16.32 16.32 0 0 1 2-.71.57.57 0 0 1 .68.34.5.5 0 0 1-.22.71 15.87 15.87 0 0 1-1.48.76l-19.84 8.82c-1.27.57-2.53 1.18-3.79 1.77-.06.83.39.57.81.38a104.89 104.89 0 0 0 10.45-2.88c2.78-.87 5.54-1.82 8.31-2.73a16.11 16.11 0 0 1 1.81-.49.78.78 0 0 1 .85.46.79.79 0 0 1-.17 1 8 8 0 0 1-1.52 1.07 220.82 220.82 0 0 1-6.36 3.15c-2.76 1.3-5.55 2.56-8.33 3.83a1.83 1.83 0 0 1-.47.48c.25-.09.81.25 1.32-.07a59.77 59.77 0 0 0 8.17-2.41c.8-.25 1.57-.57 2.35-.85.4-.14.79-.27 1.2-.37a.6.6 0 0 1 .69.32.57.57 0 0 1-.13.75 2 2 0 0 1-.5.36 7.43 7.43 0 0 1-.76.35 75 75 0 0 1-12.35 3.72 15.8 15.8 0 0 1-2.28.17 2.89 2.89 0 0 1-.83-.08c-.49-.1-1-.29-1.07-.85a1.06 1.06 0 0 1 .59-1.21c.72-.42 1.46-.82 2.21-1.17 1.51-.7 3-1.37 4.56-2.06.63-.28 1.25-.6 1.87-.9a2.14 2.14 0 0 1 1.17-.63 5.14 5.14 0 0 1 1.22-.55 1.85 1.85 0 0 1 .58-.16c-.3-.1-.51.14-.77.19a2.42 2.42 0 0 0-.93.44 2.64 2.64 0 0 1-1.31.18ZM151.75 155c3.56-1 7-2.42 10.4-3.75 4.67-1.81 9.33-3.67 14-5.51a3 3 0 0 1 1.59-.43.74.74 0 0 1 .47.33.79.79 0 0 1 0 .58 1.12 1.12 0 0 1-.45.41 11.3 11.3 0 0 1-1.32.62c-7.46 2.91-14.84 6-22.4 8.65a36.64 36.64 0 0 1-6.43 1.76 3.09 3.09 0 0 1-1.45 0 .85.85 0 0 1-.39-1.47 9.12 9.12 0 0 1 1.51-1.1c1.49-.9 3-1.77 4.49-2.65.57-.84 1.56-1 2.36-1.48a11 11 0 0 1 2.21-1.19c.36-.14.63-.52 1.23-.45-.59-.13-.84.24-1.18.38a18.73 18.73 0 0 0-2.5 1.33 8.56 8.56 0 0 1-2.94 1c-1.1.41-2.2.84-3.32 1.23a.58.58 0 0 1-.83-.38.68.68 0 0 1 .43-.83 1.11 1.11 0 0 1 .19-.09c6-2.65 12-5.61 18.19-7.85a13.2 13.2 0 0 1 1.6-.46.76.76 0 0 1 .9.35.86.86 0 0 1-.27 1.12 12.33 12.33 0 0 1-1.57 1c-3.53 2-7.07 3.91-10.59 5.89-1.45.81-2.88 1.68-4.32 2.52a1.42 1.42 0 0 1-.66.53 1 1 0 0 1 0 .17s.11-.13.13-.13c.28-.1.62.07.92-.1Z"></path><path fill="#b86503" d="M150.89 152a10.94 10.94 0 0 1 2.84-1.31c.39-.15.54 0 .5.4a10.41 10.41 0 0 1-2.52 1.31c-.18-.4-.52-.4-.82-.4Z"></path><path fill="#b56503" d="M153.05 175.49c-.65.57-1.4.35-2.42.45a2.47 2.47 0 0 1 1.57-.86c.2.31.55.31.85.41Z"></path><path fill="#a76403" d="M150.11 155c.4-.17.71-.53 1.19-.5l.45.48a1.73 1.73 0 0 1-1.22.47c-.42.08-.53-.09-.42-.45Z"></path><path fill="#aa5e02" d="M147.16 171.71a2.5 2.5 0 0 1-1.94.41c.18-.67.66-.72 1.13-.79.19.29.53.27.81.38Z"></path><path fill="#a95803" d="M156.77 170.76c.31-.44.79-.39 1.24-.43.12.1.17.2.13.31s-.07.16-.11.16c-.4.21-.76.53-1.26.46Z"></path><path fill="#040200" d="M162.66 111c2.4-.45 4.71-1.26 7.05-1.92 2.89-.81 5.76-1.65 8.64-2.47a2 2 0 0 1 1.23-.15 1 1 0 0 1 .44.39.4.4 0 0 1-.11.55 3.71 3.71 0 0 1-1.08.6q-8 2.33-16.07 4.59a18.48 18.48 0 0 1-2.47.43 1.61 1.61 0 0 1-1.37-.38.91.91 0 0 1-.28-1.12 4.42 4.42 0 0 1 1.51-1.7c1.65-1.18 3.31-2.33 5-3.49.22-.52-.06-.53-.44-.45l-4.26 1a9.29 9.29 0 0 1-1 .22.72.72 0 0 1-.85-.43c-.15-.42.12-.64.46-.79a4.19 4.19 0 0 1 .59-.22c3.15-.88 6.29-1.77 9.45-2.63a3.25 3.25 0 0 1 1.42-.24.89.89 0 0 1 .6 1.14 2.63 2.63 0 0 1-1 1l-3.34 2.14a45 45 0 0 0-5 3.44c-.1.9.39.68.88.49Z"></path><path fill="#b24f02" d="M162.66 111a1.47 1.47 0 0 1-1.07.41c-.18 0-.43 0-.45-.21a.88.88 0 0 1 .24-.48c.08-.09.23-.11.34-.17.21.34.6.32.94.45Z"></path><path fill="#8f5503" d="M164.67 105.84a3.35 3.35 0 0 1 .69-.33c.13 0 .31.13.47.2-.07.11-.11.26-.2.32a2.3 2.3 0 0 1-.52.26Z"></path><path fill="#060505" d="M435.59 147.2a2.74 2.74 0 0 0-.58-.6 1.89 1.89 0 0 0-3 .48 5 5 0 0 0-.58 2.82 9 9 0 0 0 1 4.22 4 4 0 0 0 1.48 1.71 1.71 1.71 0 0 0 2.41-.39 3.11 3.11 0 0 0 .58-1.09 8.46 8.46 0 0 0-1.31-7.15Zm-1.14 4a.66.66 0 0 1-.59.51 1.09 1.09 0 0 1-.75-.23 3.34 3.34 0 0 1-.72-2.72 1 1 0 0 1 .92-.73c.37 0 .61.25.8.56a5 5 0 0 1 .47 2c-.04.16-.07.41-.13.56Zm.92 2.76a.66.66 0 0 1-.64-.67.55.55 0 0 1 .5-.57.63.63 0 0 1 .76.53c.07.24-.29.64-.62.66ZM458.69 146.66a7.91 7.91 0 0 0-1.55-3.84 2.31 2.31 0 0 0-2.35-1 2.16 2.16 0 0 0-1.62 1.72 3.17 3.17 0 0 0-.12.41 8.24 8.24 0 0 0 2.16 6.92 1.64 1.64 0 0 0 .32.27 1.74 1.74 0 0 0 2.68-.58 5.14 5.14 0 0 0 .53-3 6 6 0 0 0-.05-.9Zm-2.32.49a.88.88 0 0 1-1.39.23 3.2 3.2 0 0 1-.83-2.67.92.92 0 0 1 .63-.75 1 1 0 0 1 1.13.29 3.27 3.27 0 0 1 .67 2.28 3.19 3.19 0 0 1-.21.62Zm1 2.17a.72.72 0 0 1-.74-.54c-.11-.33.31-.92.62-.85a.72.72 0 0 1 .65.66.69.69 0 0 1-.55.73Z"></path><path fill="#352402" d="M158.83 169.93c.39-.46 1-.37 1.48-.62.08 0 .24.06.39.11-.28.65-.93.72-1.47 1-.13-.2-.4-.22-.4-.49Z"></path><path fill="#945002" d="m158.83 169.93.4.44-1.2.43v-.47a1.17 1.17 0 0 1 .8-.4Z"></path><path fill="#905903" d="m154.23 151.05-.5-.4a8.22 8.22 0 0 1 2.63-1.23.27.27 0 0 1 .12.31c0 .11-.08.16-.12.16Z"></path><path fill="#583801" d="M156.36 149.89v-.47a2.21 2.21 0 0 1 1.72-.72c-.4.76-1.08.89-1.72 1.19Z"></path><path fill="#623801" d="m150.11 155 .42.45a1.72 1.72 0 0 1-.51.28 1.62 1.62 0 0 1-.56-.1 2.36 2.36 0 0 1 .29-.48 1.08 1.08 0 0 1 .36-.15Z"></path><path fill="#0a0808" d="M131.29 139.11A2.13 2.13 0 0 1 127 139a2.33 2.33 0 0 1 2.22-2.05 2.13 2.13 0 0 1 2.07 2.16Z"></path><path fill="#090707" d="M113.68 159.85a2.11 2.11 0 0 1 2.1 2.1 2 2 0 0 1-2 1.93 2.22 2.22 0 0 1-2.25-2 2.16 2.16 0 0 1 2.15-2.03Z"></path><path fill="#0a0909" d="M127.19 151.78a2.17 2.17 0 0 1-2.26 2.21 2.06 2.06 0 0 1-2-1.81 2.37 2.37 0 0 1 2.21-2.33 1.93 1.93 0 0 1 2.05 1.93Z"></path><path fill="#0f0c0c" d="M86.93 125.16a1.89 1.89 0 0 1-1.74 2.13 2 2 0 0 1-2.07-1.89 2.28 2.28 0 0 1 2.09-2.17 1.81 1.81 0 0 1 1.72 1.93Z"></path><path fill="#0b0909" d="M122 126.53a2 2 0 0 1-.26-3.94 2.19 2.19 0 0 1 2.12 1.86 2 2 0 0 1-1.86 2.08Z"></path><path fill="#0b0a0a" d="M81.28 153.57A1.65 1.65 0 0 1 83 152a1.89 1.89 0 0 1 1.76 1.93 1.76 1.76 0 0 1-1.75 1.88 2.1 2.1 0 0 1-1.73-2.24Z"></path><path fill="#0e0c0c" d="M104.69 118.39a2.61 2.61 0 0 1-.54 1.43 1.58 1.58 0 0 1-2.38.08 2.19 2.19 0 0 1 .62-3.2 1.47 1.47 0 0 1 2 .6 6.12 6.12 0 0 1 .3 1.09Z"></path><path fill="#130f0f" d="M97 160.84a1.93 1.93 0 0 1 1.77 1.47 1.79 1.79 0 0 1-.57 2 1.63 1.63 0 0 1-1.92-.15 1.91 1.91 0 0 1-.87-1.95 1.85 1.85 0 0 1 1.59-1.37Z"></path><path fill="#0f0f0f" d="M81.14 140.2a1.68 1.68 0 0 1-1.71 1.73 1.79 1.79 0 0 1-.14-3.57 1.78 1.78 0 0 1 1.85 1.84Z"></path><path fill="#f38704" d="M85 142.59a19.32 19.32 0 0 1 7.56-15.21 19.87 19.87 0 0 1 12.35-4.54c5.73-.11 10.75 1.79 14.39 6.36 4.42 5.54 5 11.76 2.08 18.1-3.19 6.91-8.78 10.83-16.33 11.89a17.53 17.53 0 0 1-11.65-2.29 16.29 16.29 0 0 1-8.4-14.31Z"></path><path fill="#060300" d="M93 131.18a7.67 7.67 0 0 1 1 .39c1.92 1 3.84 2 5.72 3.05 4.36 2.48 8.7 5 13 7.51a64.94 64.94 0 0 1 6.12 4c.72.54.89 1 .52 1.33s-.92 0-1.3-.21c-6.86-4.56-14.15-8.37-21.26-12.5-1.2-.7-2.47-1.27-3.71-1.92a3.25 3.25 0 0 1-.83-.6.73.73 0 0 1-.1-.57c.06-.28.31-.43.84-.48Z"></path><path fill="#090500" d="M101.37 129.09a4.16 4.16 0 0 1 .76.15 12.94 12.94 0 0 1 1.5.72q6.77 4.11 13.51 8.25a1.83 1.83 0 0 1 .48.39.57.57 0 0 1 .08.76c-.15.22-.4.43-.7.28-.56-.28-1.11-.57-1.64-.89-3.33-2-6.65-4-10-6-1.13-.68-2.29-1.3-3.43-2a3.28 3.28 0 0 1-.8-.63.69.69 0 0 1 0-.57 1.64 1.64 0 0 1 .24-.46Z"></path><path fill="#0a0600" d="M112.65 149.59a.63.63 0 0 1-.45.74 1.84 1.84 0 0 1-1.2-.33c-3.34-1.84-6.68-3.69-10-5.52-.85-.47-1.71-.91-2.56-1.38a4.13 4.13 0 0 1-.83-.61.41.41 0 0 1-.07-.56 1 1 0 0 1 .46-.37 2.25 2.25 0 0 1 1.74.5c3.59 2 7.16 4 10.74 6a20 20 0 0 1 1.75 1.12 1.74 1.74 0 0 1 .42.41ZM109.91 155.25a.57.57 0 0 1-.5.58 2 2 0 0 1-1.15-.43l-3.89-2.4c-2-1.25-4-2.49-6-3.76a4.74 4.74 0 0 1-.93-.8.76.76 0 0 1 0-.58.56.56 0 0 1 .65-.39 2 2 0 0 1 .77.3l10.54 6.72a1 1 0 0 1 .51.76Z"></path></g></svg>