<svg id="Layer_1" data-name="Layer 1" xmlns="http://www.w3.org/2000/svg" viewBox="0 0 1000 1000"><defs><style>.cls-1{fill:#f4ece5;}.cls-2{fill:#ad4d4d;}.cls-3{fill:#deb8fc;}.cls-4{fill:#666538;}.cls-5{fill:#e9cf81;}.cls-6{fill:#bab653;}.cls-7{fill:#ffaa9f;}.cls-8{fill:#f98638;}.cls-9{fill:#2b3d0a;}.cls-10{fill:#353519;}</style></defs><path class="cls-1" d="M890,323.75,692.39,196.06,494.74,68.37a11.68,11.68,0,0,0-13.1.24l-185.91,130-185.92,130a5,5,0,0,0,2.87,9.1,4.94,4.94,0,0,0,1.47-.22,5.12,5.12,0,0,0,1.39-.68l20.77-14.52,20.78-14.52V928.51H848v-620l18.32,11.84,18.32,11.83a5,5,0,0,0,5.43-8.4Z"/><path class="cls-2" d="M610,396.5a64.19,64.19,0,0,1-18.32,45.08,61.73,61.73,0,0,1-88.46,0,64.64,64.64,0,0,1,0-90.15,61.7,61.7,0,0,1,88.46,0A64.18,64.18,0,0,1,610,396.5Z"/><path class="cls-3" d="M361.9,598a516.5,516.5,0,0,1,3.77-65.27c3.82-31,11.46-67.08,26.68-96,3.71-7.05,8.41-15.81,15.19-24.26a77.47,77.47,0,0,1,45.38-28.32,86.11,86.11,0,0,1,14.23-1.75,106.45,106.45,0,0,1,23.19-.52,94.24,94.24,0,0,1,31.85,8.47,90.88,90.88,0,0,1,24.92,17.32,135.37,135.37,0,0,1,14.54,17.09c20.4,27.48,32.84,66.93,40.34,101.44A564.74,564.74,0,0,1,612.65,598H361.9Z"/><polygon class="cls-4" points="785.2 613.84 521.81 613.84 258.42 613.84 258.42 605.9 258.42 597.97 521.81 597.97 785.2 597.97 785.2 605.9 785.2 613.84"/><polygon class="cls-5" points="765.15 928.51 521.81 928.51 278.47 928.51 278.47 771.17 278.47 613.84 521.81 613.84 765.15 613.84 765.15 771.17 765.15 928.51"/><path class="cls-6" d="M441.79,681l1.1.22c.37.06.75.11,1.15.15a22.24,22.24,0,0,0,6.06-.15,13.75,13.75,0,0,0,8.26-4.45A14,14,0,0,0,461.6,668a16.36,16.36,0,0,0-2.47-9.13,15.52,15.52,0,0,0-6.31-5.64,16.75,16.75,0,0,0-8.45-1.67,20.62,20.62,0,0,0,6-2.3,16.05,16.05,0,0,0,5.9-5.82,17,17,0,0,0,2-11,19.22,19.22,0,0,0-5.22-10.6,21.61,21.61,0,0,0-4.9-3.25,16.49,16.49,0,0,0-10.3-1.52,16.91,16.91,0,0,0-10.22,6.69,21.41,21.41,0,0,0-4.13,13,17.82,17.82,0,0,0-9-7.52,15.64,15.64,0,0,0-11-.09,15.48,15.48,0,0,0-6.92,5.29,15.79,15.79,0,0,0-3.09,8.46,15.61,15.61,0,0,0,.72,5.71,16,16,0,0,0,2.67,5l-.67-.41-.67-.4a15.59,15.59,0,0,0-21.43,5.2h0a15.59,15.59,0,0,0,5.2,21.43L386,683.5l6.68,4.07-5.83,9.56L381,706.69l9.61,5.86,9.6,5.85,5.83-9.57,5.83-9.56,6.67,4.07,6.68,4.06a15.59,15.59,0,0,0,21.43-5.2h0A15.59,15.59,0,0,0,441.79,681Z"/><path class="cls-1" d="M471.61,448.58l1.91-25,1.9-25a.25.25,0,0,1,.5,0l3.49,25,3.5,25h56.32V400.74a91.71,91.71,0,0,0-7.88-5.49,90.7,90.7,0,0,0-9.16-5,94.24,94.24,0,0,0-31.85-8.47,106.45,106.45,0,0,0-23.19.52,86.11,86.11,0,0,0-14.23,1.75,78.55,78.55,0,0,0-17.72,6,74.88,74.88,0,0,0-10.08,5.83,76.68,76.68,0,0,0-8.52,6.79v45.87h55Z"/><path class="cls-7" d="M510.91,352a39.3,39.3,0,1,1-11.51-27.78A39.19,39.19,0,0,1,510.91,352Z"/><path class="cls-8" d="M338.18,557.26,307.56,571l-30.62,13.7a4,4,0,0,1-5.22-2l-3.31-7.39-3.3-7.4a3.93,3.93,0,0,1,2-5.21L297.72,549l30.62-13.7a3.93,3.93,0,0,1,5.21,2l3.31,7.4,3.31,7.39a3.94,3.94,0,0,1-2,5.22Z"/><path class="cls-1" d="M333.55,537.25,392,510.17l58.45-27.07a.42.42,0,0,1,.54.58,140.58,140.58,0,0,1-11.82,17.06,136.39,136.39,0,0,1-18.05,18.48,139,139,0,0,1-46.69,25.89A151.39,151.39,0,0,1,340.17,552c-1.1-2.46-2.2-4.93-3.31-7.39S334.66,539.71,333.55,537.25Z"/><path class="cls-9" d="M493.83,928.53a.82.82,0,0,1-.22,0,.79.79,0,0,1-.22-.06,1.23,1.23,0,0,1-.7-.66,1.25,1.25,0,0,1,0-.95l46.19-121.19L585,684.45a3.78,3.78,0,0,1,3.47-2.46,3.82,3.82,0,0,1,3.62,2.26L646.5,805.51l54.38,121.26a1.28,1.28,0,0,1,0,1,1.21,1.21,0,0,1-.66.69,1.25,1.25,0,0,1-1,0,1.22,1.22,0,0,1-.7-.66L644.22,806.53,589.84,685.28a1.2,1.2,0,0,0-.67-.68,1.23,1.23,0,0,0-.59-.11,1.34,1.34,0,0,0-.57.14,1.29,1.29,0,0,0-.64.72L541.19,806.54,495,927.73a1.26,1.26,0,0,1-.47.59A1.23,1.23,0,0,1,493.83,928.53Z"/><path class="cls-9" d="M451.24,366.58a2.18,2.18,0,0,1-.24,1.65,2.18,2.18,0,0,1-3,.75,2.17,2.17,0,0,1,2.23-3.73A2.21,2.21,0,0,1,451.24,366.58Z"/><path class="cls-7" d="M282,552.41c1,1.37,5.73,8.18,11.47,15.55s12.47,15.3,17.34,18.93a14.91,14.91,0,0,0,5.87,2.86,7,7,0,0,0,2.73.06,7.88,7.88,0,0,0,3.43-1.72,11.56,11.56,0,0,0,2-2.17,8.26,8.26,0,0,0,2.27.69,6.48,6.48,0,0,0,7.2-4.11,7.31,7.31,0,0,0,.29-4.33,8.32,8.32,0,0,0,2.31.27,7.39,7.39,0,0,0,6.77-4.59,8.43,8.43,0,0,0,.56-4.45,10.53,10.53,0,0,0,4.81-.34c2.4-.81,4.78-2.91,4.74-8a15.28,15.28,0,0,0-.18-2.2,14,14,0,0,0-.35-1.59,17.53,17.53,0,0,0-1.7-4c-.6-1.06-1.11-1.77-1.11-1.77-.84-1.18-2.19-3.12-4-5.67s-4-5.71-6.56-9.32a2,2,0,0,1,1.17-3.12l12.78-3,12.78-3a8.1,8.1,0,0,0,1.37-.44,6.1,6.1,0,0,0,1.25-.69,7.25,7.25,0,0,0,2.21-2.56,6.49,6.49,0,0,0,.71-3.32,5.07,5.07,0,0,0-1.82-3.75c-1.27-1.06-3.32-1.83-6.53-2l-.87-.05-.86-.07-19.13-2-19.13-2a21.33,21.33,0,0,0-12.94,2.8l-13.37,7.81L284.1,529a13.23,13.23,0,0,0-5.05,5.29,12.61,12.61,0,0,0-1.37,7.15,21.54,21.54,0,0,0,1.23,5.19A25.2,25.2,0,0,0,282,552.41Z"/><path class="cls-2" d="M344.17,570.65H344l-.19,0c-1.82-.58-5.32-4.5-8.61-8.64s-6.39-8.49-7.41-9.94a1.28,1.28,0,0,1-.21-.94,1.22,1.22,0,0,1,.52-.8,1.2,1.2,0,0,1,.93-.21,1.25,1.25,0,0,1,.81.51c2.87,4.1,6.08,8.36,8.81,11.67s5,5.66,5.91,6a1.24,1.24,0,0,1,.74.62,1.29,1.29,0,0,1,.08.95,1.25,1.25,0,0,1-.46.64A1.26,1.26,0,0,1,344.17,570.65Z"/><path class="cls-2" d="M334.53,579.42h0c-2.21,0-6.12-3.55-9.9-7.64s-7.42-8.71-9.09-10.88a1.2,1.2,0,0,1-.25-.92,1.24,1.24,0,0,1,.47-.83,1.27,1.27,0,0,1,.93-.25,1.25,1.25,0,0,1,.83.48c3.24,4.21,6.95,8.6,10.12,11.93s5.81,5.61,6.9,5.61a1.22,1.22,0,0,1,.88.37,1.24,1.24,0,0,1,.37.88,1.33,1.33,0,0,1-.37.89A1.27,1.27,0,0,1,334.53,579.42Z"/><path class="cls-2" d="M325.64,587.52a1.75,1.75,0,0,1-.32,0,1.3,1.3,0,0,1-.3-.13c-.38-.22-.77-.44-1.14-.67l-1.13-.71a53.67,53.67,0,0,1-9.24-7.51,59.83,59.83,0,0,1-7.71-9.64,1.25,1.25,0,0,1,2.1-1.36,57.14,57.14,0,0,0,7.38,9.23,51.51,51.51,0,0,0,8.82,7.18c.36.23.72.46,1.08.67s.72.44,1.08.64a1.27,1.27,0,0,1,.59.76,1.23,1.23,0,0,1-.13.95,1.13,1.13,0,0,1-.46.46A1.26,1.26,0,0,1,325.64,587.52Z"/><path class="cls-9" d="M468.81,359.31a2.24,2.24,0,0,1-.24,1.65,2.2,2.2,0,0,1-1.34,1,2.16,2.16,0,0,1-1.64-.24,2.17,2.17,0,0,1,.58-4,2.11,2.11,0,0,1,1.64.24A2.16,2.16,0,0,1,468.81,359.31Z"/><path class="cls-6" d="M245.38,684c.2-.33.4-.68.59-1s.37-.73.55-1.12a24.2,24.2,0,0,0,1.89-6.22,14.76,14.76,0,0,0-1.75-9.92,15,15,0,0,0-7.82-6.25,17.45,17.45,0,0,0-10.14-.57,16.72,16.72,0,0,0-7.87,4.52,18,18,0,0,0-4.56,8,22.23,22.23,0,0,0-.3-6.9,17.36,17.36,0,0,0-3.95-8,18.26,18.26,0,0,0-10.52-5.8A20.65,20.65,0,0,0,189,652.55a22.51,22.51,0,0,0-5,3.89,17.68,17.68,0,0,0-5,10,18.19,18.19,0,0,0,3.37,12.68,23,23,0,0,0,11.85,8.59,19.08,19.08,0,0,0-10.7,6.61,16.74,16.74,0,0,0-3.81,11.21,16.56,16.56,0,0,0,3.05,8.83,16.91,16.91,0,0,0,7.57,6,16.65,16.65,0,0,0,6.06,1.2,17.07,17.07,0,0,0,6-1l-.64.54-.64.54a16.74,16.74,0,0,0-1.93,23.59h0a16.73,16.73,0,0,0,23.58,1.93l6.4-5.42,6.39-5.42,23.39,27.57,23.4,27.58,9.2-7.81,9.2-7.81-23.39-27.57-23.39-27.58,6.39-5.42,6.39-5.43a16.71,16.71,0,0,0,1.94-23.58h0A16.73,16.73,0,0,0,245.38,684Z"/><path class="cls-2" d="M462.78,378.49a9.92,9.92,0,0,1-3.22-.55,8.11,8.11,0,0,1-1.52-.69,1.17,1.17,0,0,1-.57-.76,1.28,1.28,0,0,1,.13-.95,1.26,1.26,0,0,1,1.71-.44,6.87,6.87,0,0,0,2,.74,6.34,6.34,0,0,0,7-3.06,6.84,6.84,0,0,0,.78-1.95,1.31,1.31,0,0,1,.54-.79,1.28,1.28,0,0,1,.94-.17,1.26,1.26,0,0,1,1,1.48,9.5,9.5,0,0,1-1.14,2.81,8.85,8.85,0,0,1-4,3.58,8.71,8.71,0,0,1-1.84.59A9.39,9.39,0,0,1,462.78,378.49Z"/><path class="cls-10" d="M477.19,475.53a3,3,0,0,1-3,3,3,3,0,0,1-2.14-5.16,3,3,0,0,1,5.17,2.14Z"/><path class="cls-3" d="M649.56,692.5h-124a6.73,6.73,0,0,1-6.72-6.72v-20a6.73,6.73,0,0,1,6.72-6.72h124a6.73,6.73,0,0,1,6.72,6.72v20a6.73,6.73,0,0,1-6.72,6.72Z"/><path class="cls-10" d="M477.19,501.1a3,3,0,0,1-3,3A3,3,0,1,1,476.3,499,3,3,0,0,1,477.19,501.1Z"/><path class="cls-8" d="M692.25,519.77H514.37a5.05,5.05,0,0,1-5.06-5.06v-3.26a5.05,5.05,0,0,1,5.06-5.06H692.25a5.05,5.05,0,0,1,5.06,5.06v3.26a5.05,5.05,0,0,1-5.06,5.06Z"/><path class="cls-9" d="M685,927.36h-.06A1.28,1.28,0,0,1,684,927a1.23,1.23,0,0,1-.32-.9l4-91.48,4-91.49a1.22,1.22,0,0,1,.41-.86,1.31,1.31,0,0,1,.89-.33,1.25,1.25,0,0,1,.87.4,1.27,1.27,0,0,1,.33.9l-4,91.49-4,91.48a1.25,1.25,0,0,1-1.24,1.2Z"/><path class="cls-8" d="M669.07,598H537.55a16,16,0,0,1-16-16V519.77H685.05V582a16,16,0,0,1-16,16Z"/><path class="cls-6" d="M686.08,649.14l.49-.32.5-.37a12,12,0,0,0,2.23-2.31,7.29,7.29,0,0,0,1.47-4.77,7.44,7.44,0,0,0-2-4.52,8.64,8.64,0,0,0-4.34-2.53,8.25,8.25,0,0,0-4.49.21,9,9,0,0,0-3.82,2.52,11,11,0,0,0,1.42-3.11,8.45,8.45,0,0,0,.07-4.4,9.08,9.08,0,0,0-3.33-4.93,10.31,10.31,0,0,0-5.92-2.07,12,12,0,0,0-3.07.6,8.73,8.73,0,0,0-4.46,3.26,9,9,0,0,0-1.38,6.34,11.44,11.44,0,0,0,3.28,6.46,9.4,9.4,0,0,0-6.2.5,8.08,8.08,0,0,0-4.86,8.65A8.36,8.36,0,0,0,656,654.6a8.56,8.56,0,0,0,2.88.9l-.41.1-.4.09a8.27,8.27,0,0,0-6.17,9.95h0a8.28,8.28,0,0,0,10,6.18l5.69-1.45,5.7-1.44L681,706l7.76,37.11h9.37l-8.29-38-8.28-38,4-1,4-.94a8.3,8.3,0,0,0,6.17-10h0a8.29,8.29,0,0,0-9.75-6.21Z"/><path class="cls-6" d="M714.47,673.46l-.5-.33c-.16-.11-.33-.24-.49-.37a11.65,11.65,0,0,1-2.24-2.31,7.27,7.27,0,0,1-1.46-4.76,7.41,7.41,0,0,1,2-4.53,8.61,8.61,0,0,1,4.33-2.53,8.24,8.24,0,0,1,4.49.21,8.89,8.89,0,0,1,3.82,2.52,11.18,11.18,0,0,1-1.42-3.11,8.56,8.56,0,0,1-.06-4.4,9.08,9.08,0,0,1,3.33-4.93,10.18,10.18,0,0,1,5.92-2.06,11.24,11.24,0,0,1,3.06.59,8.75,8.75,0,0,1,4.47,3.26,9,9,0,0,1,1.38,6.34,11.44,11.44,0,0,1-3.28,6.46,9.4,9.4,0,0,1,6.2.5,8.08,8.08,0,0,1,4.86,8.65,8.4,8.4,0,0,1-2,4.35,8.4,8.4,0,0,1-5.28,2.8l.4.1.41.09a8.29,8.29,0,0,1,6.17,10h0a8.29,8.29,0,0,1-10,6.18l-5.7-1.44-5.69-1.45-6.22,25-6.22,24.95h-9.37l6.74-25.82L719,691.51l-4-1-4-.94a8.27,8.27,0,0,1-6.17-10h0a8.25,8.25,0,0,1,9.75-6.21Z"/><path class="cls-9" d="M758.69,928.53H642.34l17.95-93.32,17.94-93.32h42.06l19.2,93.32ZM645.37,926H755.62l-18.68-90.82-18.69-90.82h-38l-17.47,90.82Z"/><polygon class="cls-10" points="691.74 827.34 657.7 827.34 623.66 827.34 623.66 820.66 623.66 813.99 657.7 813.99 691.74 813.99 691.74 820.66 691.74 827.34"/><polygon class="cls-6" points="623.66 827.34 614.03 877.93 604.39 928.51 658.64 928.51 712.88 928.51 702.31 877.93 691.74 827.34 657.7 827.34 623.66 827.34"/><path class="cls-10" d="M676.82,929.76h-.17a1.24,1.24,0,0,1-1.07-1.4l6.82-50.81,6.82-50.81a1.25,1.25,0,0,1,2.23-.59,1.27,1.27,0,0,1,.25.93l-6.82,50.8-6.82,50.81a1.28,1.28,0,0,1-.42.78A1.25,1.25,0,0,1,676.82,929.76Z"/><path class="cls-10" d="M660.2,905.91H628.89a4.36,4.36,0,0,1-4.31-5.14l4.24-23.62,4.24-23.61a4.38,4.38,0,0,1,4.3-3.6h31.31a4.38,4.38,0,0,1,4.31,5.15l-4.24,23.61-4.23,23.61a4.38,4.38,0,0,1-4.31,3.6Z"/><path class="cls-10" d="M563.65,506.3c-9.45-11.13-17.77-20.7-24-27.66s-10.46-11.32-11.67-12a6.74,6.74,0,0,0-2.94-.95,3.65,3.65,0,0,0-1.15.09,4.15,4.15,0,0,0-.69.28,4.43,4.43,0,0,0-.65.41c-.36.28-.79.61-1.27,1s-1,.84-1.67,1.37L517,466l-2.35-2.58,1.24-1,1.12-.9a13,13,0,0,1,8.49-2.82,12.67,12.67,0,0,1,8.26,3.4c.84.79,1.61,1.58,2.27,2.29s1.2,1.33,1.6,1.79q7,8.06,16,18.05t19.81,22.15l-4.91-.05Z"/><path class="cls-1" d="M537,509.5a49.69,49.69,0,0,0-16-6.56,54.82,54.82,0,0,0-17.41-.94,53.44,53.44,0,0,0-23.79,8.65,78,78,0,0,0-13.12,11,69.59,69.59,0,0,0-7.82,9.45c-2.16,3.09-4,6.13-5.7,9.07a124.78,124.78,0,0,0-7.33,14.35c-1.91,4.41-3.33,8.37-4.39,11.68h-.18c.38,4.89,1,10.18,1.94,15.57a115.49,115.49,0,0,0,4,16.15h98.4a64.91,64.91,0,0,0,6.61-9.68A59.55,59.55,0,0,0,558,573.93a72.2,72.2,0,0,0,.2-33.47C555.33,528.56,548.9,517.08,537,509.5Z"/><path class="cls-5" d="M393.58,561.34c-5.53-1.26-10.74-2.69-15.62-4.23s-9.41-3.17-13.59-4.83L361.05,563l-3.32,10.76L375,577.24l17.25,3.45-16.59.13-16.59.13v17h88.19a115.49,115.49,0,0,1-4-16.15c-1-5.39-1.56-10.68-1.94-15.57a200.52,200.52,0,0,1-21.87-.81A197.69,197.69,0,0,1,393.58,561.34Z"/><path class="cls-4" d="M444.12,572.33a1.34,1.34,0,0,1-.4-.06,1.24,1.24,0,0,1-.36-.19,1.21,1.21,0,0,1-.48-.83,1.19,1.19,0,0,1,.24-.92,96.85,96.85,0,0,1,18.47-18.16,93.21,93.21,0,0,1,73.48-17.43,96.27,96.27,0,0,1,24.37,7.93,1.22,1.22,0,0,1,.63.71,1.23,1.23,0,0,1-.77,1.59,1.21,1.21,0,0,1-.95-.05,93.86,93.86,0,0,0-23.73-7.73,90.81,90.81,0,0,0-71.54,17,94.56,94.56,0,0,0-18,17.68,1.14,1.14,0,0,1-.45.37A1.29,1.29,0,0,1,444.12,572.33Z"/><path class="cls-4" d="M479.41,587.13a135.6,135.6,0,0,1-35.62-4.77,1.25,1.25,0,1,1,.66-2.41,134,134,0,0,0,29.29,4.56,129.11,129.11,0,0,0,63.15-13.36A131.26,131.26,0,0,0,559.28,557a1.25,1.25,0,0,1,1.75.22,1.29,1.29,0,0,1,.26.92,1.21,1.21,0,0,1-.48.83A133.56,133.56,0,0,1,538,573.39a132.14,132.14,0,0,1-42.47,12.76A133.75,133.75,0,0,1,479.41,587.13Z"/><path class="cls-5" d="M785.3,356.16a42.78,42.78,0,0,0-9.64-9.16,57.12,57.12,0,0,0-11.84-6.27c-6.39-2.52-13.28-3.78-19.68-3a24.36,24.36,0,0,0-16.77,9.62c-5.73,7.55-8.45,16-12.32,23.56s-8.88,14-19.19,17.64c-6,2.09-11.71,2.13-17.46,1.83s-11.49-.93-17.46-.19A41.07,41.07,0,0,0,648.11,394a41.92,41.92,0,0,0-10.94,7.69A63.58,63.58,0,0,0,623.59,422a118.77,118.77,0,0,0-7.22,23.5A79.71,79.71,0,0,1,596.29,484,78.7,78.7,0,0,1,559,506.08c-.38.11-.69.18-.89.23l-.31.08H692.25A74.46,74.46,0,0,0,709,498.51a45,45,0,0,0,13.22-12.8c4.18-6.32,4.39-13.14,4.18-20.06s-.83-13.95,1.65-20.66,6.88-9.9,12-11.85,11-2.77,16.49-5.16a52.17,52.17,0,0,0,16-11.34A79.08,79.08,0,0,0,784.45,401a52.12,52.12,0,0,0,7.24-22.5A32.79,32.79,0,0,0,785.3,356.16ZM671.53,443a42.55,42.55,0,0,1-9.79,14.26c-3.56,3.18-7.13,4.55-9.87,3.33s-4.13-4.77-4.16-9.54a47.08,47.08,0,0,1,13.78-31.11c3.56-3.18,7.13-4.55,9.87-3.33s4.13,4.77,4.16,9.55A42.74,42.74,0,0,1,671.53,443Z"/><path class="cls-6" d="M362.94,625.68c.36,0,.73-.08,1.11-.13l1.14-.21a22.29,22.29,0,0,0,5.71-2,13.73,13.73,0,0,0,6.45-6.81,13.91,13.91,0,0,0,.35-9.33,16.31,16.31,0,0,0-5.2-7.91,15.55,15.55,0,0,0-7.76-3.38,16.67,16.67,0,0,0-8.54,1,20.69,20.69,0,0,0,5-4.06,15.93,15.93,0,0,0,3.78-7.38,17,17,0,0,0-1.49-11.09,19.34,19.34,0,0,0-8.27-8.44,21.6,21.6,0,0,0-5.68-1.55,16.41,16.41,0,0,0-10.25,1.76,16.9,16.9,0,0,0-7.62,9.56,21.46,21.46,0,0,0,.13,13.64A17.82,17.82,0,0,0,320.9,585a15.66,15.66,0,0,0-10.5,3.37,15.46,15.46,0,0,0-4.92,7.18,15.68,15.68,0,0,0,2.17,14.21,16,16,0,0,0,4.1,3.93l-.76-.18-.76-.18A15.6,15.6,0,0,0,291.49,625h0a15.6,15.6,0,0,0,11.64,18.74l7.61,1.78,7.61,1.78-2.55,10.9-2.55,10.91,10.95,2.56,11,2.56,2.55-10.91,2.54-10.91,7.61,1.78,7.61,1.78a15.6,15.6,0,0,0,18.74-11.64h0a15.6,15.6,0,0,0-11.27-18.63Z"/><path class="cls-2" d="M446.48,335.36a35,35,0,0,0,16.69,12.13,32.87,32.87,0,0,0,20.11.42A32.44,32.44,0,0,0,495.51,341a34.23,34.23,0,0,0,8.33-11.41,39.63,39.63,0,0,0-13.78-12.23A39.31,39.31,0,0,0,432.31,352a40.18,40.18,0,0,0,.42,5.74,39.72,39.72,0,0,0,1.22,5.49,18.87,18.87,0,0,0,1.92-1,18.37,18.37,0,0,0,1.53-1c5.48-4.07,7.79-10.18,8.71-15.45A37.69,37.69,0,0,0,446.48,335.36Z"/><path class="cls-8" d="M292.82,864.06a12.78,12.78,0,0,1-6.4,7.1,13.78,13.78,0,0,1-17.69-4.81A12.72,12.72,0,0,1,266.9,857q4.71-41.18,9.41-82.37l9.42-82.37A31.25,31.25,0,0,1,299.1,669.7a33.93,33.93,0,0,1,26.47-5.3h0a33.93,33.93,0,0,1,22.21,15.54,31.3,31.3,0,0,1,3.11,26.14l-29,79Z"/><path class="cls-9" d="M344.49,723.48h-.16l-.16,0-14.93-3.83-14.93-3.83a1.25,1.25,0,0,1-.76-.58,1.29,1.29,0,0,1-.14-1,1.25,1.25,0,0,1,.58-.76,1.28,1.28,0,0,1,.94-.14l14.94,3.84L344.8,721a1.25,1.25,0,0,1,.76.58,1.23,1.23,0,0,1-.31,1.62A1.25,1.25,0,0,1,344.49,723.48Z"/><path class="cls-9" d="M334.43,751.84h-.16l-.15,0-13-3.33-13-3.34a1.19,1.19,0,0,1-.77-.57,1.29,1.29,0,0,1-.14-.95,1.25,1.25,0,0,1,.58-.76,1.29,1.29,0,0,1,.95-.14l13,3.34,13,3.33a1.23,1.23,0,0,1,.76.57,1.25,1.25,0,0,1,.14.95,1.3,1.3,0,0,1-.45.68A1.23,1.23,0,0,1,334.43,751.84Z"/><path class="cls-7" d="M462.38,526.1a56.3,56.3,0,0,0-15.44-2.23c-8.17,0-18.15,1.8-26.38,9a35.78,35.78,0,0,0-8.87,11.93A61.7,61.7,0,0,0,408,555.48a64.1,64.1,0,0,0-2,20.27c.48,6.39,2.25,11.57,5.72,13a5.39,5.39,0,0,0,1.79.38,7.9,7.9,0,0,0,2.4-.32,8.31,8.31,0,0,0,2.47,4.19,7.16,7.16,0,0,0,4.17,1.85,7,7,0,0,0,4.05-1,8.2,8.2,0,0,0,1.83-1.4,8.8,8.8,0,0,0,4.33,3.44,7.68,7.68,0,0,0,5.2,0,7.14,7.14,0,0,0,2-1.16,8,8,0,0,0,1.4-1.53,8.25,8.25,0,0,0,1.12-2.24,10.28,10.28,0,0,0,.47-2.47l.33-5.51.33-5.51a98.18,98.18,0,0,1,4.75-24.85A90.8,90.8,0,0,1,459.54,530c.45-.66.91-1.33,1.39-2S461.89,526.75,462.38,526.1Z"/><path class="cls-2" d="M415.91,590.06a1.26,1.26,0,0,1-.83-.31,1.24,1.24,0,0,1-.41-.78,80.79,80.79,0,0,1-.62-8.2,79.31,79.31,0,0,1,.2-8.17,76.86,76.86,0,0,1,1.27-10,56.13,56.13,0,0,1,4.64-13.8c.22-.46.45-.91.69-1.36s.48-.9.72-1.34a1.27,1.27,0,0,1,1.71-.48,1.25,1.25,0,0,1,.59.75,1.32,1.32,0,0,1-.11.95c-.24.42-.47.85-.7,1.28s-.45.86-.66,1.3A54.18,54.18,0,0,0,418,563.13a86.88,86.88,0,0,0-1.41,17.57,75.73,75.73,0,0,0,.6,7.95,1.3,1.3,0,0,1-.25.93,1.25,1.25,0,0,1-.84.47h-.15Z"/><path class="cls-2" d="M428.43,593.75a1.26,1.26,0,0,1-.84-.33,1.19,1.19,0,0,1-.4-.82c-1.42-16.9.38-28,2.58-34.84s4.81-9.6,5-9.82a1.28,1.28,0,0,1,.89-.36,1.24,1.24,0,0,1,.88.36,1.27,1.27,0,0,1,.37.88,1.24,1.24,0,0,1-.36.88c-.07.07-2.46,2.64-4.51,9.25s-3.74,17.24-2.38,33.44a1.25,1.25,0,0,1-1.14,1.35h-.11Z"/><path class="cls-8" d="M308.84,890.89a12.81,12.81,0,0,1-8,5.29,13.83,13.83,0,0,1-9.7-1.52,13.66,13.66,0,0,1-6.22-7.56,12.65,12.65,0,0,1,.56-9.52q14.82-38.72,29.65-77.42t29.65-77.42a31.29,31.29,0,0,1,18.58-18.51,34,34,0,0,1,27,1.47h0A34,34,0,0,1,408,726.29a31.3,31.3,0,0,1-3.51,26.09l-47.81,69.26Z"/><path class="cls-4" d="M388.46,928.51H248.66l-9.23-86.14-9.23-86.13a4,4,0,0,1,3.94-4.39H401.29a4,4,0,0,1,3.95,4.35l-8.39,86.16Z"/><path class="cls-9" d="M403.22,774.77H232.05a1.25,1.25,0,0,1-.89-.37,1.25,1.25,0,0,1,.89-2.13H403.22a1.25,1.25,0,0,1,.89,2.13A1.25,1.25,0,0,1,403.22,774.77Z"/><path class="cls-3" d="M471.17,872.3a39.26,39.26,0,0,1-10.36,26.83,33.66,33.66,0,0,1-50,0,40,40,0,0,1,0-53.66,33.66,33.66,0,0,1,50,0A39.28,39.28,0,0,1,471.17,872.3Z"/><path class="cls-1" d="M517.28,851.81H440.63v-1.16A38.32,38.32,0,0,1,479,812.32h0a38.34,38.34,0,0,1,38.33,38.33v1.16Z"/><path class="cls-6" d="M495.32,794.89h-4.66a21.93,21.93,0,1,0-24.34,0h-4.66a8.66,8.66,0,0,0,0,17.32h33.66a8.66,8.66,0,0,0,0-17.32Z"/><polygon class="cls-9" points="479.74 812.32 478.49 812.32 477.24 812.32 477.24 783.53 477.24 754.75 478.49 754.75 479.74 754.75 479.74 783.53 479.74 812.32"/><path class="cls-9" d="M254.83,856.94a1.27,1.27,0,0,1-.47-.09,1.4,1.4,0,0,1-.42-.28,1.26,1.26,0,0,1,0-1.77l41.17-41.08,41.17-41.09a1.24,1.24,0,0,1,.88-.36,1.23,1.23,0,0,1,1.25,1.25,1.24,1.24,0,0,1-.36.88l-41.18,41.09-41.17,41.08a1.11,1.11,0,0,1-.41.28A1.27,1.27,0,0,1,254.83,856.94Z"/><path class="cls-9" d="M248.66,929.76a1.22,1.22,0,0,1-.46-.09,1.37,1.37,0,0,1-.42-.27,1.3,1.3,0,0,1-.37-.88,1.25,1.25,0,0,1,.37-.89l76.61-77.35L401,772.92a1.26,1.26,0,0,1,1.77,0,1.21,1.21,0,0,1,.37.88,1.28,1.28,0,0,1-.36.89L326.16,852l-76.61,77.35a1.11,1.11,0,0,1-.41.28A1.28,1.28,0,0,1,248.66,929.76Z"/><path class="cls-9" d="M361.69,929.76a1.44,1.44,0,0,1-.46-.08,1.22,1.22,0,0,1-.41-.27L306.37,877,251.91,824.6a1.26,1.26,0,0,1,0-1.77,1.18,1.18,0,0,1,.87-.38,1.23,1.23,0,0,1,.89.35l54.46,52.4,54.46,52.41a1.26,1.26,0,0,1,.38.88,1.26,1.26,0,0,1-.77,1.18A1.32,1.32,0,0,1,361.69,929.76Z"/><path class="cls-9" d="M392.79,885.33a1.39,1.39,0,0,1-.46-.08,1.22,1.22,0,0,1-.41-.27l-51.55-49.46-51.55-49.47a1.22,1.22,0,0,1-.38-.88,1.23,1.23,0,0,1,1.22-1.27,1.23,1.23,0,0,1,.89.35l51.55,49.46,51.55,49.47a1.24,1.24,0,0,1,0,1.77,1.32,1.32,0,0,1-.42.29A1.36,1.36,0,0,1,392.79,885.33Z"/><path class="cls-9" d="M314.45,929.76a1.38,1.38,0,0,1-.45-.08,1.25,1.25,0,0,1-.8-1.13,1.22,1.22,0,0,1,.34-.89l41.3-44.17,41.31-44.16a1.2,1.2,0,0,1,.87-.4,1.22,1.22,0,0,1,.89.34,1.2,1.2,0,0,1,.4.87,1.22,1.22,0,0,1-.34.89l-41.3,44.17-41.31,44.17a1.1,1.1,0,0,1-.42.29A1.19,1.19,0,0,1,314.45,929.76Z"/><path class="cls-6" d="M409.57,821.16,408,822.88l-1.58,1.72a22.07,22.07,0,0,0-.91-10.45A21.93,21.93,0,1,0,390,842.51l-1.57,1.72-1.58,1.71a8.66,8.66,0,0,0,12.75,11.72l11.38-12.39,11.39-12.39a8.66,8.66,0,0,0-12.75-11.72Z"/><path class="cls-2" d="M499.72,928.51H380a24.92,24.92,0,0,1-24.94-24.94V858.19a6.38,6.38,0,0,1,6.38-6.38H518.28a6.38,6.38,0,0,1,6.38,6.38v45.38a24.92,24.92,0,0,1-24.94,24.94Z"/><path class="cls-2" d="M355.06,884.08h-27.4a3.41,3.41,0,0,1-3.43-3.43V870.23a3.41,3.41,0,0,1,3.43-3.43h27.4v17.28Z"/><path class="cls-2" d="M552.06,884.08h-27.4V866.8h27.4a3.42,3.42,0,0,1,2.43,1,3.47,3.47,0,0,1,1,2.43v10.42a3.47,3.47,0,0,1-1,2.43A3.42,3.42,0,0,1,552.06,884.08Z"/><polygon class="cls-9" points="524.66 868.05 439.86 868.05 355.06 868.05 355.06 866.8 355.06 865.55 439.86 865.55 524.66 865.55 524.66 866.8 524.66 868.05"/><polygon class="cls-9" points="410.17 846.27 388.98 826.79 367.78 807.31 368.63 806.38 369.47 805.47 390.67 824.95 411.87 844.43 411.02 845.35 410.17 846.27"/><path class="cls-8" d="M743,502.65l-37.78-16.31L667.39,470a.86.86,0,0,0-1.07.29.88.88,0,0,0,0,1.11l55.56,63.11,55.55,63.12a.88.88,0,0,0,1.1.19.85.85,0,0,0,.41-1l-12.78-41.13-12.78-41.13h0l4.74-4.16,4.73-4.17,2.8,3.18,2.79,3.18a2.31,2.31,0,0,0,3.26.21l2.41-2.13,2.42-2.13a2.31,2.31,0,0,0,.78-1.58,2.28,2.28,0,0,0-.57-1.67L766,493l-10.75-12.21a2.31,2.31,0,0,0-3.26-.21l-2.41,2.13-2.42,2.13a2.3,2.3,0,0,0-.21,3.25l2.8,3.18,2.8,3.18-4.74,4.16-4.73,4.17-.07-.09Z"/><path class="cls-8" d="M519.16,159.49c15.36-15.63,18.65-27.51,14.71-31.35s-15.09.37-28.63,16.9c5.83-21.32,2.38-32.93-3.38-33.19S488,122.68,484.65,146.73c-6-23.84-15.3-34-21-32.84s-7.71,13.55.93,34.81C449,133.34,437.08,130.05,433.24,134s.37,15.09,16.9,28.63c-21.33-5.83-32.94-2.38-33.2,3.38s10.83,13.82,34.89,17.21c-23.85,6-34,15.31-32.85,21s13.56,7.71,34.81-.93c-15.35,15.64-18.64,27.51-14.71,31.35s15.1-.36,28.64-16.9c-5.83,21.33-2.38,32.94,3.37,33.2S484.91,240.09,488.3,216c6,23.84,15.31,34,21,32.84s7.71-13.56-.92-34.81c15.63,15.35,27.51,18.64,31.35,14.71s-.37-15.1-16.9-28.64c21.33,5.84,32.93,2.38,33.19-3.37S545.18,183,521.13,179.56c23.84-6,34-15.31,32.84-21S540.42,150.86,519.16,159.49Z"/><path class="cls-3" d="M509.53,180.77a23.07,23.07,0,1,1-7.19-16.12A23,23,0,0,1,509.53,180.77Z"/><path class="cls-9" d="M721.83,928.53a1.22,1.22,0,0,1-.85-.33,1.31,1.31,0,0,1-.4-.83L714,835.3l-6.59-92.07a1.26,1.26,0,0,1,.3-.91,1.28,1.28,0,0,1,.86-.43,1.23,1.23,0,0,1,1.33,1.16l6.6,92.07,6.59,92.07a1.27,1.27,0,0,1-1.16,1.34h-.09Z"/><path class="cls-4" d="M241.16,690a1.72,1.72,0,0,1-.55-.1,1.46,1.46,0,0,1-.48-.31,1.5,1.5,0,0,1-.06-2.12l2.11-2.24,2.11-2.25a1.48,1.48,0,0,1,1-.47,1.52,1.52,0,0,1,1.08.41,1.5,1.5,0,0,1,.06,2.12l-2.11,2.24-2.11,2.25a1.6,1.6,0,0,1-.51.35A1.43,1.43,0,0,1,241.16,690Z"/><path class="cls-4" d="M201.55,689.18h-7.38a1.45,1.45,0,0,1-1.06-.44,1.49,1.49,0,0,1-.44-1.06,1.51,1.51,0,0,1,.44-1.06,1.49,1.49,0,0,1,1.06-.44h7.38a1.5,1.5,0,0,1,1.5,1.5,1.49,1.49,0,0,1-.44,1.06A1.46,1.46,0,0,1,201.55,689.18Z"/><polygon class="cls-4" points="235.51 736.27 239.39 732.86 243.27 729.46 244.62 739.03 245.98 748.6 240.74 742.43 235.51 736.27"/><polygon class="cls-4" points="340.25 652.39 334.31 651.03 328.36 649.67 332.66 658.09 336.95 666.51 338.61 659.45 340.25 652.39"/><path class="cls-4" d="M318.65,617.3a1,1,0,0,1-.24,0,1.14,1.14,0,0,1-.25-.06l-4.7-1.63-4.7-1.63a1.54,1.54,0,0,1-.86-.76,1.52,1.52,0,0,1-.07-1.15,1.54,1.54,0,0,1,.76-.86,1.57,1.57,0,0,1,1.15-.07l4.7,1.63,4.71,1.63a1.47,1.47,0,0,1,.85.77,1.45,1.45,0,0,1,.07,1.14,1.54,1.54,0,0,1-.55.74A1.57,1.57,0,0,1,318.65,617.3Z"/><path class="cls-4" d="M349.21,599.3a1.49,1.49,0,0,1-1-.37,1.51,1.51,0,0,1-.2-2,1.52,1.52,0,0,1,1-.57l3.49-.44,3.49-.44a1.5,1.5,0,0,1,1.11.31,1.51,1.51,0,0,1,.26,2.1,1.54,1.54,0,0,1-1,.57l-3.49.44-3.49.44h-.19Z"/><path class="cls-4" d="M441.79,682.48a1.74,1.74,0,0,1-.39-.05,2,2,0,0,1-.37-.16l-5.28-3.1-5.28-3.11a1.5,1.5,0,0,1-.7-.91,1.52,1.52,0,0,1,.16-1.14,1.47,1.47,0,0,1,.92-.69,1.49,1.49,0,0,1,1.14.16l5.28,3.1,5.28,3.11a1.45,1.45,0,0,1,.69.91,1.49,1.49,0,0,1-.16,1.14,1.45,1.45,0,0,1-.55.55A1.6,1.6,0,0,1,441.79,682.48Z"/><path class="cls-4" d="M425,643.77a1.5,1.5,0,0,1-1.45-1.12l-.73-2.76-.72-2.76a1.5,1.5,0,0,1,2.9-.77l.72,2.76.73,2.76a1.49,1.49,0,0,1-.15,1.14,1.56,1.56,0,0,1-.92.7l-.19,0Z"/><polygon class="cls-4" points="411.9 699.27 407.2 696.45 402.49 693.63 402.33 704.43 402.17 715.23 407.04 707.25 411.9 699.27"/><path class="cls-4" d="M402.49,658.8a1.52,1.52,0,0,1-.42-.06,1.47,1.47,0,0,1-.4-.19l-2.8-1.84-2.79-1.85a1.44,1.44,0,0,1-.64-1,1.52,1.52,0,0,1,.21-1.13,1.54,1.54,0,0,1,1-.64,1.46,1.46,0,0,1,1.12.22l2.79,1.84,2.8,1.85a1.49,1.49,0,0,1,.64,1,1.46,1.46,0,0,1-.22,1.12,1.39,1.39,0,0,1-.55.5A1.46,1.46,0,0,1,402.49,658.8Z"/><polygon class="cls-4" points="727.29 693.24 724.56 692.7 721.83 692.16 723.3 697.77 724.76 703.39 726.02 698.32 727.29 693.24"/><polygon class="cls-4" points="681.58 667.2 679.14 667.71 676.7 668.22 680 671.66 683.3 675.09 682.44 671.15 681.58 667.2"/></svg>